<svg id="Grupo_73" data-name="Grupo 73" xmlns="http://www.w3.org/2000/svg" xmlns:xlink="http://www.w3.org/1999/xlink" width="196.5" height="37.333" viewBox="0 0 196.5 37.333">
  <defs>
    <clipPath id="clip-path">
      <rect id="Rect치ngulo_74" data-name="Rect치ngulo 74" width="196.5" height="37.333" fill="#fff"/>
    </clipPath>
  </defs>
  <path id="Trazado_157" data-name="Trazado 157" d="M51.948,28.185h6.808v2.04H49.442V16.743h2.507Z" transform="translate(5.447 1.844)" fill="#fff"/>
  <g id="Grupo_72" data-name="Grupo 72" transform="translate(0 0)">
    <g id="Grupo_71" data-name="Grupo 71" clip-path="url(#clip-path)">
      <path id="Trazado_158" data-name="Trazado 158" d="M62.918,24.588a11.7,11.7,0,0,0,2.006-.105,2.1,2.1,0,0,0,1.07-.434,1.138,1.138,0,0,0,.337-.886,1.515,1.515,0,0,0-.57-1.173,2.648,2.648,0,0,0-1.784-.5,2.572,2.572,0,0,0-1.9.665,2.68,2.68,0,0,0-.763,1.7h-2.33a4.268,4.268,0,0,1,.617-2.108,4.1,4.1,0,0,1,1.7-1.521,5.862,5.862,0,0,1,2.68-.568,4.977,4.977,0,0,1,3.529,1.079,3.675,3.675,0,0,1,1.138,2.792v6.376H66.426l-.1-3.158h-.1A3.624,3.624,0,0,1,64.96,29.33a4.129,4.129,0,0,1-2.68.886,3.917,3.917,0,0,1-2.439-.713,2.413,2.413,0,0,1-.936-2.042,2.513,2.513,0,0,1,1.014-2.118,4.8,4.8,0,0,1,3-.755m.175,4.005a3.225,3.225,0,0,0,1.65-.433,3.291,3.291,0,0,0,1.167-1.118,2.678,2.678,0,0,0,.424-1.434V24.086h-.1a1.912,1.912,0,0,1-.414.984,2.172,2.172,0,0,1-1.022.578,8.509,8.509,0,0,1-1.976.269,1.8,1.8,0,0,0-1.1.385,1.179,1.179,0,0,0-.4.945,1.2,1.2,0,0,0,.444,1,2.144,2.144,0,0,0,1.33.345" transform="translate(6.49 2.166)" fill="#fff"/>
      <path id="Trazado_159" data-name="Trazado 159" d="M82.614,30.226l-.54-3.255a2.993,2.993,0,0,0-.355-1.126,1.243,1.243,0,0,0-.7-.52,4.693,4.693,0,0,0-1.332-.145H76.444v5.046H73.936V16.743h6.5a5.11,5.11,0,0,1,3.211.9,2.974,2.974,0,0,1,1.167,2.485,3.192,3.192,0,0,1-.935,2.359,3.674,3.674,0,0,1-2.459,1.03v.135a3.264,3.264,0,0,1,2.122.625,3.289,3.289,0,0,1,.887,1.954l.734,3.988H82.614Zm-2.777-6.914a2.543,2.543,0,0,0,1.812-.646,2.21,2.21,0,0,0,.695-1.7,2,2,0,0,0-.684-1.58,2.681,2.681,0,0,0-1.823-.6H76.444V23.31h3.394Z" transform="translate(8.145 1.844)" fill="#fff"/>
      <path id="Trazado_160" data-name="Trazado 160" d="M95.034,19.937v9.937H92.777l-.1-2.966h-.115a3.68,3.68,0,0,1-1.206,2.377,3.5,3.5,0,0,1-2.4.9,3.817,3.817,0,0,1-1.852-.453,3.3,3.3,0,0,1-1.311-1.3,3.983,3.983,0,0,1-.482-2V19.935h2.354v5.758a2.681,2.681,0,0,0,.627,1.906,2.284,2.284,0,0,0,1.765.674,2.363,2.363,0,0,0,1.909-.856,3.516,3.516,0,0,0,.714-2.321V19.935h2.351Z" transform="translate(9.399 2.196)" fill="#fff"/>
      <path id="Trazado_161" data-name="Trazado 161" d="M99.516,21.695v5.43a1.248,1.248,0,0,0,.3.984,1.886,1.886,0,0,0,1.148.25c.385,0,.83-.019,1.331-.057v1.85c-.77.063-1.394.1-1.871.1a6.206,6.206,0,0,1-1.88-.261,1.813,1.813,0,0,1-1.04-.837,3.434,3.434,0,0,1-.337-1.675V21.7h-1.62V20.2h1.62v-2.6H99.4l.079,2.6H102.3v1.5H99.516Z" transform="translate(10.526 1.938)" fill="#fff"/>
      <path id="Trazado_162" data-name="Trazado 162" d="M106.748,24.588a11.7,11.7,0,0,0,2.006-.105,2.1,2.1,0,0,0,1.07-.434,1.138,1.138,0,0,0,.337-.886,1.515,1.515,0,0,0-.57-1.173,2.648,2.648,0,0,0-1.784-.5,2.572,2.572,0,0,0-1.9.665,2.68,2.68,0,0,0-.763,1.7h-2.334a4.246,4.246,0,0,1,.617-2.108,4.1,4.1,0,0,1,1.7-1.521,5.862,5.862,0,0,1,2.68-.568,4.977,4.977,0,0,1,3.529,1.079,3.675,3.675,0,0,1,1.138,2.792v6.376h-2.219l-.1-3.158h-.1a3.627,3.627,0,0,1-1.272,2.581,4.131,4.131,0,0,1-2.68.886,3.918,3.918,0,0,1-2.44-.713,2.413,2.413,0,0,1-.936-2.042,2.513,2.513,0,0,1,1.014-2.118,4.827,4.827,0,0,1,3-.755m.175,4.005a3.225,3.225,0,0,0,1.65-.433,3.291,3.291,0,0,0,1.167-1.118,2.678,2.678,0,0,0,.424-1.434V24.086h-.1a1.912,1.912,0,0,1-.414.984,2.172,2.172,0,0,1-1.022.578,8.509,8.509,0,0,1-1.976.269,1.8,1.8,0,0,0-1.1.385,1.182,1.182,0,0,0-.4.945,1.2,1.2,0,0,0,.444,1,2.139,2.139,0,0,0,1.33.345" transform="translate(11.318 2.166)" fill="#fff"/>
      <path id="Trazado_163" data-name="Trazado 163" d="M119.865,25.084v5.142h-2.45V16.743h2.835l4.109,6.338.385.616q1.369,2.157,1.891,3.024l.115-.039q-.077-2-.078-4.159V16.743h2.469V30.226h-2.777l-3.684-5.74q-1.64-2.521-2.777-4.43l-.115.019q.075,1.808.076,5.008" transform="translate(12.936 1.844)" fill="#fff"/>
      <path id="Trazado_164" data-name="Trazado 164" d="M133.31,24.588a11.7,11.7,0,0,0,2.006-.105,2.1,2.1,0,0,0,1.07-.434,1.138,1.138,0,0,0,.337-.886,1.515,1.515,0,0,0-.57-1.173,2.648,2.648,0,0,0-1.784-.5,2.571,2.571,0,0,0-1.9.665,2.68,2.68,0,0,0-.763,1.7h-2.334a4.245,4.245,0,0,1,.617-2.108,4.094,4.094,0,0,1,1.7-1.521,5.862,5.862,0,0,1,2.68-.568,4.977,4.977,0,0,1,3.529,1.079,3.675,3.675,0,0,1,1.138,2.792v6.376h-2.219l-.1-3.158h-.1a3.627,3.627,0,0,1-1.272,2.581,4.131,4.131,0,0,1-2.68.886,3.918,3.918,0,0,1-2.44-.713,2.413,2.413,0,0,1-.936-2.042,2.513,2.513,0,0,1,1.014-2.118,4.823,4.823,0,0,1,3-.755m.173,4.005a3.225,3.225,0,0,0,1.65-.433,3.291,3.291,0,0,0,1.167-1.118,2.678,2.678,0,0,0,.424-1.434V24.086h-.1a1.912,1.912,0,0,1-.415.984,2.172,2.172,0,0,1-1.022.578,8.509,8.509,0,0,1-1.976.269,1.791,1.791,0,0,0-1.1.385,1.179,1.179,0,0,0-.405.945,1.193,1.193,0,0,0,.445,1,2.138,2.138,0,0,0,1.329.345" transform="translate(14.244 2.166)" fill="#fff"/>
      <path id="Trazado_165" data-name="Trazado 165" d="M143.24,21.695v5.43a1.253,1.253,0,0,0,.3.984,1.888,1.888,0,0,0,1.148.25c.385,0,.83-.019,1.331-.057v1.85c-.77.063-1.394.1-1.871.1a6.212,6.212,0,0,1-1.88-.261,1.813,1.813,0,0,1-1.04-.837,3.434,3.434,0,0,1-.337-1.675V21.7h-1.62V20.2h1.62v-2.6h2.238l.078,2.6h2.814v1.5H143.24Z" transform="translate(15.343 1.938)" fill="#fff"/>
      <path id="Trazado_166" data-name="Trazado 166" d="M156.72,19.937v9.937h-2.257l-.1-2.966h-.115a3.685,3.685,0,0,1-1.206,2.377,3.5,3.5,0,0,1-2.4.9,3.817,3.817,0,0,1-1.852-.453,3.3,3.3,0,0,1-1.311-1.3,3.983,3.983,0,0,1-.482-2V19.935h2.352v5.758a2.682,2.682,0,0,0,.628,1.906,2.284,2.284,0,0,0,1.765.674,2.363,2.363,0,0,0,1.91-.856,3.522,3.522,0,0,0,.714-2.321V19.935h2.351Z" transform="translate(16.195 2.196)" fill="#fff"/>
      <path id="Trazado_167" data-name="Trazado 167" d="M160.686,21.415A2.769,2.769,0,0,1,162,20.181a5.476,5.476,0,0,1,2.238-.384v1.984a7.242,7.242,0,0,0-2.516.511,2.646,2.646,0,0,0-1.34,1.29,5.956,5.956,0,0,0-.464,2.4V29.89h-2.352V19.952h2.275l.078,3.793h.079a7.194,7.194,0,0,1,.693-2.331" transform="translate(17.358 2.181)" fill="#fff"/>
      <path id="Trazado_168" data-name="Trazado 168" d="M168.382,24.588a11.706,11.706,0,0,0,2.006-.105,2.1,2.1,0,0,0,1.07-.434,1.137,1.137,0,0,0,.336-.886,1.518,1.518,0,0,0-.568-1.173,2.654,2.654,0,0,0-1.785-.5,2.567,2.567,0,0,0-1.9.665,2.675,2.675,0,0,0-.763,1.7h-2.335a4.269,4.269,0,0,1,.617-2.108,4.1,4.1,0,0,1,1.7-1.521,5.859,5.859,0,0,1,2.68-.568,4.976,4.976,0,0,1,3.528,1.079,3.672,3.672,0,0,1,1.138,2.792v6.376h-2.218l-.091-3.161h-.1a3.623,3.623,0,0,1-1.272,2.581,4.131,4.131,0,0,1-2.68.886,3.918,3.918,0,0,1-2.44-.713,2.411,2.411,0,0,1-.935-2.04,2.514,2.514,0,0,1,1.012-2.119,4.808,4.808,0,0,1,3-.753m.173,4.005a3.224,3.224,0,0,0,1.649-.433,3.294,3.294,0,0,0,1.168-1.118,2.686,2.686,0,0,0,.423-1.434V24.086h-.1a1.9,1.9,0,0,1-.415.984,2.167,2.167,0,0,1-1.021.578,8.527,8.527,0,0,1-1.976.269,1.794,1.794,0,0,0-1.1.385,1.179,1.179,0,0,0-.4.945,1.192,1.192,0,0,0,.444,1,2.142,2.142,0,0,0,1.33.345" transform="translate(18.109 2.166)" fill="#fff"/>
      <rect id="Rect치ngulo_73" data-name="Rect치ngulo 73" width="2.354" height="13.483" transform="translate(194.146 18.588)" fill="#fff"/>
      <path id="Trazado_169" data-name="Trazado 169" d="M55.619,12.556l-.7-2.144a.179.179,0,0,0-.17-.124h-2.99a.181.181,0,0,0-.171.124l-.7,2.144a.179.179,0,0,1-.171.124H49.621a.179.179,0,0,1-.17-.235L52.129,4.5a.177.177,0,0,1,.17-.122h1.913a.178.178,0,0,1,.171.122l2.678,7.949a.178.178,0,0,1-.171.235h-1.1a.178.178,0,0,1-.167-.124M52.263,9.089h1.974a.179.179,0,0,0,.171-.233l-.99-3.017a.179.179,0,0,0-.341,0l-.985,3.017a.181.181,0,0,0,.171.233" transform="translate(5.447 0.482)" fill="#fff"/>
      <path id="Trazado_170" data-name="Trazado 170" d="M57.313,6.348h.878a.18.18,0,0,1,.178.153l.09.644h.079a1.72,1.72,0,0,1,.709-.649,2.16,2.16,0,0,1,.969-.219,2.767,2.767,0,0,1,.331.019.178.178,0,0,1,.158.179v.974a.175.175,0,0,1-.193.177c-.11-.01-.236-.014-.38-.014a2.179,2.179,0,0,0-.861.179,1.555,1.555,0,0,0-.627.461.189.189,0,0,0-.039.117v3.928a.179.179,0,0,1-.179.179H57.311a.179.179,0,0,1-.179-.179V6.527a.182.182,0,0,1,.181-.179" transform="translate(6.294 0.691)" fill="#fff"/>
      <path id="Trazado_171" data-name="Trazado 171" d="M62.1,14.994a6.288,6.288,0,0,1-.833-.158.179.179,0,0,1-.132-.175v-.8a.177.177,0,0,1,.225-.17,6.6,6.6,0,0,0,1.634.219,2.767,2.767,0,0,0,1.025-.16,1.109,1.109,0,0,0,.582-.514,1.969,1.969,0,0,0,.188-.931v-.482h-.074a1.965,1.965,0,0,1-.7.515,2.24,2.24,0,0,1-.929.185,2.287,2.287,0,0,1-1.192-.318,2.209,2.209,0,0,1-.854-.989,3.916,3.916,0,0,1-.32-1.681,3.287,3.287,0,0,1,.843-2.448,3.457,3.457,0,0,1,2.507-.837,8.032,8.032,0,0,1,1.142.084,6.484,6.484,0,0,1,.925.2.18.18,0,0,1,.127.173V12.04a3.741,3.741,0,0,1-.345,1.725,2.1,2.1,0,0,1-1.044.976,4.338,4.338,0,0,1-1.77.312,7.374,7.374,0,0,1-1-.059m2.164-3.8a1.348,1.348,0,0,0,.476-.315.19.19,0,0,0,.049-.127V7.634a.183.183,0,0,0-.148-.179,3.746,3.746,0,0,0-.7-.064,1.667,1.667,0,0,0-1.307.482A2.253,2.253,0,0,0,62.2,9.41a2.314,2.314,0,0,0,.364,1.479,1.3,1.3,0,0,0,1.046.43,1.718,1.718,0,0,0,.653-.122" transform="translate(6.689 0.689)" fill="#fff"/>
      <path id="Trazado_172" data-name="Trazado 172" d="M71.856,9.854H68.435a.178.178,0,0,0-.177.2,1.9,1.9,0,0,0,.21.743,1.119,1.119,0,0,0,.607.506,3.113,3.113,0,0,0,1.1.159A6.247,6.247,0,0,0,71.49,11.3a.18.18,0,0,1,.221.172v.749a.183.183,0,0,1-.141.177,7.123,7.123,0,0,1-1.6.185,4.279,4.279,0,0,1-1.8-.331,2.181,2.181,0,0,1-1.054-1.031,4.089,4.089,0,0,1-.347-1.815,4.2,4.2,0,0,1,.321-1.734,2.278,2.278,0,0,1,.927-1.065,2.845,2.845,0,0,1,1.467-.355,2.309,2.309,0,0,1,1.9.806,3.747,3.747,0,0,1,.652,2.395v.219a.177.177,0,0,1-.178.181M68.561,7.62a2.132,2.132,0,0,0-.32,1.166.179.179,0,0,0,.179.188H70.47a.18.18,0,0,0,.18-.188,2.2,2.2,0,0,0-.306-1.166,1.016,1.016,0,0,0-.878-.4,1.068,1.068,0,0,0-.9.4" transform="translate(7.355 0.689)" fill="#fff"/>
      <path id="Trazado_173" data-name="Trazado 173" d="M72.679,6.35h.887a.178.178,0,0,1,.177.151l.079.5H73.9a2.324,2.324,0,0,1,.824-.55,2.709,2.709,0,0,1,1.015-.191,2.005,2.005,0,0,1,1.5.557,2.439,2.439,0,0,1,.552,1.765v3.716a.179.179,0,0,1-.179.179H76.5a.18.18,0,0,1-.18-.179V8.665a1.212,1.212,0,0,0-.259-.874,1.012,1.012,0,0,0-.752-.261,1.839,1.839,0,0,0-.732.154,1.508,1.508,0,0,0-.558.41.184.184,0,0,0-.042.118v4.082a.179.179,0,0,1-.179.179H72.681a.179.179,0,0,1-.179-.179V6.529a.175.175,0,0,1,.177-.179" transform="translate(7.987 0.689)" fill="#fff"/>
      <path id="Trazado_174" data-name="Trazado 174" d="M82.252,11.707v.82a.182.182,0,0,1-.143.177,4.7,4.7,0,0,1-.918.093A1.935,1.935,0,0,1,79.009,10.6V7.911a.179.179,0,0,0-.179-.179h-.7a.179.179,0,0,1-.179-.179V6.738a.179.179,0,0,1,.179-.18h.718a.178.178,0,0,0,.178-.158l.221-1.868a.178.178,0,0,1,.177-.158H80.3a.179.179,0,0,1,.179.179V6.379a.179.179,0,0,0,.179.179h1.357a.179.179,0,0,1,.18.18v.816a.179.179,0,0,1-.18.179H80.659a.179.179,0,0,0-.179.179v2.453a1.8,1.8,0,0,0,.115.713.725.725,0,0,0,.352.38,1.455,1.455,0,0,0,.624.115,3.424,3.424,0,0,0,.476-.042.176.176,0,0,1,.2.177" transform="translate(8.588 0.482)" fill="#fff"/>
      <path id="Trazado_175" data-name="Trazado 175" d="M82.818,5.35a.75.75,0,0,1-.234-.592.756.756,0,0,1,.234-.6,1.276,1.276,0,0,1,1.4,0,.752.752,0,0,1,.234.6.74.74,0,0,1-.234.592,1.305,1.305,0,0,1-1.4,0m-.042,7.2V6.783a.179.179,0,0,1,.179-.179h1.121a.179.179,0,0,1,.179.179V12.55a.179.179,0,0,1-.179.179H82.955a.179.179,0,0,1-.179-.179" transform="translate(9.098 0.435)" fill="#fff"/>
      <path id="Trazado_176" data-name="Trazado 176" d="M85.354,6.35h.887a.178.178,0,0,1,.177.151L86.5,7h.078a2.324,2.324,0,0,1,.824-.55,2.7,2.7,0,0,1,1.015-.191,2.007,2.007,0,0,1,1.5.557,2.439,2.439,0,0,1,.552,1.765v3.716a.179.179,0,0,1-.179.179H89.171a.18.18,0,0,1-.18-.179V8.665a1.212,1.212,0,0,0-.259-.874,1.012,1.012,0,0,0-.752-.261,1.839,1.839,0,0,0-.732.154,1.508,1.508,0,0,0-.558.41.184.184,0,0,0-.042.118v4.082a.179.179,0,0,1-.179.179H85.356a.179.179,0,0,1-.179-.179V6.529a.175.175,0,0,1,.177-.179" transform="translate(9.384 0.689)" fill="#fff"/>
      <path id="Trazado_177" data-name="Trazado 177" d="M94.793,6.489a1.64,1.64,0,0,1,.864.766A3.1,3.1,0,0,1,95.942,8.7V12.3a.18.18,0,0,1-.18.179h-.887a.179.179,0,0,1-.177-.151l-.078-.484h-.079a1.73,1.73,0,0,1-.709.553,2.614,2.614,0,0,1-2-.024,1.548,1.548,0,0,1-.672-.6,1.748,1.748,0,0,1-.234-.918,1.593,1.593,0,0,1,.584-1.319,3.42,3.42,0,0,1,1.85-.566L94.5,8.855V8.613a1.51,1.51,0,0,0-.149-.733.834.834,0,0,0-.466-.379,2.6,2.6,0,0,0-.85-.112,5.461,5.461,0,0,0-.816.066,6.03,6.03,0,0,0-.615.127.178.178,0,0,1-.228-.171V6.655a.176.176,0,0,1,.129-.172,5.774,5.774,0,0,1,.8-.158,7.624,7.624,0,0,1,.976-.068,4.057,4.057,0,0,1,1.51.231m-.838,4.926a1.469,1.469,0,0,0,.5-.339.184.184,0,0,0,.05-.129V9.915a.179.179,0,0,0-.2-.179l-.812.071a1.586,1.586,0,0,0-.847.278.767.767,0,0,0-.268.621.784.784,0,0,0,.239.617,1.014,1.014,0,0,0,.7.212,1.6,1.6,0,0,0,.636-.12" transform="translate(10.017 0.689)" fill="#fff"/>
      <path id="Trazado_178" data-name="Trazado 178" d="M10.407,19.955c2.06-2.825,3.476-3.876,8.8-6.479,5.294-2.589,4.685-5.907.362-9.458A4.863,4.863,0,0,1,17.574,0H1.176A1.175,1.175,0,0,0,0,1.175V36.157a1.175,1.175,0,0,0,1.176,1.175H13.466a34.087,34.087,0,0,1-2.5-2.82,12.194,12.194,0,0,1-.564-14.557M36.431,33.771l-9.01-9a1.114,1.114,0,0,1,.478-1.861A11.672,11.672,0,0,0,24.646,0h-6.7c.119,1.66,1.665,2.68,2.911,3.529,1.186.808,2.446,1.5,3.62,2.332a7.357,7.357,0,0,1,3.436,4.747c.617,4.111-3.057,6.008-6.17,7.578-5.145,2.594-5.575,7.121-2.828,10.681,2.448,3.168,1.872,2.109,7.967,8.466H37.3l2.686-.009Z" transform="translate(0 0)" fill="#fff"/>
    </g>
  </g>
</svg>
