<svg id="Grupo_44" data-name="Grupo 44" xmlns="http://www.w3.org/2000/svg" width="56" height="56" viewBox="0 0 56 56">
  <path id="Trazado_137" data-name="Trazado 137" d="M179.082,148.823l-.326,3.485a2.826,2.826,0,0,0,.084.995l4.27-1.144a3.423,3.423,0,0,1-.1-1.206l.4-4.225a3.42,3.42,0,0,0-.444-2.032l-4.243,2.45a2.822,2.822,0,0,1,.366,1.677m-3.2-8.981-1.77-3.857a3.422,3.422,0,0,0-1.4-1.537l-2.45,4.243a2.823,2.823,0,0,1,1.156,1.268l1.46,3.182a2.835,2.835,0,0,0,.57.819l3.126-3.125a3.44,3.44,0,0,1-.691-.993M165.248,134.3a3.415,3.415,0,0,1-1.095-.515l-3.462-2.455a3.419,3.419,0,0,0-1.981-.631v4.9a2.822,2.822,0,0,1,1.635.521l2.856,2.025a2.822,2.822,0,0,0,.9.425Zm16.563,24.4a2.821,2.821,0,0,1-.521,1.635l-2.026,2.856a2.822,2.822,0,0,0-.425.9l4.27,1.144a3.421,3.421,0,0,1,.514-1.1l2.455-3.461a3.421,3.421,0,0,0,.631-1.981Zm-43.472,9.874.326-3.486a2.834,2.834,0,0,0-.084-.995l-4.27,1.144a3.422,3.422,0,0,1,.1,1.206l-.4,4.225a3.42,3.42,0,0,0,.444,2.032l4.244-2.45a2.821,2.821,0,0,1-.367-1.676m-2.208-11.509,2.025-2.856a2.825,2.825,0,0,0,.425-.9l-4.27-1.144a3.413,3.413,0,0,1-.515,1.095l-2.455,3.462a3.419,3.419,0,0,0-.631,1.981h4.9a2.823,2.823,0,0,1,.521-1.635m17.186-18.494-1.144-4.27a3.425,3.425,0,0,1-1.205.1l-4.225-.4a3.422,3.422,0,0,0-2.032.444l2.45,4.243a2.822,2.822,0,0,1,1.676-.366l3.486.326a2.818,2.818,0,0,0,.994-.084M177.447,171.4l-3.182,1.46a2.831,2.831,0,0,0-.819.57l3.126,3.126a3.419,3.419,0,0,1,.993-.691l3.857-1.77a3.42,3.42,0,0,0,1.538-1.4l-4.243-2.45a2.821,2.821,0,0,1-1.268,1.155m-33.473-27.441-3.126-3.125a3.436,3.436,0,0,1-.993.691L136,143.3a3.418,3.418,0,0,0-1.537,1.4l4.244,2.45a2.821,2.821,0,0,1,1.268-1.155l3.182-1.46a2.825,2.825,0,0,0,.819-.57m24.61,35.107-3.486-.326a2.824,2.824,0,0,0-.994.084l1.144,4.27a3.422,3.422,0,0,1,1.205-.1l4.225.4a3.422,3.422,0,0,0,2.032-.444l-2.45-4.243a2.825,2.825,0,0,1-1.676.366M146,177.434l-1.461-3.182a2.822,2.822,0,0,0-.57-.819l-3.126,3.126a3.422,3.422,0,0,1,.691.993l1.77,3.857a3.421,3.421,0,0,0,1.4,1.537l2.45-4.243A2.821,2.821,0,0,1,146,177.434m8.215,1.817a2.831,2.831,0,0,0-.9-.424l-1.144,4.27a3.424,3.424,0,0,1,1.095.515l3.462,2.455a3.421,3.421,0,0,0,1.981.631v-4.9a2.822,2.822,0,0,1-1.635-.521Z" transform="translate(-130.71 -130.697)" fill="#2e0098"/>
  <path id="Trazado_138" data-name="Trazado 138" d="M138.705,147.148l-4.244-2.45a3.421,3.421,0,0,0-.444,2.032l.4,4.225a3.426,3.426,0,0,1-.1,1.206l4.27,1.144a2.826,2.826,0,0,0,.084-.995l-.326-3.485a2.823,2.823,0,0,1,.367-1.677m2.144-6.311,3.126,3.125a2.823,2.823,0,0,0,.57-.819l1.46-3.182a2.825,2.825,0,0,1,1.156-1.268l-2.45-4.243a3.421,3.421,0,0,0-1.4,1.538l-1.77,3.857a3.431,3.431,0,0,1-.691.993m12.468-2.268a2.822,2.822,0,0,0,.9-.424l2.856-2.025a2.822,2.822,0,0,1,1.635-.521v-4.9a3.42,3.42,0,0,0-1.981.631l-3.461,2.455a3.418,3.418,0,0,1-1.1.514ZM130.71,158.7a3.421,3.421,0,0,0,.631,1.982l2.455,3.461a3.429,3.429,0,0,1,.515,1.1l4.27-1.144a2.83,2.83,0,0,0-.424-.9l-2.026-2.856a2.821,2.821,0,0,1-.521-1.635Zm48.005,11.55,4.243,2.45a3.421,3.421,0,0,0,.444-2.032l-.4-4.225a3.418,3.418,0,0,1,.1-1.205l-4.27-1.144a2.828,2.828,0,0,0-.084.994l.326,3.486a2.821,2.821,0,0,1-.366,1.676m3.095-11.55h4.9a3.421,3.421,0,0,0-.631-1.981l-2.455-3.461a3.42,3.42,0,0,1-.515-1.094l-4.27,1.144a2.82,2.82,0,0,0,.424.9l2.026,2.856a2.825,2.825,0,0,1,.52,1.635M165.1,138.652l3.486-.326a2.824,2.824,0,0,1,1.676.366l2.45-4.243a3.423,3.423,0,0,0-2.031-.444l-4.226.4a3.421,3.421,0,0,1-1.205-.1l-1.144,4.27a2.816,2.816,0,0,0,.994.084m-26.393,31.6-4.244,2.45A3.424,3.424,0,0,0,136,174.1l3.857,1.77a3.427,3.427,0,0,1,.993.691l3.126-3.126a2.834,2.834,0,0,0-.819-.57l-3.182-1.46a2.819,2.819,0,0,1-1.268-1.155m35.56-25.716,3.182,1.46a2.824,2.824,0,0,1,1.268,1.155l4.243-2.45a3.42,3.42,0,0,0-1.537-1.4l-3.857-1.77a3.419,3.419,0,0,1-.993-.691l-3.126,3.125a2.822,2.822,0,0,0,.819.57M147.16,178.7l-2.45,4.243a3.421,3.421,0,0,0,2.032.444l4.225-.4a3.427,3.427,0,0,1,1.205.1l1.144-4.27a2.829,2.829,0,0,0-.995-.084l-3.486.326a2.823,2.823,0,0,1-1.676-.366m23.1,0,2.45,4.243a3.417,3.417,0,0,0,1.4-1.538l1.77-3.856a3.416,3.416,0,0,1,.691-.993l-3.126-3.126a2.822,2.822,0,0,0-.57.82l-1.46,3.182a2.825,2.825,0,0,1-1.155,1.269m-9.915,2.574a2.822,2.822,0,0,1-1.635.521v4.9a3.42,3.42,0,0,0,1.981-.631l3.462-2.455a3.434,3.434,0,0,1,1.095-.515l-1.144-4.27a2.822,2.822,0,0,0-.9.424Z" transform="translate(-130.71 -130.698)" fill="#2e0098"/>
  <path id="Trazado_139" data-name="Trazado 139" d="M242.945,223.853l-1.6-2.25a2.225,2.225,0,0,1-.4-1.5l.257-2.746a2.226,2.226,0,0,0-1.288-2.231l-2.507-1.151a2.229,2.229,0,0,1-1.095-1.095l-1.15-2.507a2.226,2.226,0,0,0-2.231-1.288l-2.747.257a2.223,2.223,0,0,1-1.495-.4l-2.25-1.6a2.226,2.226,0,0,0-2.576,0l-2.25,1.6a2.224,2.224,0,0,1-1.5.4l-2.747-.257a2.226,2.226,0,0,0-2.231,1.288l-1.151,2.507a2.225,2.225,0,0,1-1.094,1.095l-2.507,1.151a2.226,2.226,0,0,0-1.288,2.231l.257,2.746a2.227,2.227,0,0,1-.4,1.5l-1.6,2.25a2.226,2.226,0,0,0,0,2.576l1.6,2.25a2.227,2.227,0,0,1,.4,1.5l-.257,2.746a2.226,2.226,0,0,0,1.288,2.231L212.9,236.3a2.226,2.226,0,0,1,1.094,1.095l1.151,2.507a2.226,2.226,0,0,0,2.231,1.288l2.746-.257a2.227,2.227,0,0,1,1.5.4l2.25,1.6a2.225,2.225,0,0,0,2.576,0l2.25-1.6a2.227,2.227,0,0,1,1.5-.4l2.747.257a2.226,2.226,0,0,0,2.231-1.288l1.15-2.507a2.228,2.228,0,0,1,1.095-1.095l2.507-1.151a2.226,2.226,0,0,0,1.288-2.23l-.257-2.747a2.226,2.226,0,0,1,.4-1.5l1.6-2.25a2.228,2.228,0,0,0,0-2.576m-4.447,2.254-1.2,1.687a1.669,1.669,0,0,0-.3,1.121l.193,2.06a1.67,1.67,0,0,1-.966,1.673l-1.88.863a1.668,1.668,0,0,0-.821.821l-.863,1.88a1.669,1.669,0,0,1-1.673.966l-2.06-.193a1.669,1.669,0,0,0-1.122.3l-1.687,1.2a1.67,1.67,0,0,1-1.932,0l-1.688-1.2a1.668,1.668,0,0,0-1.121-.3l-2.06.193a1.67,1.67,0,0,1-1.673-.966l-.863-1.88a1.668,1.668,0,0,0-.821-.821l-1.88-.863a1.67,1.67,0,0,1-.966-1.673l.193-2.06a1.668,1.668,0,0,0-.3-1.121l-1.2-1.687a1.67,1.67,0,0,1,0-1.932l1.2-1.687a1.669,1.669,0,0,0,.3-1.121l-.193-2.06a1.67,1.67,0,0,1,.966-1.673l1.88-.863a1.67,1.67,0,0,0,.821-.821l.863-1.88a1.669,1.669,0,0,1,1.673-.966l2.06.193a1.67,1.67,0,0,0,1.121-.3l1.688-1.2a1.67,1.67,0,0,1,1.932,0l1.687,1.2a1.671,1.671,0,0,0,1.121.3l2.06-.193a1.668,1.668,0,0,1,1.673.966l.863,1.88a1.67,1.67,0,0,0,.821.821l1.88.863a1.67,1.67,0,0,1,.966,1.673l-.193,2.06a1.67,1.67,0,0,0,.3,1.121l1.2,1.687a1.67,1.67,0,0,1,0,1.932" transform="translate(-197.155 -197.141)" fill="#2e0098"/>
</svg>
