<svg xmlns="http://www.w3.org/2000/svg" width="186" height="63.049" viewBox="0 0 186 63.049">
  <g id="Artwork_13" data-name="Artwork 13" transform="translate(1698.073 -982.452)">
    <g id="Grupo_49" data-name="Grupo 49" transform="translate(-1698.073 982.452)">
      <g id="Grupo_46" data-name="Grupo 46" transform="translate(0 0)">
        <g id="Grupo_44" data-name="Grupo 44">
          <path id="Trazado_137" data-name="Trazado 137" d="M185.17,151.1l-.368,3.924a3.181,3.181,0,0,0,.095,1.12l4.807-1.288a3.854,3.854,0,0,1-.115-1.358l.446-4.756a3.851,3.851,0,0,0-.5-2.288l-4.777,2.758a3.178,3.178,0,0,1,.412,1.888m-3.6-10.111-1.993-4.342A3.853,3.853,0,0,0,178,134.92l-2.758,4.778a3.178,3.178,0,0,1,1.3,1.428l1.644,3.582a3.191,3.191,0,0,0,.642.922l3.519-3.519a3.872,3.872,0,0,1-.778-1.118m-11.971-6.243a3.845,3.845,0,0,1-1.233-.579l-3.9-2.764a3.849,3.849,0,0,0-2.231-.711v5.516a3.177,3.177,0,0,1,1.84.587l3.215,2.28a3.177,3.177,0,0,0,1.017.478Zm18.647,27.47a3.176,3.176,0,0,1-.586,1.84l-2.281,3.215a3.177,3.177,0,0,0-.478,1.017l4.807,1.288a3.852,3.852,0,0,1,.579-1.233l2.764-3.9a3.852,3.852,0,0,0,.711-2.231ZM139.3,173.338l.368-3.924a3.191,3.191,0,0,0-.095-1.12l-4.807,1.288a3.852,3.852,0,0,1,.115,1.357l-.446,4.757a3.85,3.85,0,0,0,.5,2.288l4.778-2.758a3.176,3.176,0,0,1-.413-1.887m-2.485-12.957,2.28-3.215a3.18,3.18,0,0,0,.478-1.017l-4.807-1.288a3.843,3.843,0,0,1-.579,1.232l-2.764,3.9a3.849,3.849,0,0,0-.711,2.231h5.517a3.178,3.178,0,0,1,.586-1.841m19.349-20.822-1.288-4.807a3.856,3.856,0,0,1-1.357.114l-4.757-.445a3.853,3.853,0,0,0-2.288.5l2.758,4.778a3.177,3.177,0,0,1,1.887-.412l3.925.367a3.172,3.172,0,0,0,1.119-.095m27.168,36.967-3.583,1.644a3.187,3.187,0,0,0-.922.642l3.519,3.519a3.85,3.85,0,0,1,1.118-.778l4.342-1.993a3.851,3.851,0,0,0,1.731-1.577l-4.777-2.758a3.176,3.176,0,0,1-1.428,1.3m-37.686-30.895-3.519-3.519a3.868,3.868,0,0,1-1.118.778l-4.342,1.993a3.848,3.848,0,0,0-1.731,1.577l4.778,2.758a3.176,3.176,0,0,1,1.428-1.3l3.582-1.644a3.181,3.181,0,0,0,.923-.642m27.707,39.526-3.925-.368a3.18,3.18,0,0,0-1.119.095l1.288,4.807a3.852,3.852,0,0,1,1.357-.114l4.757.445a3.853,3.853,0,0,0,2.288-.5l-2.758-4.777a3.18,3.18,0,0,1-1.887.412m-25.421-1.841-1.645-3.582a3.177,3.177,0,0,0-.641-.923l-3.519,3.519a3.853,3.853,0,0,1,.778,1.118l1.993,4.342a3.851,3.851,0,0,0,1.577,1.731l2.758-4.777a3.176,3.176,0,0,1-1.3-1.428m9.249,2.046a3.188,3.188,0,0,0-1.017-.478l-1.288,4.807a3.855,3.855,0,0,1,1.233.58l3.9,2.764a3.851,3.851,0,0,0,2.231.711v-5.517a3.177,3.177,0,0,1-1.841-.586Z" transform="translate(-130.71 -130.697)" fill="#fafeff"/>
          <path id="Trazado_138" data-name="Trazado 138" d="M139.711,149.218l-4.778-2.758a3.852,3.852,0,0,0-.5,2.287l.446,4.757a3.858,3.858,0,0,1-.114,1.358l4.807,1.288a3.181,3.181,0,0,0,.095-1.12l-.368-3.924a3.178,3.178,0,0,1,.413-1.888m2.414-7.105,3.519,3.519a3.178,3.178,0,0,0,.642-.923l1.644-3.582a3.181,3.181,0,0,1,1.3-1.428l-2.758-4.778a3.852,3.852,0,0,0-1.576,1.731l-1.993,4.342a3.862,3.862,0,0,1-.778,1.118m14.037-2.554a3.179,3.179,0,0,0,1.017-.478l3.215-2.28a3.177,3.177,0,0,1,1.841-.587V130.7a3.85,3.85,0,0,0-2.231.711l-3.9,2.764a3.848,3.848,0,0,1-1.233.579ZM130.71,162.222a3.851,3.851,0,0,0,.711,2.231l2.764,3.9a3.861,3.861,0,0,1,.58,1.233l4.807-1.288a3.185,3.185,0,0,0-.478-1.017l-2.281-3.215a3.176,3.176,0,0,1-.586-1.84Zm54.048,13,4.777,2.758a3.851,3.851,0,0,0,.5-2.288l-.445-4.757a3.848,3.848,0,0,1,.114-1.357l-4.807-1.288a3.184,3.184,0,0,0-.095,1.12l.367,3.924a3.177,3.177,0,0,1-.412,1.887m3.484-13h5.517a3.852,3.852,0,0,0-.711-2.231l-2.764-3.9a3.851,3.851,0,0,1-.58-1.232l-4.807,1.288a3.176,3.176,0,0,0,.478,1.017l2.281,3.215a3.181,3.181,0,0,1,.586,1.841m-18.816-22.568,3.925-.367a3.179,3.179,0,0,1,1.887.412L178,134.921a3.854,3.854,0,0,0-2.287-.5l-4.757.445a3.851,3.851,0,0,1-1.357-.115l-1.288,4.807a3.17,3.17,0,0,0,1.119.095m-29.715,35.572-4.778,2.758a3.854,3.854,0,0,0,1.731,1.576l4.342,1.993a3.859,3.859,0,0,1,1.118.778l3.519-3.519a3.19,3.19,0,0,0-.923-.642l-3.582-1.644a3.174,3.174,0,0,1-1.428-1.3m40.036-28.952,3.583,1.644a3.18,3.18,0,0,1,1.428,1.3l4.777-2.758a3.85,3.85,0,0,0-1.731-1.577l-4.343-1.993a3.85,3.85,0,0,1-1.118-.778l-3.519,3.519a3.177,3.177,0,0,0,.922.642m-30.516,38.472-2.758,4.777a3.851,3.851,0,0,0,2.288.5l4.757-.446a3.859,3.859,0,0,1,1.357.115l1.288-4.807a3.185,3.185,0,0,0-1.12-.095l-3.925.368a3.178,3.178,0,0,1-1.887-.412m26.008,0L178,189.523a3.848,3.848,0,0,0,1.576-1.731l1.993-4.342a3.847,3.847,0,0,1,.778-1.118l-3.519-3.519a3.177,3.177,0,0,0-.642.923l-1.644,3.582a3.18,3.18,0,0,1-1.3,1.428m-11.164,2.9a3.177,3.177,0,0,1-1.84.586v5.517a3.851,3.851,0,0,0,2.231-.711l3.9-2.764a3.866,3.866,0,0,1,1.233-.58l-1.288-4.807a3.178,3.178,0,0,0-1.017.478Z" transform="translate(-130.71 -130.698)" fill="#fafeff"/>
          <path id="Trazado_139" data-name="Trazado 139" d="M247.474,225.981l-1.8-2.533a2.505,2.505,0,0,1-.451-1.683l.29-3.092a2.506,2.506,0,0,0-1.45-2.511l-2.822-1.3a2.51,2.51,0,0,1-1.233-1.233l-1.295-2.822a2.506,2.506,0,0,0-2.512-1.45l-3.093.289a2.5,2.5,0,0,1-1.683-.451l-2.533-1.8a2.506,2.506,0,0,0-2.9,0l-2.533,1.8a2.5,2.5,0,0,1-1.683.451l-3.092-.289a2.507,2.507,0,0,0-2.512,1.45l-1.3,2.822a2.505,2.505,0,0,1-1.232,1.233l-2.823,1.3a2.506,2.506,0,0,0-1.45,2.511l.289,3.092a2.508,2.508,0,0,1-.451,1.683l-1.8,2.533a2.507,2.507,0,0,0,0,2.9l1.8,2.533a2.508,2.508,0,0,1,.451,1.683l-.289,3.092a2.506,2.506,0,0,0,1.45,2.512l2.823,1.3a2.506,2.506,0,0,1,1.232,1.232l1.3,2.822a2.506,2.506,0,0,0,2.512,1.45l3.092-.29a2.507,2.507,0,0,1,1.683.451l2.533,1.8a2.505,2.505,0,0,0,2.9,0l2.533-1.8a2.508,2.508,0,0,1,1.683-.451l3.092.29a2.506,2.506,0,0,0,2.512-1.45l1.295-2.822A2.508,2.508,0,0,1,241.243,240l2.822-1.3a2.506,2.506,0,0,0,1.45-2.511l-.29-3.092a2.506,2.506,0,0,1,.451-1.683l1.8-2.533a2.508,2.508,0,0,0,0-2.9m-5.007,2.538-1.347,1.9a1.879,1.879,0,0,0-.338,1.262L241,234a1.88,1.88,0,0,1-1.088,1.884l-2.117.971a1.878,1.878,0,0,0-.924.924L235.9,239.9a1.879,1.879,0,0,1-1.883,1.087l-2.319-.217a1.879,1.879,0,0,0-1.263.338l-1.9,1.347a1.88,1.88,0,0,1-2.175,0l-1.9-1.347a1.877,1.877,0,0,0-1.262-.338l-2.319.217a1.88,1.88,0,0,1-1.884-1.088l-.972-2.117a1.877,1.877,0,0,0-.924-.924l-2.117-.971A1.88,1.88,0,0,1,213.892,234l.217-2.319a1.878,1.878,0,0,0-.338-1.262l-1.348-1.9a1.881,1.881,0,0,1,0-2.175l1.348-1.9a1.879,1.879,0,0,0,.338-1.263l-.217-2.319a1.881,1.881,0,0,1,1.088-1.884l2.117-.971a1.88,1.88,0,0,0,.924-.925l.972-2.117a1.879,1.879,0,0,1,1.884-1.087l2.319.217a1.88,1.88,0,0,0,1.262-.338l1.9-1.348a1.88,1.88,0,0,1,2.175,0l1.9,1.348a1.881,1.881,0,0,0,1.263.338l2.319-.217a1.878,1.878,0,0,1,1.883,1.087l.972,2.117a1.88,1.88,0,0,0,.924.925l2.117.971A1.881,1.881,0,0,1,241,220.863l-.217,2.319a1.88,1.88,0,0,0,.338,1.263l1.347,1.9a1.88,1.88,0,0,1,0,2.175" transform="translate(-195.921 -195.907)" fill="#fafeff"/>
        </g>
        <g id="Grupo_45" data-name="Grupo 45" transform="translate(72.508 20.517)">
          <path id="Trazado_140" data-name="Trazado 140" d="M631.77,302.154l6.154-18.9h3.929l6.154,18.9h-3.525l-1.474-5.114h-6.356l-1.474,5.114ZM638.1,292.1l-.664,2.311h4.825l-.665-2.311q-.463-1.5-.881-3.092t-.824-3.149h-.115q-.405,1.589-.809,3.164T638.1,292.1" transform="translate(-631.77 -281.697)" fill="#fafeff"/>
          <path id="Trazado_141" data-name="Trazado 141" d="M753.166,327.94V313.754h2.745l.231,2.514h.116a5.951,5.951,0,0,1,1.82-2.124,4,4,0,0,1,3.814-.448l-.578,2.889a6.3,6.3,0,0,0-.693-.173,4.505,4.505,0,0,0-.78-.058,3.094,3.094,0,0,0-1.762.65,5.019,5.019,0,0,0-1.589,2.268v8.668Z" transform="translate(-735.599 -307.484)" fill="#fafeff"/>
          <path id="Trazado_142" data-name="Trazado 142" d="M819.955,334.211a11.293,11.293,0,0,1-2.355-.231,6.179,6.179,0,0,1-1.864-.693,3.638,3.638,0,0,1-1.228-1.156,3.024,3.024,0,0,1,.072-3.28,4.862,4.862,0,0,1,1.5-1.372v-.116a2.877,2.877,0,0,1-.91-.924,2.68,2.68,0,0,1-.361-1.445,2.582,2.582,0,0,1,.477-1.517,4.588,4.588,0,0,1,1.084-1.112v-.116a5.064,5.064,0,0,1-1.286-1.517,4.373,4.373,0,0,1-.564-2.24,4.9,4.9,0,0,1,.463-2.166,4.838,4.838,0,0,1,1.228-1.6,5.24,5.24,0,0,1,1.777-.982,6.81,6.81,0,0,1,2.138-.332,5.963,5.963,0,0,1,1.112.1,7.5,7.5,0,0,1,.968.246h5.085v2.456h-2.6a3.372,3.372,0,0,1,.577,1.026,3.915,3.915,0,0,1,.232,1.372,4.857,4.857,0,0,1-.419,2.08,4.334,4.334,0,0,1-1.141,1.5,5.03,5.03,0,0,1-1.7.925,6.81,6.81,0,0,1-2.109.317,5.485,5.485,0,0,1-.953-.086,4.729,4.729,0,0,1-.982-.289,3.021,3.021,0,0,0-.506.578,1.413,1.413,0,0,0-.188.78,1.1,1.1,0,0,0,.506.953,3.378,3.378,0,0,0,1.806.347h2.514a7.406,7.406,0,0,1,3.886.823,2.913,2.913,0,0,1,1.315,2.673,3.866,3.866,0,0,1-.535,1.965,4.856,4.856,0,0,1-1.517,1.589,8.107,8.107,0,0,1-2.384,1.055,11.684,11.684,0,0,1-3.135.39m.52-2.167a5.089,5.089,0,0,0,2.788-.68,1.925,1.925,0,0,0,1.054-1.6,1.112,1.112,0,0,0-.65-1.127,4.741,4.741,0,0,0-1.863-.289h-1.936a7.864,7.864,0,0,1-1.936-.2,2.369,2.369,0,0,0-1.1,1.878,1.641,1.641,0,0,0,.968,1.488,5.565,5.565,0,0,0,2.672.535m-.347-10.691a2.341,2.341,0,0,0,1.734-.737,2.911,2.911,0,0,0,.722-2.124,2.86,2.86,0,0,0-.708-2.065,2.328,2.328,0,0,0-1.748-.737,2.4,2.4,0,0,0-1.763.722,2.816,2.816,0,0,0-.722,2.08,2.908,2.908,0,0,0,.722,2.124,2.374,2.374,0,0,0,1.763.737" transform="translate(-787.682 -307.485)" fill="#fafeff"/>
          <path id="Trazado_143" data-name="Trazado 143" d="M916.891,328.288a7.367,7.367,0,0,1-2.745-.506,6.5,6.5,0,0,1-2.225-1.459A6.657,6.657,0,0,1,910.433,324a8.591,8.591,0,0,1-.534-3.135,8.414,8.414,0,0,1,.549-3.121,7.157,7.157,0,0,1,1.459-2.34A6.461,6.461,0,0,1,914,313.928a5.974,5.974,0,0,1,2.427-.52,6.168,6.168,0,0,1,2.542.491,4.969,4.969,0,0,1,1.835,1.387,6.1,6.1,0,0,1,1.112,2.138,9.356,9.356,0,0,1,.375,2.716c0,.328-.014.636-.043.925a6.126,6.126,0,0,1-.1.693h-9.015a4.575,4.575,0,0,0,1.344,2.932,4.032,4.032,0,0,0,2.846,1.026,5.224,5.224,0,0,0,1.719-.274,7.61,7.61,0,0,0,1.575-.766l1.127,2.08a10.207,10.207,0,0,1-2.254,1.1,7.837,7.837,0,0,1-2.6.434m-3.785-8.783h6.3a4.211,4.211,0,0,0-.707-2.586,2.558,2.558,0,0,0-2.182-.939,3.147,3.147,0,0,0-2.225.9,4.247,4.247,0,0,0-1.185,2.629" transform="translate(-869.651 -307.485)" fill="#fafeff"/>
          <path id="Trazado_144" data-name="Trazado 144" d="M1012.524,327.94V313.754h2.745l.231,1.907h.116a11.259,11.259,0,0,1,2.065-1.589,4.944,4.944,0,0,1,2.586-.665,3.8,3.8,0,0,1,3.323,1.459,7.131,7.131,0,0,1,1.04,4.175v8.9h-3.323v-8.466a4.416,4.416,0,0,0-.52-2.485,1.957,1.957,0,0,0-1.7-.722,2.987,2.987,0,0,0-1.633.448,10.392,10.392,0,0,0-1.6,1.314v9.911Z" transform="translate(-957.425 -307.484)" fill="#fafeff"/>
          <path id="Trazado_145" data-name="Trazado 145" d="M1115.29,307.453a5.185,5.185,0,0,1-2.094-.376,3.544,3.544,0,0,1-1.387-1.054,4.349,4.349,0,0,1-.78-1.619,8.256,8.256,0,0,1-.246-2.095v-6.761h-2.023v-2.485l2.2-.144.4-3.872h2.774v3.872h3.612v2.629h-3.612v6.761q0,2.485,1.994,2.485a3.518,3.518,0,0,0,.765-.087,3.607,3.607,0,0,0,.708-.231l.578,2.456a10.974,10.974,0,0,1-1.314.361,7.489,7.489,0,0,1-1.575.159" transform="translate(-1039.735 -286.65)" fill="#fafeff"/>
          <path id="Trazado_146" data-name="Trazado 146" d="M1185.884,276.261a2.119,2.119,0,0,1-1.474-.52,1.74,1.74,0,0,1-.578-1.358,1.785,1.785,0,0,1,.578-1.372,2.3,2.3,0,0,1,2.947,0,1.786,1.786,0,0,1,.578,1.372,1.741,1.741,0,0,1-.578,1.358,2.121,2.121,0,0,1-1.473.52m-1.676,2.485h3.323v14.187h-3.323Z" transform="translate(-1103.943 -272.476)" fill="#fafeff"/>
          <path id="Trazado_147" data-name="Trazado 147" d="M1233.748,327.94V313.754h2.745l.231,1.907h.116a11.244,11.244,0,0,1,2.066-1.589,4.943,4.943,0,0,1,2.586-.665,3.8,3.8,0,0,1,3.323,1.459,7.128,7.128,0,0,1,1.04,4.175v8.9h-3.323v-8.466a4.415,4.415,0,0,0-.52-2.485,1.957,1.957,0,0,0-1.7-.722,2.986,2.986,0,0,0-1.632.448,10.392,10.392,0,0,0-1.6,1.314v9.911Z" transform="translate(-1146.636 -307.484)" fill="#fafeff"/>
          <path id="Trazado_148" data-name="Trazado 148" d="M1339.564,328.288a4.129,4.129,0,0,1-3.033-1.142,4.052,4.052,0,0,1-1.156-3.019,4.153,4.153,0,0,1,.477-2.008,4.109,4.109,0,0,1,1.5-1.517,9.984,9.984,0,0,1,2.6-1.069,23.771,23.771,0,0,1,3.771-.664,5.4,5.4,0,0,0-.159-1.055,2.426,2.426,0,0,0-.433-.9,2.014,2.014,0,0,0-.795-.607,3.008,3.008,0,0,0-1.214-.216,5.374,5.374,0,0,0-2.037.4,13.731,13.731,0,0,0-1.95.982l-1.214-2.224a14.224,14.224,0,0,1,2.658-1.3,9.035,9.035,0,0,1,3.178-.549,4.884,4.884,0,0,1,3.973,1.574,6.935,6.935,0,0,1,1.314,4.551v8.408H1344.3l-.231-1.56h-.116a10.4,10.4,0,0,1-2.037,1.358,5.146,5.146,0,0,1-2.355.549m1.07-2.6a3.117,3.117,0,0,0,1.575-.4,8.443,8.443,0,0,0,1.517-1.156v-3.178a15.278,15.278,0,0,0-2.427.462,7.047,7.047,0,0,0-1.589.65,2.322,2.322,0,0,0-.867.823,1.975,1.975,0,0,0-.26.983,1.619,1.619,0,0,0,.578,1.387,2.39,2.39,0,0,0,1.474.433" transform="translate(-1233.556 -307.485)" fill="#fafeff"/>
        </g>
      </g>
    </g>
  </g>
</svg>
