<svg id="Grupo_13" data-name="Grupo 13" xmlns="http://www.w3.org/2000/svg" xmlns:xlink="http://www.w3.org/1999/xlink" width="150.457" height="21.639" viewBox="0 0 150.457 21.639">
  <defs>
    <clipPath id="clip-path">
      <rect id="Rectángulo_22" data-name="Rectángulo 22" width="150.457" height="21.639" fill="#fff"/>
    </clipPath>
  </defs>
  <g id="Grupo_12" data-name="Grupo 12" clip-path="url(#clip-path)">
    <g id="Grupo_11" data-name="Grupo 11">
      <g id="Grupo_10" data-name="Grupo 10" clip-path="url(#clip-path)">
        <path id="Trazado_68" data-name="Trazado 68" d="M67.505,2.04a1.339,1.339,0,0,1,.354.949V16.828a1.406,1.406,0,0,1-.413,1.033,1.39,1.39,0,0,1-1.027.415,2.029,2.029,0,0,1-.649-.107.916.916,0,0,1-.46-.3L56.647,6.811V16.947a1.315,1.315,0,0,1-.366.949,1.268,1.268,0,0,1-.956.38,1.2,1.2,0,0,1-.921-.38,1.338,1.338,0,0,1-.354-.949V3.108a1.406,1.406,0,0,1,.413-1.033A1.39,1.39,0,0,1,55.49,1.66a1.8,1.8,0,0,1,.7.142,1.125,1.125,0,0,1,.508.38L65.286,13.2V2.989a1.313,1.313,0,0,1,.366-.949,1.239,1.239,0,0,1,.932-.38,1.2,1.2,0,0,1,.921.38" transform="translate(-46.364 -1.423)" fill="#fff"/>
        <path id="Trazado_69" data-name="Trazado 69" d="M179.023,2.384A5.353,5.353,0,0,1,180.77,4.33,5.529,5.529,0,0,1,181.43,7a5.548,5.548,0,0,1-.661,2.659,5.322,5.322,0,0,1-1.747,1.958,4.06,4.06,0,0,1-2.29.724h-4.107v4.486a1.468,1.468,0,0,1-.378,1.044,1.294,1.294,0,0,1-.991.4,1.248,1.248,0,0,1-.968-.415,1.476,1.476,0,0,1-.378-1.033V3.108a1.406,1.406,0,0,1,.413-1.033,1.39,1.39,0,0,1,1.027-.415h5.382a4.063,4.063,0,0,1,2.29.724m-1.4,6.872a2.8,2.8,0,0,0,.708-.985,3.107,3.107,0,0,0,0-2.54,2.684,2.684,0,0,0-.708-.973,1.374,1.374,0,0,0-.885-.368h-4.107V9.636h4.107a1.35,1.35,0,0,0,.885-.38" transform="translate(-145.749 -1.423)" fill="#fff"/>
        <path id="Trazado_70" data-name="Trazado 70" d="M272.546,12.072a4.519,4.519,0,0,0,.866-.454A5.326,5.326,0,0,0,275.16,9.66,5.548,5.548,0,0,0,275.821,7a5.529,5.529,0,0,0-.661-2.67,5.355,5.355,0,0,0-1.747-1.946,4.063,4.063,0,0,0-2.29-.724h-5.382a1.39,1.39,0,0,0-1.027.415,1.405,1.405,0,0,0-.413,1.033v13.72a1.476,1.476,0,0,0,.378,1.033,1.248,1.248,0,0,0,.968.415,1.294,1.294,0,0,0,.991-.4,1.468,1.468,0,0,0,.378-1.044V12.342h2.41l4.011,5.39a1.254,1.254,0,0,0,.853.521,1.277,1.277,0,0,0,.981-.271,1.348,1.348,0,0,0,.526-.864,1.218,1.218,0,0,0-.231-.989ZM267.016,4.39h4.107a1.373,1.373,0,0,1,.885.368,2.686,2.686,0,0,1,.708.973,3.106,3.106,0,0,1,0,2.54,2.8,2.8,0,0,1-.708.985,1.35,1.35,0,0,1-.885.38h-4.107Z" transform="translate(-226.717 -1.423)" fill="#fff"/>
        <path id="Trazado_71" data-name="Trazado 71" d="M684.9,12.072a4.522,4.522,0,0,0,.866-.454,5.324,5.324,0,0,0,1.747-1.958A5.548,5.548,0,0,0,688.173,7a5.529,5.529,0,0,0-.661-2.67,5.353,5.353,0,0,0-1.747-1.946,4.063,4.063,0,0,0-2.29-.724h-5.382a1.39,1.39,0,0,0-1.027.415,1.405,1.405,0,0,0-.413,1.033v13.72a1.476,1.476,0,0,0,.378,1.033,1.248,1.248,0,0,0,.968.415,1.294,1.294,0,0,0,.992-.4,1.468,1.468,0,0,0,.378-1.044V12.342h2.41l4.011,5.39a1.254,1.254,0,0,0,.852.521,1.277,1.277,0,0,0,.981-.271,1.347,1.347,0,0,0,.526-.864,1.218,1.218,0,0,0-.231-.989ZM679.369,4.39h4.107a1.373,1.373,0,0,1,.885.368,2.685,2.685,0,0,1,.708.973,3.107,3.107,0,0,1,0,2.54,2.8,2.8,0,0,1-.708.985,1.35,1.35,0,0,1-.885.38h-4.107Z" transform="translate(-580.432 -1.423)" fill="#fff"/>
        <path id="Trazado_72" data-name="Trazado 72" d="M370.982,12.854a7.985,7.985,0,0,1-2.868,3.1,8.016,8.016,0,0,1-8.238,0,7.894,7.894,0,0,1-2.856-3.1,9.136,9.136,0,0,1-1.027-4.308,9.136,9.136,0,0,1,1.027-4.308,7.894,7.894,0,0,1,2.856-3.1,8.016,8.016,0,0,1,8.238,0,7.985,7.985,0,0,1,2.868,3.1,9.053,9.053,0,0,1,1.039,4.308,9.053,9.053,0,0,1-1.039,4.308m-2.667-7.192a5.167,5.167,0,0,0-1.77-2.053,4.709,4.709,0,0,0-5.111-.012,5.007,5.007,0,0,0-1.747,2.053,6.616,6.616,0,0,0-.626,2.9,6.614,6.614,0,0,0,.626,2.9,5,5,0,0,0,1.747,2.053,4.709,4.709,0,0,0,5.111-.012,5.161,5.161,0,0,0,1.77-2.053,6.436,6.436,0,0,0,.637-2.884,6.439,6.439,0,0,0-.637-2.884" transform="translate(-305.369 0)" fill="#fff"/>
        <path id="Trazado_73" data-name="Trazado 73" d="M479.554,2.04a1.311,1.311,0,0,1,.4,1,1.272,1.272,0,0,1-.4.985,1.476,1.476,0,0,1-1.039.368H474.81V16.828a1.35,1.35,0,0,1-.448,1.033,1.571,1.571,0,0,1-1.109.415,1.488,1.488,0,0,1-1.086-.415,1.385,1.385,0,0,1-.425-1.033V4.39h-3.706A1.449,1.449,0,0,1,467,4.01a1.308,1.308,0,0,1-.4-1,1.263,1.263,0,0,1,.413-.973,1.46,1.46,0,0,1,1.027-.38h10.481a1.451,1.451,0,0,1,1.039.38" transform="translate(-400.244 -1.423)" fill="#fff"/>
        <path id="Trazado_74" data-name="Trazado 74" d="M582.546,1.9a1.469,1.469,0,0,1,.378,1.044v8.593a7.186,7.186,0,0,1-.826,3.489,5.979,5.979,0,0,1-2.313,2.374,7.211,7.211,0,0,1-6.81,0,5.953,5.953,0,0,1-2.325-2.374,7.183,7.183,0,0,1-.826-3.489V2.942a1.386,1.386,0,0,1,.425-1.033,1.489,1.489,0,0,1,1.086-.415,1.375,1.375,0,0,1,.992.415,1.386,1.386,0,0,1,.425,1.033v8.593a4.1,4.1,0,0,0,.5,2.03,3.467,3.467,0,0,0,1.334,1.365,3.6,3.6,0,0,0,1.806.475,3.958,3.958,0,0,0,1.9-.475,3.619,3.619,0,0,0,1.416-1.365,3.885,3.885,0,0,0,.531-2.03V2.942a1.526,1.526,0,0,1,.354-1.044,1.221,1.221,0,0,1,.968-.4,1.3,1.3,0,0,1,.991.4" transform="translate(-488.793 -1.28)" fill="#fff"/>
        <path id="Trazado_76" data-name="Trazado 76" d="M911.768,43.74a1.376,1.376,0,0,1-1.029-.422,1.45,1.45,0,0,1-.407-1.045V32.824a1.451,1.451,0,0,1,.407-1.045,1.466,1.466,0,0,1,2.059,0,1.452,1.452,0,0,1,.407,1.045v.042a3.546,3.546,0,0,1,1.4-1.239,4.685,4.685,0,0,1,2.125-.5,1.811,1.811,0,0,1,1.194.405,1.236,1.236,0,0,1,.492.97,1.5,1.5,0,0,1-.386,1.115,1.271,1.271,0,0,1-.914.375,2.332,2.332,0,0,1-.8-.165c-.043-.014-.144-.044-.3-.09a1.783,1.783,0,0,0-.492-.066,1.956,1.956,0,0,0-1.1.354,2.61,2.61,0,0,0-.874,1.081,4.05,4.05,0,0,0-.346,1.742v5.422a1.451,1.451,0,0,1-.407,1.045,1.377,1.377,0,0,1-1.029.422" transform="translate(-780.881 -26.677)" fill="#fff"/>
        <path id="Trazado_77" data-name="Trazado 77" d="M977.893,48.315a10.767,10.767,0,0,1-1.89-.23,8.37,8.37,0,0,1-1.711-.463c-.767-.33-1.157-.8-1.157-1.392a1.252,1.252,0,0,1,.072-.389,1.486,1.486,0,0,1,.49-.8,1.2,1.2,0,0,1,.761-.279,1.43,1.43,0,0,1,.455.072c.035.008.2.064,1.129.424a5.22,5.22,0,0,0,1.852.4A3.887,3.887,0,0,0,980.363,45a2.264,2.264,0,0,0,.8-1.855v-.887a4.882,4.882,0,0,1-1.407,1.132,4.44,4.44,0,0,1-2.208.581,5.483,5.483,0,0,1-2.938-.823,5.769,5.769,0,0,1-2.085-2.281,7.08,7.08,0,0,1-.759-3.3,7.238,7.238,0,0,1,.747-3.316,5.732,5.732,0,0,1,2.05-2.293,5.332,5.332,0,0,1,2.893-.823,5.025,5.025,0,0,1,2.192.488,5.321,5.321,0,0,1,1.514,1.051v-.071a1.452,1.452,0,0,1,.407-1.045,1.377,1.377,0,0,1,1.029-.422,1.4,1.4,0,0,1,1.029.41,1.442,1.442,0,0,1,.408,1.057V42.776a5,5,0,0,1-1.745,4.186,6.978,6.978,0,0,1-4.4,1.353m0-14.528a3.078,3.078,0,0,0-2.427,1.074,3.981,3.981,0,0,0-.938,2.7,3.936,3.936,0,0,0,.938,2.687,3.093,3.093,0,0,0,2.427,1.063,3.128,3.128,0,0,0,2.438-1.063,3.909,3.909,0,0,0,.949-2.686,3.952,3.952,0,0,0-.949-2.7,3.113,3.113,0,0,0-2.438-1.074" transform="translate(-833.582 -26.676)" fill="#fff"/>
        <path id="Trazado_78" data-name="Trazado 78" d="M799.241,18.486a1.368,1.368,0,0,1-.529-.106,1.4,1.4,0,0,1-.75-1.822l5.782-14.037a1.383,1.383,0,0,1,2.562,0l5.766,14a1.4,1.4,0,0,1-.75,1.822,1.383,1.383,0,0,1-1.812-.755L805.024,6.7l-4.5,10.928a1.383,1.383,0,0,1-1.281.861Z" transform="translate(-684.398 -1.423)" fill="#fff"/>
        <path id="Trazado_79" data-name="Trazado 79" d="M4.027,15.3H4V3.988h.03a1.254,1.254,0,0,0,.927-.375,1.3,1.3,0,0,0,.373-.953,1.354,1.354,0,0,0-.373-.943,1.206,1.206,0,0,0-.927-.407H1.3A1.237,1.237,0,0,0,.373,1.7,1.281,1.281,0,0,0,0,2.617,1.361,1.361,0,0,0,.373,3.6a1.238,1.238,0,0,0,.927.386h.039V15.3H1.3a1.237,1.237,0,0,0-.927.386A1.28,1.28,0,0,0,0,16.605a1.361,1.361,0,0,0,.373.986,1.238,1.238,0,0,0,.927.386H4.027a1.254,1.254,0,0,0,.927-.375,1.3,1.3,0,0,0,.373-.953,1.354,1.354,0,0,0-.373-.943,1.206,1.206,0,0,0-.927-.407" transform="translate(0 -1.123)" fill="#fff"/>
      </g>
    </g>
  </g>
</svg>
