<svg xmlns="http://www.w3.org/2000/svg" xmlns:xlink="http://www.w3.org/1999/xlink" width="152.509" height="32.672" viewBox="0 0 152.509 32.672">
  <defs>
    <clipPath id="clip-path">
      <rect id="Rectángulo_121" data-name="Rectángulo 121" width="152.509" height="32.672" fill="#fff"/>
    </clipPath>
  </defs>
  <g id="Grupo_113" data-name="Grupo 113" transform="translate(0 0)">
    <g id="Grupo_112" data-name="Grupo 112" transform="translate(0 0)" clip-path="url(#clip-path)">
      <path id="Trazado_285" data-name="Trazado 285" d="M1.9,14.163a9.831,9.831,0,0,1-1.633-.392V11.9a9.911,9.911,0,0,0,1.676.405,11.02,11.02,0,0,0,1.7.141A3.365,3.365,0,0,0,5.6,12a1.529,1.529,0,0,0,.623-1.322,1.585,1.585,0,0,0-.191-.818A1.577,1.577,0,0,0,5.4,9.292a5.7,5.7,0,0,0-1.237-.444L3.31,8.627A5,5,0,0,1,.819,7.339,3.188,3.188,0,0,1,0,5.061,3.253,3.253,0,0,1,1.266,2.322,6.029,6.029,0,0,1,4.982,1.35a11.988,11.988,0,0,1,1.556.1,8.629,8.629,0,0,1,1.352.277V3.594A8.848,8.848,0,0,0,6.551,3.3a10.462,10.462,0,0,0-1.459-.1,3.952,3.952,0,0,0-2.15.452,1.46,1.46,0,0,0-.674,1.288,1.605,1.605,0,0,0,.174.784,1.463,1.463,0,0,0,.58.546A5.037,5.037,0,0,0,4.137,6.7l.853.213A5.541,5.541,0,0,1,7.656,8.234,3.137,3.137,0,0,1,8.5,10.521a3.534,3.534,0,0,1-.576,2.03,3.578,3.578,0,0,1-1.672,1.3,6.9,6.9,0,0,1-2.615.448A11.3,11.3,0,0,1,1.9,14.163" transform="translate(0 -0.352)" fill="#fff"/>
      <path id="Trazado_286" data-name="Trazado 286" d="M21.4,11.329H15.639a3.252,3.252,0,0,0,.342,1.437,1.711,1.711,0,0,0,.921.772,4.737,4.737,0,0,0,1.664.239,9.857,9.857,0,0,0,2.337-.324v1.7a10.936,10.936,0,0,1-2.645.332,6.435,6.435,0,0,1-2.733-.5,3.31,3.31,0,0,1-1.6-1.565,6.2,6.2,0,0,1-.529-2.759,6.388,6.388,0,0,1,.486-2.637A3.473,3.473,0,0,1,15.289,6.4a4.317,4.317,0,0,1,2.226-.542,3.5,3.5,0,0,1,2.892,1.224,5.7,5.7,0,0,1,.989,3.638Zm-5.272-3.4a3.563,3.563,0,0,0-.495,2.056h3.677a3.7,3.7,0,0,0-.474-2.056A1.546,1.546,0,0,0,17.5,7.32a1.621,1.621,0,0,0-1.373.614" transform="translate(-3.492 -1.528)" fill="#fff"/>
      <path id="Trazado_287" data-name="Trazado 287" d="M27.037,14.294a4.982,4.982,0,0,1-1.169-3.621,4.786,4.786,0,0,1,1.246-3.629,5.1,5.1,0,0,1,3.643-1.181,8.771,8.771,0,0,1,2.021.222V7.875a8.413,8.413,0,0,0-1.732-.2,3.831,3.831,0,0,0-1.63.3,1.924,1.924,0,0,0-.938.952,4.067,4.067,0,0,0-.307,1.718,3.386,3.386,0,0,0,.644,2.316,2.549,2.549,0,0,0,1.975.7,5.4,5.4,0,0,0,.909-.081,10.425,10.425,0,0,0,1.079-.251v1.791a7.393,7.393,0,0,1-2.32.358,4.586,4.586,0,0,1-3.421-1.19" transform="translate(-6.743 -1.528)" fill="#fff"/>
      <path id="Trazado_288" data-name="Trazado 288" d="M37.221,6.019h1.842l.171,1.211h.119a2.64,2.64,0,0,1,1.079-.989A3.26,3.26,0,0,1,41.9,5.908a4.7,4.7,0,0,1,.742.06V8a5.094,5.094,0,0,0-.87-.06,3.332,3.332,0,0,0-1.309.273,2.356,2.356,0,0,0-1.011.776v6.338H37.221Z" transform="translate(-9.702 -1.54)" fill="#fff"/>
      <path id="Trazado_289" data-name="Trazado 289" d="M53.4,11.329H47.645a3.252,3.252,0,0,0,.342,1.437,1.711,1.711,0,0,0,.921.772,4.737,4.737,0,0,0,1.664.239,9.857,9.857,0,0,0,2.337-.324v1.7a10.936,10.936,0,0,1-2.645.332,6.435,6.435,0,0,1-2.733-.5,3.31,3.31,0,0,1-1.6-1.565,6.2,6.2,0,0,1-.529-2.759,6.388,6.388,0,0,1,.486-2.637A3.473,3.473,0,0,1,47.3,6.4a4.317,4.317,0,0,1,2.226-.542,3.5,3.5,0,0,1,2.892,1.224,5.7,5.7,0,0,1,.989,3.638Zm-5.272-3.4a3.563,3.563,0,0,0-.495,2.056h3.677a3.7,3.7,0,0,0-.474-2.056A1.546,1.546,0,0,0,49.5,7.32a1.621,1.621,0,0,0-1.373.614" transform="translate(-11.834 -1.528)" fill="#fff"/>
      <path id="Trazado_290" data-name="Trazado 290" d="M63.534,12.386v1.791a7.093,7.093,0,0,1-1.613.188q-3.309,0-3.309-3.335V6.67h-1.6V4.887h1.6L59,1.569h1.842V4.887h2.6V6.67h-2.6v4a2.755,2.755,0,0,0,.174,1.083,1.1,1.1,0,0,0,.533.576,2.17,2.17,0,0,0,.947.175,5.668,5.668,0,0,0,1.032-.12" transform="translate(-14.859 -0.409)" fill="#fff"/>
      <path id="Trazado_291" data-name="Trazado 291" d="M72.89,6.215A2.485,2.485,0,0,1,74.2,7.38a4.716,4.716,0,0,1,.431,2.2v5.733H72.779l-.153-.964h-.12a2.64,2.64,0,0,1-1.079.841,3.661,3.661,0,0,1-1.463.285,3.571,3.571,0,0,1-1.578-.323,2.356,2.356,0,0,1-1.02-.918,2.669,2.669,0,0,1-.354-1.4,2.417,2.417,0,0,1,.888-2,5.176,5.176,0,0,1,2.806-.861l1.74-.162V9.445a2.3,2.3,0,0,0-.226-1.113,1.255,1.255,0,0,0-.708-.576,3.978,3.978,0,0,0-1.292-.171,8.456,8.456,0,0,0-1.237.1,8.024,8.024,0,0,0-1.28.294V6.262a8.454,8.454,0,0,1,1.412-.3,11.308,11.308,0,0,1,1.48-.1,6.233,6.233,0,0,1,2.294.354M71.614,13.7a2.232,2.232,0,0,0,.832-.6V11.125l-1.527.136a2.367,2.367,0,0,0-1.284.422,1.16,1.16,0,0,0-.405.943,1.189,1.189,0,0,0,.363.937,1.545,1.545,0,0,0,1.062.325,2.544,2.544,0,0,0,.96-.188" transform="translate(-17.467 -1.528)" fill="#fff"/>
      <path id="Trazado_292" data-name="Trazado 292" d="M80.211,6.019h1.842l.171,1.211h.119a2.64,2.64,0,0,1,1.079-.989,3.26,3.26,0,0,1,1.471-.333,4.7,4.7,0,0,1,.742.06V8a5.094,5.094,0,0,0-.87-.06,3.332,3.332,0,0,0-1.309.273,2.356,2.356,0,0,0-1.011.776v6.338H80.211Z" transform="translate(-20.907 -1.54)" fill="#fff"/>
      <path id="Trazado_293" data-name="Trazado 293" d="M89.315,4.478h2.244v9.307H89.315Zm.1-1.271L91.294,0h2.388L91.465,3.207Z" transform="translate(-23.28 0)" fill="#fff"/>
      <path id="Trazado_294" data-name="Trazado 294" d="M100.569,6.215a2.485,2.485,0,0,1,1.309,1.164,4.716,4.716,0,0,1,.431,2.2v5.733h-1.851l-.153-.964h-.12a2.64,2.64,0,0,1-1.079.841,3.661,3.661,0,0,1-1.463.285,3.571,3.571,0,0,1-1.578-.323,2.356,2.356,0,0,1-1.02-.918,2.669,2.669,0,0,1-.354-1.4,2.417,2.417,0,0,1,.888-2,5.176,5.176,0,0,1,2.806-.861l1.74-.162V9.445A2.3,2.3,0,0,0,99.9,8.331a1.255,1.255,0,0,0-.708-.576A3.978,3.978,0,0,0,97.9,7.584a8.456,8.456,0,0,0-1.237.1,8.024,8.024,0,0,0-1.28.294V6.262a8.454,8.454,0,0,1,1.412-.3,11.308,11.308,0,0,1,1.48-.1,6.233,6.233,0,0,1,2.294.354M99.293,13.7a2.232,2.232,0,0,0,.832-.6V11.125l-1.527.136a2.367,2.367,0,0,0-1.284.422,1.16,1.16,0,0,0-.405.943,1.189,1.189,0,0,0,.363.937,1.544,1.544,0,0,0,1.062.325,2.544,2.544,0,0,0,.96-.188" transform="translate(-24.682 -1.528)" fill="#fff"/>
      <path id="Trazado_295" data-name="Trazado 295" d="M114.883,13.47a3.321,3.321,0,0,1-1.348-1.514,6.068,6.068,0,0,1-.5-2.632A5.086,5.086,0,0,1,114.294,5.6a4.946,4.946,0,0,1,3.672-1.271,9.033,9.033,0,0,1,1.246.094V0h2.235V13.786h-1.885l-.137-.981h-.119a2.947,2.947,0,0,1-1.058.835,3.279,3.279,0,0,1-1.442.307,3.851,3.851,0,0,1-1.924-.477m3.536-1.574a1.993,1.993,0,0,0,.793-.618V6.185a5.717,5.717,0,0,0-1.246-.128,2.588,2.588,0,0,0-2.017.73,3.454,3.454,0,0,0-.662,2.359,3.638,3.638,0,0,0,.555,2.29,1.936,1.936,0,0,0,1.578.669,2.471,2.471,0,0,0,1-.208" transform="translate(-29.463 0)" fill="#fff"/>
      <path id="Trazado_296" data-name="Trazado 296" d="M134.814,11.329h-5.758a3.252,3.252,0,0,0,.342,1.437,1.711,1.711,0,0,0,.921.772,4.737,4.737,0,0,0,1.664.239,9.857,9.857,0,0,0,2.337-.324v1.7a10.936,10.936,0,0,1-2.645.332,6.435,6.435,0,0,1-2.733-.5,3.31,3.31,0,0,1-1.6-1.565,6.2,6.2,0,0,1-.529-2.759,6.388,6.388,0,0,1,.486-2.637A3.473,3.473,0,0,1,128.706,6.4a4.317,4.317,0,0,1,2.226-.542,3.5,3.5,0,0,1,2.892,1.224,5.7,5.7,0,0,1,.989,3.638Zm-5.272-3.4a3.563,3.563,0,0,0-.495,2.056h3.677a3.7,3.7,0,0,0-.474-2.056,1.546,1.546,0,0,0-1.335-.614,1.621,1.621,0,0,0-1.373.614" transform="translate(-33.054 -1.528)" fill="#fff"/>
      <path id="Trazado_297" data-name="Trazado 297" d="M.97,39.385V27.092q.853-.179,1.842-.286a17.87,17.87,0,0,1,1.91-.106,7.1,7.1,0,0,1,5.038,1.587,6.384,6.384,0,0,1,1.685,4.863,7.458,7.458,0,0,1-.794,3.663,4.761,4.761,0,0,1-2.384,2.095,10.339,10.339,0,0,1-4.013.674,28.007,28.007,0,0,1-3.284-.2m6.257-2.137a2.99,2.99,0,0,0,1.411-1.471,6.276,6.276,0,0,0,.469-2.637,6.258,6.258,0,0,0-.469-2.623,3.033,3.033,0,0,0-1.4-1.484,5.239,5.239,0,0,0-2.376-.474,10.053,10.053,0,0,0-1.613.145v8.932a13.8,13.8,0,0,0,1.57.077,5.452,5.452,0,0,0,2.41-.465" transform="translate(-0.253 -6.96)" fill="#fff"/>
      <path id="Trazado_298" data-name="Trazado 298" d="M25.089,36.643H19.331a3.255,3.255,0,0,0,.342,1.437,1.711,1.711,0,0,0,.921.772,4.737,4.737,0,0,0,1.664.239,9.857,9.857,0,0,0,2.337-.324v1.7a10.936,10.936,0,0,1-2.645.332,6.435,6.435,0,0,1-2.733-.5,3.31,3.31,0,0,1-1.6-1.565,6.2,6.2,0,0,1-.529-2.759,6.39,6.39,0,0,1,.486-2.637,3.477,3.477,0,0,1,1.408-1.616,4.317,4.317,0,0,1,2.226-.542A3.5,3.5,0,0,1,24.1,32.4a5.7,5.7,0,0,1,.989,3.638Zm-5.272-3.4a3.56,3.56,0,0,0-.495,2.055H23a3.7,3.7,0,0,0-.474-2.055,1.546,1.546,0,0,0-1.335-.614,1.621,1.621,0,0,0-1.373.614" transform="translate(-4.454 -8.126)" fill="#fff"/>
      <path id="Trazado_299" data-name="Trazado 299" d="M30.161,31.333H32l.171,1.212h.119a2.637,2.637,0,0,1,1.079-.99,3.26,3.26,0,0,1,1.471-.333,4.7,4.7,0,0,1,.742.06v2.03a5.094,5.094,0,0,0-.87-.06,3.332,3.332,0,0,0-1.309.273A2.356,2.356,0,0,0,32.4,34.3V40.64H30.161Z" transform="translate(-7.862 -8.138)" fill="#fff"/>
      <path id="Trazado_300" data-name="Trazado 300" d="M46.342,36.643H40.584a3.255,3.255,0,0,0,.342,1.437,1.711,1.711,0,0,0,.921.772,4.737,4.737,0,0,0,1.664.239,9.857,9.857,0,0,0,2.337-.324v1.7A10.936,10.936,0,0,1,43.2,40.8a6.435,6.435,0,0,1-2.733-.5,3.31,3.31,0,0,1-1.6-1.565,6.2,6.2,0,0,1-.529-2.759,6.39,6.39,0,0,1,.486-2.637,3.477,3.477,0,0,1,1.408-1.616,4.317,4.317,0,0,1,2.226-.542A3.5,3.5,0,0,1,45.353,32.4a5.7,5.7,0,0,1,.989,3.638Zm-5.272-3.4a3.56,3.56,0,0,0-.495,2.055h3.677a3.7,3.7,0,0,0-.474-2.055,1.546,1.546,0,0,0-1.335-.614,1.621,1.621,0,0,0-1.373.614" transform="translate(-9.994 -8.126)" fill="#fff"/>
      <path id="Trazado_301" data-name="Trazado 301" d="M51.982,39.608a4.981,4.981,0,0,1-1.169-3.621,4.79,4.79,0,0,1,1.246-3.631A5.1,5.1,0,0,1,55.7,31.176a8.73,8.73,0,0,1,2.021.222v1.791a8.457,8.457,0,0,0-1.732-.2,3.832,3.832,0,0,0-1.63.3,1.925,1.925,0,0,0-.938.951,4.073,4.073,0,0,0-.307,1.719,3.386,3.386,0,0,0,.644,2.316,2.549,2.549,0,0,0,1.975.7,5.4,5.4,0,0,0,.909-.081,10.426,10.426,0,0,0,1.079-.251V40.44a7.393,7.393,0,0,1-2.32.358,4.586,4.586,0,0,1-3.421-1.19" transform="translate(-13.245 -8.126)" fill="#fff"/>
      <path id="Trazado_302" data-name="Trazado 302" d="M62.305,25.314H64.54v5.451h.111a3.455,3.455,0,0,1,1.19-.832,3.788,3.788,0,0,1,1.488-.286,2.889,2.889,0,0,1,2.188.85,3.749,3.749,0,0,1,.815,2.674V39.1H68.1V33.308a1.835,1.835,0,0,0-.392-1.323,1.553,1.553,0,0,0-1.144-.392,2.784,2.784,0,0,0-1.109.235,2.284,2.284,0,0,0-.912.7V39.1H62.305Z" transform="translate(-16.24 -6.599)" fill="#fff"/>
      <path id="Trazado_303" data-name="Trazado 303" d="M76.6,39.595A5.036,5.036,0,0,1,75.458,36a5.108,5.108,0,0,1,1.13-3.616,4.866,4.866,0,0,1,6.406,0,5.1,5.1,0,0,1,1.13,3.609,6.088,6.088,0,0,1-.524,2.679,3.532,3.532,0,0,1-1.5,1.6,4.778,4.778,0,0,1-2.312.528,4.194,4.194,0,0,1-3.187-1.2m4.744-1.219A4.06,4.06,0,0,0,81.873,36a4.14,4.14,0,0,0-.524-2.4,2.079,2.079,0,0,0-3.113,0,4.054,4.054,0,0,0-.525,2.372,5.6,5.6,0,0,0,.243,1.834,1.846,1.846,0,0,0,.7.977,2.062,2.062,0,0,0,1.139.294,1.823,1.823,0,0,0,1.557-.7" transform="translate(-19.668 -8.126)" fill="#fff"/>
      <path id="Trazado_304" data-name="Trazado 304" d="M89.122,40.406V38.734a9.692,9.692,0,0,0,2.815.41,2.75,2.75,0,0,0,1.445-.294.959.959,0,0,0,.457-.858A.937.937,0,0,0,93.6,37.3a1.627,1.627,0,0,0-.819-.359l-1.416-.264a3.363,3.363,0,0,1-1.877-.9,2.459,2.459,0,0,1-.589-1.727,2.557,2.557,0,0,1,.456-1.515,2.933,2.933,0,0,1,1.386-1,6.449,6.449,0,0,1,2.3-.358,9.24,9.24,0,0,1,2.38.29v1.664a8.834,8.834,0,0,0-2.321-.3Q91,32.831,91,33.991a.9.9,0,0,0,.234.653,1.541,1.541,0,0,0,.8.362l1.416.265a3.533,3.533,0,0,1,1.881.874,2.423,2.423,0,0,1,.6,1.762,2.6,2.6,0,0,1-.461,1.544,2.906,2.906,0,0,1-1.352,1,5.909,5.909,0,0,1-2.154.349,9.5,9.5,0,0,1-2.841-.392" transform="translate(-23.172 -8.126)" fill="#fff"/>
      <path id="Trazado_305" data-name="Trazado 305" d="M106.5,39.509V26.884h2.278v5.152H114.5V26.884h2.277V39.509H114.5v-5.46h-5.724v5.46Z" transform="translate(-27.759 -7.008)" fill="#fff"/>
      <path id="Trazado_306" data-name="Trazado 306" d="M124.331,39.992a3.678,3.678,0,0,1-.841-2.674V31.372h2.235v5.809a1.857,1.857,0,0,0,.388,1.326,1.475,1.475,0,0,0,1.105.4,2.661,2.661,0,0,0,1.079-.238,2.272,2.272,0,0,0,.9-.708V31.372h2.234v9.307h-1.851l-.154-.964h-.1a3.718,3.718,0,0,1-1.236.841,3.814,3.814,0,0,1-1.468.285,3.074,3.074,0,0,1-2.29-.848" transform="translate(-32.188 -8.178)" fill="#fff"/>
      <path id="Trazado_307" data-name="Trazado 307" d="M149.374,32.025a3.806,3.806,0,0,1,.8,2.682v5.921H147.95v-5.8a1.9,1.9,0,0,0-.371-1.318,1.349,1.349,0,0,0-1.037-.4,2.283,2.283,0,0,0-.938.2,2.063,2.063,0,0,0-.793.631,6.089,6.089,0,0,1,.034.7v5.98h-2.192v-5.8a1.983,1.983,0,0,0-.35-1.323,1.289,1.289,0,0,0-1.015-.392,2.2,2.2,0,0,0-1,.243,2.11,2.11,0,0,0-.81.72v6.552h-2.235V31.321H139.1l.153.989h.12a3.3,3.3,0,0,1,1.173-.849A3.684,3.684,0,0,1,142,31.176a3.071,3.071,0,0,1,1.391.3,2.3,2.3,0,0,1,.972.943,3.729,3.729,0,0,1,1.318-.943,3.867,3.867,0,0,1,1.5-.3,2.87,2.87,0,0,1,2.192.849" transform="translate(-35.773 -8.126)" fill="#fff"/>
      <path id="Trazado_308" data-name="Trazado 308" d="M162.852,31.529a2.485,2.485,0,0,1,1.309,1.164,4.718,4.718,0,0,1,.431,2.2v5.733h-1.851l-.153-.964h-.12a2.64,2.64,0,0,1-1.079.841,3.661,3.661,0,0,1-1.463.285,3.571,3.571,0,0,1-1.578-.323,2.356,2.356,0,0,1-1.02-.918,2.669,2.669,0,0,1-.354-1.394,2.416,2.416,0,0,1,.888-2.005,5.176,5.176,0,0,1,2.806-.861l1.74-.163v-.367a2.3,2.3,0,0,0-.226-1.113,1.254,1.254,0,0,0-.708-.575,3.981,3.981,0,0,0-1.292-.17,8.547,8.547,0,0,0-1.237.1,8.106,8.106,0,0,0-1.28.295V31.576a8.532,8.532,0,0,1,1.412-.3,11.309,11.309,0,0,1,1.48-.1,6.249,6.249,0,0,1,2.294.354m-1.275,7.486a2.232,2.232,0,0,0,.832-.6V36.439l-1.527.136A2.373,2.373,0,0,0,159.6,37a1.159,1.159,0,0,0-.405.943,1.19,1.19,0,0,0,.363.938,1.545,1.545,0,0,0,1.062.325,2.544,2.544,0,0,0,.96-.188" transform="translate(-40.916 -8.126)" fill="#fff"/>
      <path id="Trazado_309" data-name="Trazado 309" d="M170.173,31.321h1.851l.153.981h.12a3.586,3.586,0,0,1,1.249-.836,4.093,4.093,0,0,1,1.54-.29,3.053,3.053,0,0,1,2.278.849,3.705,3.705,0,0,1,.835,2.682v5.921h-2.235V34.836a1.849,1.849,0,0,0-.392-1.327,1.542,1.542,0,0,0-1.144-.4,2.783,2.783,0,0,0-1.109.234,2.3,2.3,0,0,0-.912.7v6.577h-2.235Z" transform="translate(-44.356 -8.126)" fill="#fff"/>
      <path id="Trazado_310" data-name="Trazado 310" d="M184.474,39.595a5.036,5.036,0,0,1-1.147-3.6,5.108,5.108,0,0,1,1.13-3.616,4.866,4.866,0,0,1,6.406,0,5.1,5.1,0,0,1,1.13,3.609,6.088,6.088,0,0,1-.524,2.679,3.532,3.532,0,0,1-1.5,1.6,4.778,4.778,0,0,1-2.312.528,4.194,4.194,0,0,1-3.187-1.2m4.744-1.219A4.06,4.06,0,0,0,189.742,36a4.14,4.14,0,0,0-.524-2.4,2.079,2.079,0,0,0-3.113,0,4.054,4.054,0,0,0-.525,2.372,5.6,5.6,0,0,0,.243,1.834,1.846,1.846,0,0,0,.7.977,2.062,2.062,0,0,0,1.139.294,1.823,1.823,0,0,0,1.557-.7" transform="translate(-47.785 -8.126)" fill="#fff"/>
      <path id="Trazado_311" data-name="Trazado 311" d="M196.99,40.406V38.734a9.692,9.692,0,0,0,2.815.41,2.75,2.75,0,0,0,1.445-.294.959.959,0,0,0,.457-.858.937.937,0,0,0-.239-.691,1.627,1.627,0,0,0-.819-.359l-1.416-.264a3.363,3.363,0,0,1-1.877-.9,2.459,2.459,0,0,1-.589-1.727,2.557,2.557,0,0,1,.456-1.515,2.933,2.933,0,0,1,1.386-1,6.449,6.449,0,0,1,2.3-.358,9.24,9.24,0,0,1,2.38.29v1.664a8.834,8.834,0,0,0-2.321-.3q-2.107,0-2.106,1.16a.9.9,0,0,0,.234.653,1.541,1.541,0,0,0,.8.362l1.416.265a3.533,3.533,0,0,1,1.881.874,2.423,2.423,0,0,1,.6,1.762,2.6,2.6,0,0,1-.461,1.544,2.906,2.906,0,0,1-1.352,1,5.909,5.909,0,0,1-2.154.349,9.5,9.5,0,0,1-2.841-.392" transform="translate(-51.289 -8.126)" fill="#fff"/>
    </g>
  </g>
</svg>
