<svg id="Grupo_6" data-name="Grupo 6" xmlns="http://www.w3.org/2000/svg" xmlns:xlink="http://www.w3.org/1999/xlink" width="151.298" height="56" viewBox="0 0 151.298 56">
  <defs>
    <clipPath id="clip-path">
      <rect id="Rectángulo_19" data-name="Rectángulo 19" width="151.298" height="56" fill="#fff"/>
    </clipPath>
  </defs>
  <g id="Grupo_5" data-name="Grupo 5" clip-path="url(#clip-path)">
    <path id="Trazado_25" data-name="Trazado 25" d="M84.7,31.071l0-.025.007.025a8.734,8.734,0,0,1,1.368-.124c1.281,0,1.478.425,1.5.474a.189.189,0,0,0,.174.107.25.25,0,0,0,.066-.009.1.1,0,0,0,.081-.047.155.155,0,0,0-.01-.14,1.79,1.79,0,0,0-1.616-.972A5.544,5.544,0,0,0,84.8,30.4c-.2.036-.268.516-.268.519a.13.13,0,0,0,.027.123.172.172,0,0,0,.14.027" transform="translate(-66.237 -23.767)" fill="#fff"/>
    <path id="Trazado_26" data-name="Trazado 26" d="M66.266,35.881a3.134,3.134,0,0,0-1.01-.109,1.539,1.539,0,0,0-1.435.742.188.188,0,0,0-.013.17.126.126,0,0,0,.086.055.24.24,0,0,0,.3-.12s.075-.216.558-.336a.026.026,0,0,1,.027.009.03.03,0,0,1,0,.026.551.551,0,0,0-.041.21.565.565,0,1,0,1.085-.224.025.025,0,0,1,0-.028.026.026,0,0,1,.029-.007.784.784,0,0,1,.437.4c.032.066.1.107.327.107a.187.187,0,0,0,.146-.047.088.088,0,0,0,.008-.072,1.128,1.128,0,0,0-.512-.774" transform="translate(-49.987 -28.028)" fill="#fff"/>
    <path id="Trazado_27" data-name="Trazado 27" d="M84.523,36.773c.229,0,.294-.04.325-.107a.785.785,0,0,1,.438-.4.026.026,0,0,1,.034.034.566.566,0,1,0,1.084.224.579.579,0,0,0-.039-.21.026.026,0,0,1,.03-.035c.477.118.552.318.56.343a.233.233,0,0,0,.287.115.127.127,0,0,0,.1-.057.19.19,0,0,0-.013-.171,1.543,1.543,0,0,0-1.435-.741,3.1,3.1,0,0,0-1.012.109,1.141,1.141,0,0,0-.51.768.083.083,0,0,0,.008.077c.026.039.094.047.146.047" transform="translate(-66.107 -28.028)" fill="#fff"/>
    <path id="Trazado_28" data-name="Trazado 28" d="M61.948,31.514h0l0,0a.32.32,0,0,0,.067.009.192.192,0,0,0,.176-.109c.012-.032.322-.756,2.864-.35a.193.193,0,0,0,.145-.027.137.137,0,0,0,.026-.121c0-.02-.068-.485-.268-.521a5.192,5.192,0,0,0-.882-.073,5.314,5.314,0,0,0-.578.031c-1.329.144-1.617.96-1.619.967a.165.165,0,0,0-.011.145.106.106,0,0,0,.074.047" transform="translate(-48.475 -23.762)" fill="#fff"/>
    <path id="Trazado_29" data-name="Trazado 29" d="M35.07,32.566a.288.288,0,0,0-.127-.241.282.282,0,0,0-.216-.043c.047-.129.088-.264.124-.4a6.073,6.073,0,0,0,.136-2.047.291.291,0,0,0-.151-.228.285.285,0,0,0-.222-.021,4.148,4.148,0,0,0,.1-.47,6.013,6.013,0,0,0-.062-2.052.287.287,0,0,0-.172-.212.292.292,0,0,0-.168-.016c.02-.109.037-.22.048-.333a6.058,6.058,0,0,0-.161-2.046.286.286,0,0,0-.449-.165l-.019.016a4.617,4.617,0,0,0,.014-.522,6.049,6.049,0,0,0-.44-2,.282.282,0,0,0-.206-.178.293.293,0,0,0-.239.056,4.274,4.274,0,0,0-.039-.479,6.054,6.054,0,0,0-.643-1.949.286.286,0,0,0-.454-.074,3.935,3.935,0,0,0-.09-.442,6.118,6.118,0,0,0-.867-1.864.292.292,0,0,0-.24-.127.284.284,0,0,0-.237.131l-.01.014a4.578,4.578,0,0,0-.189-.514,6.111,6.111,0,0,0-1.156-1.7.285.285,0,0,0-.269-.085.289.289,0,0,0-.184.13,5.2,5.2,0,0,0-.275-.5,6.069,6.069,0,0,0-1.385-1.479.284.284,0,0,0-.441.119,3.361,3.361,0,0,0-1.5-1.12c.079.007.158.013.233.017a4.374,4.374,0,0,0,1.446-.135.427.427,0,0,0-.1-.834,3.14,3.14,0,0,1-1.646-.457c-.041-.024-.085-.046-.125-.068l1.963-.295a.428.428,0,0,0,0-.846l-1.863-.267c.207-.061.405-.123.594-.189a4.391,4.391,0,0,0,1.284-.681.427.427,0,0,0-.414-.731,3.128,3.128,0,0,1-1.694.211l-.136-.015,1.7-1.022a.433.433,0,0,0,.174-.531.425.425,0,0,0-.5-.25L23.967,6.1c.17-.136.332-.272.483-.407a4.421,4.421,0,0,0,.927-1.123.427.427,0,0,0-.116-.537.422.422,0,0,0-.546.021A3.124,3.124,0,0,1,23.23,4.9L23.1,4.94l1.177-1.592a.43.43,0,0,0-.04-.557.425.425,0,0,0-.555-.04L22.163,3.891c.106-.193.205-.384.295-.568a4.506,4.506,0,0,0,.425-1.394.425.425,0,0,0-.807-.221,3.164,3.164,0,0,1-1.051,1.357c-.031.025-.065.051-.1.078l.481-1.919a.43.43,0,0,0-.249-.5A.425.425,0,0,0,20.632.9l-.976,1.645c.025-.223.044-.439.055-.644A4.513,4.513,0,0,0,19.574.45a.425.425,0,0,0-.831.107,3.164,3.164,0,0,1-.451,1.653c-.02.035-.039.072-.058.11L17.949.366a.425.425,0,0,0-.843,0l-.261,1.86c-.059-.2-.12-.4-.184-.585A4.545,4.545,0,0,0,15.985.351a.426.426,0,0,0-.728.417,3.175,3.175,0,0,1,.208,1.709c0,.045-.01.09-.013.137L14.423.9a.425.425,0,0,0-.776.327l.468,1.828c-.134-.168-.266-.327-.4-.474A4.445,4.445,0,0,0,12.6,1.649a.427.427,0,0,0-.515.664A3.166,3.166,0,0,1,12.929,3.8l.04.135-1.6-1.187a.426.426,0,0,0-.593.6L11.913,4.87c-.192-.1-.375-.2-.556-.29a4.461,4.461,0,0,0-1.388-.429.427.427,0,0,0-.221.812A3.166,3.166,0,0,1,11.1,6.021l.079.1L9.256,5.635a.427.427,0,0,0-.32.781l1.634.974c-.216-.025-.429-.043-.63-.055a4.5,4.5,0,0,0-1.448.137.428.428,0,0,0,.108.836,3.133,3.133,0,0,1,1.648.454l.11.06L8.4,9.111a.428.428,0,0,0,0,.846l1.89.275c-.213.061-.418.126-.612.194a4.475,4.475,0,0,0-1.283.684.427.427,0,0,0,.415.73A3.594,3.594,0,0,1,9.876,11.6a7.5,7.5,0,0,0-.892.877c-.089.113-.172.23-.246.346a.293.293,0,0,0-.16-.138.282.282,0,0,0-.268.045,6.135,6.135,0,0,0-1.412,1.5,4.507,4.507,0,0,0-.274.492.287.287,0,0,0-.459-.057,6.121,6.121,0,0,0-1.156,1.7,4.166,4.166,0,0,0-.179.484.286.286,0,0,0-.2-.093.279.279,0,0,0-.244.117,6.066,6.066,0,0,0-.945,1.823,4.182,4.182,0,0,0-.118.5l-.008-.009a.287.287,0,0,0-.477.047,6.079,6.079,0,0,0-.661,1.942,4.262,4.262,0,0,0-.043.488h0a.283.283,0,0,0-.261-.073.287.287,0,0,0-.205.18,6.071,6.071,0,0,0-.411,2.01c0,.163,0,.323.017.48a.281.281,0,0,0-.26-.035.288.288,0,0,0-.181.2,6.118,6.118,0,0,0-.161,2.045c.014.121.031.243.055.364a.293.293,0,0,0-.141.02.289.289,0,0,0-.171.212,6,6,0,0,0-.063,2.052,4.032,4.032,0,0,0,.1.481.25.25,0,0,0-.131.029.284.284,0,0,0-.157.223A6.047,6.047,0,0,0,.231,31.9c.03.139.067.277.11.411A.285.285,0,0,0,0,32.587a6.047,6.047,0,0,0,.28,2.034,4.383,4.383,0,0,0,.214.526.609.609,0,0,0-.062-.018.28.28,0,0,0-.264.065.289.289,0,0,0-.091.257A6.053,6.053,0,0,0,.71,37.4c.06.112.124.22.193.324a.284.284,0,0,0-.22.348,6.065,6.065,0,0,0,.774,1.9,4.339,4.339,0,0,0,.271.378.277.277,0,0,0-.215.114.28.28,0,0,0-.041.272,6.117,6.117,0,0,0,.988,1.8c.092.112.189.22.289.32A.292.292,0,0,0,2.563,43a.287.287,0,0,0-.008.274,6.081,6.081,0,0,0,1.193,1.675c.1.1.207.19.314.276a.288.288,0,0,0-.145.426A6.107,6.107,0,0,0,5.279,47.19a4.474,4.474,0,0,0,.485.332c-.053.014-.082.027-.087.027a.288.288,0,0,0-.111.469,7.011,7.011,0,0,0,1.586,1.275,4.282,4.282,0,0,0,1.3.5,2.894,2.894,0,0,0,1.034.016,15.8,15.8,0,0,0,2.979,1.672,14.386,14.386,0,0,0,2.6.824c.125.026.25.051.382.074l.294.055a4.555,4.555,0,0,0,.486.129,1.36,1.36,0,0,0-.027.271,1.4,1.4,0,0,0,.034.305,5.328,5.328,0,0,1-2.943,1.454L13.2,54.6l.048.079a2.364,2.364,0,0,0,.426.5l.024.021.029-.005a5.918,5.918,0,0,0,2.837-1.451,1.525,1.525,0,0,0,.118.112,2.677,2.677,0,0,1-2.119,1.766l-.169.046.163.069a3.931,3.931,0,0,0,.936.256l.018,0,.016-.007a3.111,3.111,0,0,0,1.767-1.844,1.334,1.334,0,0,0,.47,0,3.106,3.106,0,0,0,1.765,1.842l.016.007.02,0a3.945,3.945,0,0,0,.937-.256l.162-.069-.169-.046a2.684,2.684,0,0,1-2.119-1.759,1.308,1.308,0,0,0,.123-.114A5.923,5.923,0,0,0,21.332,55.2l.029.005.021-.021a2.328,2.328,0,0,0,.428-.5l.05-.079-.093-.012a5.23,5.23,0,0,1-2.934-1.447,1.324,1.324,0,0,0,.007-.585,4.226,4.226,0,0,0,.453-.119l.336-.059c.413-.071.816-.158,1.2-.261a14,14,0,0,0,2.561-.969,12.8,12.8,0,0,0,2.188-1.344,2.876,2.876,0,0,0,1.035-.016,4.274,4.274,0,0,0,1.305-.5,7.025,7.025,0,0,0,1.588-1.275.283.283,0,0,0,.071-.265.288.288,0,0,0-.182-.2l-.071-.022a4.27,4.27,0,0,0,.494-.336,6.12,6.12,0,0,0,1.363-1.542.286.286,0,0,0,.02-.274.293.293,0,0,0-.164-.152c.107-.085.211-.178.313-.276a6.106,6.106,0,0,0,1.194-1.675.287.287,0,0,0-.239-.415,4.462,4.462,0,0,0,.316-.35,6.038,6.038,0,0,0,.988-1.8.287.287,0,0,0-.256-.385h-.027a4.426,4.426,0,0,0,.266-.359,6.069,6.069,0,0,0,.8-1.89.287.287,0,0,0-.322-.355,3.945,3.945,0,0,0,.241-.424,6.033,6.033,0,0,0,.562-1.973A.287.287,0,0,0,34.56,35a4.245,4.245,0,0,0,.173-.407,6.1,6.1,0,0,0,.337-2.025m-.592-2.277a.027.027,0,0,1,.029,0,.025.025,0,0,1,.016.024,5.3,5.3,0,0,1-.14,1.426,3.542,3.542,0,0,1-.512,1.153,2.676,2.676,0,0,1-.679.691.024.024,0,0,1-.034-.005,4.009,4.009,0,0,1-.776-2.714.028.028,0,0,1,.047-.017,4.69,4.69,0,0,1,.657.958.206.206,0,0,0,.2.118.212.212,0,0,0,.187-.139,3.555,3.555,0,0,1,1-1.491m-.289-2.721a.03.03,0,0,1,.029-.008.029.029,0,0,1,.017.023,5.262,5.262,0,0,1,0,1.434,3.574,3.574,0,0,1-.394,1.2,2.686,2.686,0,0,1-.621.763.021.021,0,0,1-.016.007.024.024,0,0,1-.017-.007,4.125,4.125,0,0,1-1.005-2.613.027.027,0,0,1,.016-.026.026.026,0,0,1,.031,0,4.686,4.686,0,0,1,.724.869.211.211,0,0,0,.385-.06,3.547,3.547,0,0,1,.855-1.583m-.428-2.586a.028.028,0,0,1,.029-.008.027.027,0,0,1,.018.021,5.233,5.233,0,0,1,.065,1.431,3.59,3.59,0,0,1-.337,1.217,2.7,2.7,0,0,1-.574.781.027.027,0,0,1-.037,0A3.488,3.488,0,0,1,31.9,26.609a5.444,5.444,0,0,1-.13-.76.028.028,0,0,1,.013-.027.029.029,0,0,1,.03,0,4.732,4.732,0,0,1,.79.855.21.21,0,0,0,.379-.078,3.582,3.582,0,0,1,.781-1.622M19.814,39.056a.313.313,0,0,0,.162.184,5.941,5.941,0,0,1,1.892,1.709.009.009,0,0,1,0,.011.84.84,0,0,1-.126.2.794.794,0,0,1-.63.253h-.038a.013.013,0,0,1-.011-.006,3.13,3.13,0,0,0-.5-.726,6.661,6.661,0,0,0-.968-.825.321.321,0,1,0-.368.526,6,6,0,0,1,.851.721,2.376,2.376,0,0,1,.4.575v.01a.931.931,0,0,1-.187.262.616.616,0,0,1-.552.168.021.021,0,0,1-.01-.007,4.028,4.028,0,0,0-.676-1.034.321.321,0,0,0-.56.194.322.322,0,0,0,.081.234,3.506,3.506,0,0,1,.532.787.011.011,0,0,1,0,.014,1.258,1.258,0,0,1-.23.121,1.288,1.288,0,0,1-.683.068s-.007,0-.008-.006a.031.031,0,0,1,0-.011A1.016,1.016,0,0,0,18.374,42a.926.926,0,0,0-.316-.78A.98.98,0,0,0,17.171,41s-.008,0-.01,0a.009.009,0,0,1,0,0,.927.927,0,0,0-.348-.626,1.106,1.106,0,0,0-1.117-.231l-.022.007-.011,0a.013.013,0,0,1-.016-.007,1.023,1.023,0,0,0-.55-.576,1.244,1.244,0,0,0-.973-.061.014.014,0,0,1-.012,0,1.42,1.42,0,0,0-.8-.316,2.012,2.012,0,0,0-1.51.556s0,0,0,0c-2.135,1.147-4.889,2.391-5.973,2.873h0c-.006,0-.01,0-.011-.006a21.555,21.555,0,0,1-1.488-3.55c-.113-.353-.219-.715-.316-1.077v-.006c0-.006.007-.008.01-.009,3.124-.358,5.638-.726,7.464-1.094a11.649,11.649,0,0,0,3.749-1.185l.007,0a2.76,2.76,0,0,1,1.95-.715c.222.02.417.042.6.071,0,0,.008.006.008.01a.011.011,0,0,1-.008.012,1.966,1.966,0,0,0-.5.259c-.29.205-.469.351-.626.48a5.282,5.282,0,0,1-.493.369,5.8,5.8,0,0,1-.516.277c-.423.207-.758.371-.859.645h-.012l.01,0a.863.863,0,0,0,.141.858,1.3,1.3,0,0,0,1.258.391,3.627,3.627,0,0,0,1.484-.449c.154-.089.29-.179.408-.258a1.747,1.747,0,0,1,.477-.262l.018,0a2.077,2.077,0,0,1,1.324.134,7.194,7.194,0,0,1,1.306.717A8.722,8.722,0,0,1,23.122,40a.018.018,0,0,1,0,.009.658.658,0,0,1-.186.385.778.778,0,0,1-.544.178.028.028,0,0,1-.01,0,6.5,6.5,0,0,0-2.126-1.906.321.321,0,0,0-.445.394M17.39,42.362a.189.189,0,0,1-.024.016h0a1.774,1.774,0,0,1-.9.366.549.549,0,0,1-.116-.011.452.452,0,0,1-.267-.161.015.015,0,0,1,0-.011,1.964,1.964,0,0,1,.865-.792c.437-.254.64-.109.662-.091.14.137.13.224.128.252-.017.168-.238.362-.343.428l-.01-.007Zm-3.709-1.8c.456-.441.815-.573,1.125-.416a.448.448,0,0,1,.233.213.216.216,0,0,1,0,.11.011.011,0,0,1-.005.007c-.072.048-.14.1-.215.149a2.026,2.026,0,0,0-.868,1.06.011.011,0,0,1-.011.009h0a1.6,1.6,0,0,1-.216-.054c-.394-.13-.415-.346-.421-.416-.012-.207.09-.386.377-.663m-.442-.466a1.8,1.8,0,0,0-.544.82.01.01,0,0,1-.011.008h0c-.066-.006-.129-.011-.188-.022-.229-.037-.4-.114-.435-.2-.018-.042-.074-.171.083-.377a1.387,1.387,0,0,1,1.086-.494l.027,0a.988.988,0,0,1,.2.041s.007.006.009.008a.015.015,0,0,1,0,.011c-.073.061-.145.125-.225.2m1.951,1.057c.586-.414.9-.556,1.2-.3a.3.3,0,0,1,.128.217.656.656,0,0,1-.266.375,2.086,2.086,0,0,0-.763.871.009.009,0,0,1-.008.007,2.036,2.036,0,0,1-.347.031.815.815,0,0,1-.442-.1.308.308,0,0,1-.13-.247c-.036-.335.379-.681.629-.857M21.7,12.665a.029.029,0,0,1-.01-.026.031.031,0,0,1,.018-.021,3.336,3.336,0,0,1,.81-.154,2.294,2.294,0,0,1,1.895.728.025.025,0,0,1,.006.024.025.025,0,0,1-.017.019,2.517,2.517,0,0,1-.717.135l-.107,0a3.033,3.033,0,0,1-1.878-.707m.89,1.083H12.476a11.077,11.077,0,0,1,10.118,0m1.277-2.074a5.514,5.514,0,0,1-.99.289,3.917,3.917,0,0,1-.725.071,2.357,2.357,0,0,1-1.394-.406.025.025,0,0,1-.011-.023.034.034,0,0,1,.013-.022,3.133,3.133,0,0,1,.819-.324,2.969,2.969,0,0,1,1.182-.036,3.5,3.5,0,0,1,1.109.4.03.03,0,0,1,.014.026.03.03,0,0,1-.018.024m-2.426-.854a4.415,4.415,0,0,1-1.351.357.212.212,0,0,0-.094.385,4.629,4.629,0,0,1,.886.826.033.033,0,0,1,0,.029.03.03,0,0,1-.025.015,3.523,3.523,0,0,1-2.619-1.2.026.026,0,0,1,0-.037,2.094,2.094,0,0,1,.715-.44,4.079,4.079,0,0,1,2.477.014.027.027,0,0,1,0,.05m-2.772-.456a3.868,3.868,0,0,1-1.268.618.212.212,0,0,0-.012.4,3.949,3.949,0,0,1,1,.59.026.026,0,0,1-.013.047c-.185.018-.371.027-.555.027a3.718,3.718,0,0,1-2.225-.638.028.028,0,0,1-.007-.037,2.13,2.13,0,0,1,.612-.573,4.087,4.087,0,0,1,2.453-.485.028.028,0,0,1,.024.019.032.032,0,0,1-.01.03m-2.846.044a3.062,3.062,0,0,1-1.148.879.211.211,0,0,0,.056.4,4.837,4.837,0,0,1,1.108.373.028.028,0,0,1,0,.05,5.463,5.463,0,0,1-.736.187,4.463,4.463,0,0,1-.769.069A3.124,3.124,0,0,1,13,12.09a.027.027,0,0,1-.014-.035,2.084,2.084,0,0,1,.471-.688,4.085,4.085,0,0,1,2.341-1,.029.029,0,0,1,.028.013.028.028,0,0,1,0,.03m-2.665.472a3.622,3.622,0,0,1-1.005,1.285.217.217,0,0,0-.059.234.209.209,0,0,0,.2.138h0a4.646,4.646,0,0,1,.567.041,3.629,3.629,0,0,1,.6.125.03.03,0,0,1,.021.023.028.028,0,0,1-.015.026,5.4,5.4,0,0,1-.708.3,4.1,4.1,0,0,1-1.343.244,2.862,2.862,0,0,1-.79-.106.026.026,0,0,1-.019-.031c.094-.472.53-1.641,2.52-2.317a.028.028,0,0,1,.029.007.026.026,0,0,1,.005.029m10.628,3.552a13.735,13.735,0,0,1,1.595,1.2H9.685a13.711,13.711,0,0,1,1.6-1.2Zm2.329,1.884q.565.564,1.091,1.2H19.558a3.626,3.626,0,0,0-2.273-.682,4.24,4.24,0,0,0-2.125.682h-7.3q.524-.638,1.091-1.2Zm-11.1,8.9a3.665,3.665,0,0,0-1.864.414.018.018,0,0,1-.012,0s-.006-.007,0-.01c.007-.058.017-.117.029-.176a9.294,9.294,0,0,1,1.577-3.721,6.154,6.154,0,0,1,.929-1.018c.057-.04.111-.084.167-.13a.377.377,0,0,0,.05-.514.371.371,0,0,0-.507-.079c-.012.008-.075.053-.176.138a.725.725,0,0,1-.732.156.463.463,0,0,1-.171-.507,2.724,2.724,0,0,1,.673-1.089L15,18.654a3.355,3.355,0,0,1,2.308-1.07,2.832,2.832,0,0,1,1.033.144,2.965,2.965,0,0,1,1.735,1.543,16.5,16.5,0,0,1,1.289,3.375.01.01,0,0,1,0,.011.011.011,0,0,1-.011,0,5.282,5.282,0,0,1-1.476-.817.374.374,0,1,0-.475.578,5.737,5.737,0,0,0,2.161,1.074.011.011,0,0,1,.007.009c.089.416.169.855.25,1.378,0,0,0,.008,0,.01H21.8a5.506,5.506,0,0,0-1.221-.431,6.43,6.43,0,0,1-.662-.2,7,7,0,0,1-1.485-.861.371.371,0,0,0-.523.06.377.377,0,0,0,.062.527,7.456,7.456,0,0,0,1.67.969,6.419,6.419,0,0,0,.749.229c1.011.27,1.5.492,1.515,1.026v0a.43.43,0,0,1-.14.232,1.778,1.778,0,0,1-1.2.389l-1.073,0a4.069,4.069,0,0,1-2.011-.59,5.513,5.513,0,0,0-2.454-1.029m1.961,1.611a.011.011,0,0,1-.012.008h-3.01a.8.8,0,0,1-.658-.242.635.635,0,0,1-.093-.153.011.011,0,0,1,.006-.016c1.358-.622,1.991-.739,3.762.39a.011.011,0,0,1,0,.013m1.008,2.7H31.8c.034.43.061.862.075,1.3H17.989Zm0-.687V27.625H31.571q.1.6.162,1.208Zm4.33-1.891a1.456,1.456,0,0,0,.3-.533.463.463,0,0,0,.018-.069,1.84,1.84,0,0,0,.05-.6H31.2c.1.4.179.8.256,1.2Zm.276-1.885c-.058-.382-.122-.782-.2-1.2h8.257c.033.1.067.2.1.3.094.3.183.6.265.9Zm-.341-1.886q-.127-.578-.307-1.2h7.974q.261.588.488,1.2Zm-.52-1.884c-.132-.387-.284-.789-.461-1.2h7.7c.222.39.435.792.634,1.2ZM20.969,19.4c-.075-.156-.152-.315-.234-.473a4.362,4.362,0,0,0-.466-.729h7.474q.434.581.823,1.2ZM14.4,18.2a3.708,3.708,0,0,0-.767,1.2H6.5q.392-.622.824-1.2Zm-.835,1.885a1.1,1.1,0,0,0,.758.93l.008.007s0,.008,0,.01c-.063.079-.128.165-.193.254H5.463c.2-.41.411-.812.633-1.2Zm.119,1.885a9.632,9.632,0,0,0-.6,1.2H4.66q.229-.613.487-1.2Zm-.862,1.886a11.473,11.473,0,0,0-.332,1.2H4.054c.082-.3.171-.6.266-.9.031-.1.066-.2.1-.3Zm-.44,1.884a2.43,2.43,0,0,0,.013.491.339.339,0,0,0,.008.069,1.67,1.67,0,0,0,.238.643H3.619c.077-.4.16-.806.256-1.2Zm4.7,1.886v1.208H3.337c.043-.4.1-.808.161-1.208Zm0,1.9v1.3H3.2c.012-.436.041-.868.076-1.3Zm0,2v2.785a.013.013,0,0,1,0,.009l0,0h-.09a3.567,3.567,0,0,0-2.116.84c-1.1.739-4.806,1.472-11.013,2.184a.015.015,0,0,1-.013-.009,24.935,24.935,0,0,1-.656-5.723c0-.029,0-.059,0-.087Zm4.472,6.16c-.676-.442-1.932-1.263-3.142-.934a2.146,2.146,0,0,0-.687.352c-.117.079-.239.159-.376.238a3,3,0,0,1-1.2.365c-.369.021-.6.022-.7-.123-.084-.119-.088-.175-.068-.238a.013.013,0,0,1,0-.006,2.951,2.951,0,0,1,.543-.309,5.55,5.55,0,0,0,.583-.314,5.974,5.974,0,0,0,.548-.409c.151-.124.32-.263.591-.454a2.349,2.349,0,0,1,1.41-.289l.3-.006.229-.009a5.594,5.594,0,0,1,2.154.509c.261.094.556.2.879.312h.005c.012.005,1.209.386,2.885.787a34.694,34.694,0,0,0,5.524.9h.006c0,.007,0,.01,0,.014-.092.336-.19.668-.292.99a21.47,21.47,0,0,1-1.553,3.67.012.012,0,0,1-.01.006h0a25.893,25.893,0,0,1-4.965-2.626,3.866,3.866,0,0,1-.65-.582l0,0a.1.1,0,0,0-.01-.012l0-.006c-.035-.041-.053-.064-.055-.066a9.2,9.2,0,0,0-1.946-1.758m1.272-1.929c-.318-.109-.609-.213-.863-.306a6.081,6.081,0,0,0-2.4-.547l-.137.006s0,0,0,0A5.032,5.032,0,0,0,18,34.427a.012.012,0,0,1-.01-.012V31.522h13.9c0,.028,0,.058,0,.087a24.877,24.877,0,0,1-.676,5.8.012.012,0,0,1-.011.009,40.5,40.5,0,0,1-8.378-1.667m10.121-13.39a.028.028,0,0,1,.028-.012.026.026,0,0,1,.021.019,5.213,5.213,0,0,1,.26,1.411,3.519,3.519,0,0,1-.168,1.251,2.719,2.719,0,0,1-.46.852.026.026,0,0,1-.022.01.027.027,0,0,1-.013,0A3.343,3.343,0,0,1,31.3,24.216a4.9,4.9,0,0,1-.221-.729.026.026,0,0,1,.01-.027.03.03,0,0,1,.031,0,4.709,4.709,0,0,1,.912.747.211.211,0,0,0,.224.057.214.214,0,0,0,.141-.186,3.573,3.573,0,0,1,.551-1.713m-1.556-.556a.212.212,0,0,0,.121-.2,3.557,3.557,0,0,1,.371-1.76.024.024,0,0,1,.027-.015.026.026,0,0,1,.021.017,5.312,5.312,0,0,1,.406,1.375,3.556,3.556,0,0,1-.039,1.261,2.682,2.682,0,0,1-.37.895.028.028,0,0,1-.022.011l-.012,0a3.336,3.336,0,0,1-1.46-1.532,4.916,4.916,0,0,1-.3-.7.027.027,0,0,1,.007-.029.03.03,0,0,1,.031-.005,4.625,4.625,0,0,1,.983.651.211.211,0,0,0,.23.033Zm-1.111-2.3a.209.209,0,0,0,.1-.215A3.558,3.558,0,0,1,30.54,17.5a.027.027,0,0,1,.022-.018h0a.027.027,0,0,1,.024.014,5.342,5.342,0,0,1,.566,1.323,3.533,3.533,0,0,1,.109,1.257,2.707,2.707,0,0,1-.261.93.028.028,0,0,1-.024.015l-.01,0A3.294,3.294,0,0,1,29.3,19.651a4.6,4.6,0,0,1-.366-.689.036.036,0,0,1,0-.029.026.026,0,0,1,.029-.008,3.558,3.558,0,0,1,1.076.561.212.212,0,0,0,.238.017m-1.653-2.14a.208.208,0,0,0,.244,0,.213.213,0,0,0,.077-.233,3.956,3.956,0,0,1-.111-1.77.026.026,0,0,1,.019-.023.03.03,0,0,1,.028.009,5.26,5.26,0,0,1,.753,1.194,3.6,3.6,0,0,1,.311,1.223,2.657,2.657,0,0,1-.11.957.026.026,0,0,1-.026.019h0a3.375,3.375,0,0,1-1.828-1.08,5.007,5.007,0,0,1-.51-.642.027.027,0,0,1,0-.028.026.026,0,0,1,.027-.013,2.528,2.528,0,0,1,1.131.39m-1.665-1.91a.212.212,0,0,0,.234-.055.216.216,0,0,0,.032-.239,3.564,3.564,0,0,1-.413-1.744.03.03,0,0,1,.015-.025.031.031,0,0,1,.029,0,5.267,5.267,0,0,1,.926,1.061,3.686,3.686,0,0,1,.506,1.164,2.894,2.894,0,0,1,.062.984.027.027,0,0,1-.026.024h-.037a3.225,3.225,0,0,1-1.874-.751,5.657,5.657,0,0,1-.64-.579.031.031,0,0,1-.008-.029.03.03,0,0,1,.026-.018,3.336,3.336,0,0,1,1.169.2m-.652-1.73a2.918,2.918,0,0,1,.193,1.094.025.025,0,0,1-.025.026c-.037,0-.077,0-.117,0a5.282,5.282,0,0,1-2.547-1,.027.027,0,0,1-.011-.027.029.029,0,0,1,.021-.022,3.049,3.049,0,0,1,1.139.018.212.212,0,0,0,.227-.092.215.215,0,0,0-.013-.246,4.538,4.538,0,0,1-.708-1.338.025.025,0,0,1,0-.027.03.03,0,0,1,.029-.007,2.745,2.745,0,0,1,1.808,1.613M9.286,11.174a.012.012,0,0,1-.015-.007.012.012,0,0,1,0-.014,4.379,4.379,0,0,1,.578-.249,12.221,12.221,0,0,1,1.311-.373,3.46,3.46,0,0,0,1-.4.077.077,0,0,0,.034-.081.078.078,0,0,0-.064-.06L9.08,9.545a.011.011,0,0,1-.01-.011.013.013,0,0,1,.01-.012l3.058-.451a.078.078,0,0,0,0-.154,5.063,5.063,0,0,1-1.18-.361c-.177-.08-.324-.16-.467-.238a3.4,3.4,0,0,0-1.2-.448.012.012,0,0,1-.011-.012.013.013,0,0,1,.011-.011,4.571,4.571,0,0,1,.628-.008A12.332,12.332,0,0,1,11.271,8a3.508,3.508,0,0,0,1.079.019.08.08,0,0,0,.063-.063.082.082,0,0,0-.036-.081L9.719,6.293a.012.012,0,0,1,0-.013.013.013,0,0,1,.015-.007l3,.755a.078.078,0,0,0,.058-.142,5.035,5.035,0,0,1-.953-.789c-.132-.141-.238-.272-.339-.4a3.4,3.4,0,0,0-.94-.878.011.011,0,0,1-.005-.014.012.012,0,0,1,.015-.006,4.564,4.564,0,0,1,.582.234,12.807,12.807,0,0,1,1.19.67,3.391,3.391,0,0,0,.987.434A.076.076,0,0,0,13.4,6.1a.078.078,0,0,0,0-.089l-1.852-2.48a.012.012,0,0,1,0-.015.014.014,0,0,1,.015,0l2.485,1.846a.076.076,0,0,0,.1-.007.077.077,0,0,0,.007-.1,5.147,5.147,0,0,1-.58-1.1c-.068-.18-.114-.342-.161-.5a3.437,3.437,0,0,0-.535-1.172.015.015,0,0,1,0-.015.012.012,0,0,1,.014,0,4.412,4.412,0,0,1,.449.441,12.49,12.49,0,0,1,.843,1.077,3.433,3.433,0,0,0,.747.781.074.074,0,0,0,.088,0,.077.077,0,0,0,.032-.082l-.768-3a.01.01,0,0,1,.006-.013c.006,0,.011,0,.015,0l1.594,2.658a.076.076,0,0,0,.1.032.079.079,0,0,0,.046-.09,5.225,5.225,0,0,1-.119-1.236c.007-.191.024-.36.042-.522a3.447,3.447,0,0,0-.046-1.289.013.013,0,0,1,.007-.013.012.012,0,0,1,.014.006,4.36,4.36,0,0,1,.245.579,11.842,11.842,0,0,1,.367,1.32,3.464,3.464,0,0,0,.393,1.008.077.077,0,0,0,.082.035.081.081,0,0,0,.061-.064l.428-3.055a.011.011,0,0,1,.012-.01.012.012,0,0,1,.011.01l.443,3.055a.08.08,0,0,0,.078.066.078.078,0,0,0,.076-.066A5.088,5.088,0,0,1,18.5,2.92c.079-.176.159-.325.237-.467a3.474,3.474,0,0,0,.444-1.211.012.012,0,0,1,.012-.01.012.012,0,0,1,.012.01,4.611,4.611,0,0,1,.007.631,12.413,12.413,0,0,1-.159,1.361,3.562,3.562,0,0,0-.019,1.083.078.078,0,0,0,.063.063.076.076,0,0,0,.081-.035l1.579-2.662a.011.011,0,0,1,.015-.005.013.013,0,0,1,.006.014l-.753,3a.079.079,0,0,0,.045.092.077.077,0,0,0,.095-.032,5.182,5.182,0,0,1,.785-.958c.14-.132.271-.238.4-.341a3.446,3.446,0,0,0,.874-.945.01.01,0,0,1,.013-.006.011.011,0,0,1,.007.014,4.431,4.431,0,0,1-.233.586,12.739,12.739,0,0,1-.666,1.2,3.492,3.492,0,0,0-.431.993.077.077,0,0,0,.122.079L23.5,3.518a.013.013,0,0,1,.016,0,.012.012,0,0,1,0,.016L21.682,6.022a.079.079,0,0,0,.007.1.076.076,0,0,0,.1.008,4.985,4.985,0,0,1,1.091-.583c.178-.068.341-.116.5-.163a3.415,3.415,0,0,0,1.165-.536.014.014,0,0,1,.018,0,.016.016,0,0,1,0,.015,4.714,4.714,0,0,1-.439.451,12.448,12.448,0,0,1-1.072.847,3.468,3.468,0,0,0-.778.751.079.079,0,0,0,0,.089.076.076,0,0,0,.082.032l2.989-.765a.009.009,0,0,1,.012.006.01.01,0,0,1,0,.014L22.7,7.886a.078.078,0,0,0-.032.1.075.075,0,0,0,.09.046,5.158,5.158,0,0,1,1.23-.119c.193.007.36.025.521.042A3.41,3.41,0,0,0,25.8,7.9a.012.012,0,0,1,.013.008c0,.005,0,.011-.007.014a4.328,4.328,0,0,1-.575.247,12.247,12.247,0,0,1-1.314.371,3.481,3.481,0,0,0-1,.394.082.082,0,0,0-.035.082.079.079,0,0,0,.065.06l3.052.44a.012.012,0,0,1,.01.011.012.012,0,0,1-.01.012L22.936,10a.077.077,0,0,0-.065.076.078.078,0,0,0,.065.078,5.051,5.051,0,0,1,1.182.364c.174.08.321.16.464.239a3.394,3.394,0,0,0,1.2.451.014.014,0,0,1,.01.012.011.011,0,0,1-.01.011c-.121.01-.242.015-.36.015-.09,0-.179,0-.269-.008a12.355,12.355,0,0,1-1.354-.165c-.026-.005-.052-.008-.077-.013h0a3.6,3.6,0,0,0-1.465-.318h-.021s-.006,0-.007,0a.012.012,0,0,1-.005-.009.168.168,0,0,0,0-.059.227.227,0,0,0-.147-.165,6.567,6.567,0,0,0-1.605-.359c-.026,0-.051,0-.075-.006h-.01l-.037,0-.081,0h-.04l-.118,0h-.031a3.853,3.853,0,0,0-.667.055H19.4c0-.006-.007-.008-.007-.012v-.008a.207.207,0,0,0-.015-.1.049.049,0,0,0-.007-.017.224.224,0,0,0-.173-.125l-.144-.019-.034,0h-.015l-.1-.011-.055-.005-.086-.007a5.8,5.8,0,0,0-1.573.073c-.131.026-.258.058-.38.094l-.026.009c-.021.006-.041.011-.062.019l-.024.007c-.029.009-.056.02-.082.029h0c-.061.021-.121.045-.178.069a.021.021,0,0,1-.012,0,.012.012,0,0,1,0-.011v0h0c0-.01,0-.017,0-.022v0a.225.225,0,0,0-.057-.188h0a.064.064,0,0,0-.016-.016l0,0a.226.226,0,0,0-.163-.053,6.2,6.2,0,0,0-1.95.454,3.947,3.947,0,0,0-.52.274.012.012,0,0,1-.013,0,.011.011,0,0,1-.005-.011.623.623,0,0,0,.008-.065h0l0,0a.229.229,0,0,0-.084-.191h0l-.019-.014,0,0-.017-.01-.006,0a.23.23,0,0,0-.156-.013,6.055,6.055,0,0,0-1.856.831c-.01.007-.019.014-.032.022l-.012.011,0,0c-.151.008-.3.012-.436.008-.116,0-.491-.038-.522-.041a3.386,3.386,0,0,0-1.28.05m1.162.6a.027.027,0,0,1,.029,0,.025.025,0,0,1,.014.025,3.555,3.555,0,0,1-.58,1.7.213.213,0,0,0,0,.234.209.209,0,0,0,.215.089,4.7,4.7,0,0,1,1.148-.07.03.03,0,0,1,.024.019.028.028,0,0,1-.01.03A4.352,4.352,0,0,1,8.78,14.85l-.111,0a.029.029,0,0,1-.027-.025,3.6,3.6,0,0,1,1.806-3.043M6.829,15.633a3.576,3.576,0,0,1,.5-1.159,5.323,5.323,0,0,1,.956-1.081.025.025,0,0,1,.028,0,.028.028,0,0,1,.017.023,3.555,3.555,0,0,1-.413,1.748.211.211,0,0,0,.255.3,4.49,4.49,0,0,1,1.115-.2.029.029,0,0,1,.026.018.027.027,0,0,1,0,.03,7,7,0,0,1-.657.58,3.181,3.181,0,0,1-1.763.759l-.077,0a.028.028,0,0,1-.025-.023,2.709,2.709,0,0,1,.042-.981m-.58-.312h0a.028.028,0,0,1,.028-.009.031.031,0,0,1,.02.021,3.535,3.535,0,0,1-.13,1.792.211.211,0,0,0,.074.235.206.206,0,0,0,.245,0A2.6,2.6,0,0,1,7.6,16.976a.026.026,0,0,1,.024.013.026.026,0,0,1,0,.03,4.013,4.013,0,0,1-2.317,1.723h0a.026.026,0,0,1-.025-.018,3.561,3.561,0,0,1,.973-3.4m-2.32,3.49a5.289,5.289,0,0,1,.619-1.3.027.027,0,0,1,.025-.012.024.024,0,0,1,.022.019,3.537,3.537,0,0,1,.088,1.8.212.212,0,0,0,.107.226.205.205,0,0,0,.247-.035,2.153,2.153,0,0,1,1.09-.535.026.026,0,0,1,.024.011.024.024,0,0,1,0,.028,4.947,4.947,0,0,1-.436.731,3.24,3.24,0,0,1-1.7,1.276h0A.028.028,0,0,1,3.991,21a2.683,2.683,0,0,1-.225-.942,3.513,3.513,0,0,1,.162-1.251M2.677,21.219a5.279,5.279,0,0,1,.418-1.375.029.029,0,0,1,.024-.015.027.027,0,0,1,.025.014A3.542,3.542,0,0,1,3.5,21.608a.213.213,0,0,0,.119.2.209.209,0,0,0,.229-.031,4.764,4.764,0,0,1,1.044-.664.032.032,0,0,1,.029,0,.037.037,0,0,1,.01.029,3.533,3.533,0,0,1-.242.655A3.426,3.426,0,0,1,3.1,23.383l-.013,0a.026.026,0,0,1-.022-.012A2.706,2.706,0,0,1,2.7,22.48a3.558,3.558,0,0,1-.028-1.261M1.758,23.76A5.3,5.3,0,0,1,2,22.344a.029.029,0,0,1,.022-.019.026.026,0,0,1,.027.013,3.548,3.548,0,0,1,.574,1.7.212.212,0,0,0,.146.185.209.209,0,0,0,.225-.066,4.055,4.055,0,0,1,.952-.791.024.024,0,0,1,.027,0,.022.022,0,0,1,.012.025,3.448,3.448,0,0,1-.152.7,3.206,3.206,0,0,1-1.38,1.762.026.026,0,0,1-.014,0,.029.029,0,0,1-.021-.01,2.746,2.746,0,0,1-.472-.846,3.546,3.546,0,0,1-.186-1.248m-.524,1.2a.026.026,0,0,1,.02-.022.027.027,0,0,1,.027.008,3.581,3.581,0,0,1,.779,1.621.214.214,0,0,0,.164.165.212.212,0,0,0,.215-.087,4.578,4.578,0,0,1,.824-.882.027.027,0,0,1,.043.022,4.131,4.131,0,0,1-.1.7,3.534,3.534,0,0,1-1.1,1.9.033.033,0,0,1-.018.007.033.033,0,0,1-.018-.007,2.7,2.7,0,0,1-.568-.776,3.548,3.548,0,0,1-.337-1.217,5.162,5.162,0,0,1,.065-1.431M.84,27.583A.033.033,0,0,1,.86,27.56a.028.028,0,0,1,.028.008,3.581,3.581,0,0,1,.856,1.583.21.21,0,0,0,.394.038,3.3,3.3,0,0,1,.7-.917.023.023,0,0,1,.028-.005.028.028,0,0,1,.017.025,5.081,5.081,0,0,1-.065.788,3.207,3.207,0,0,1-.928,1.888.032.032,0,0,1-.02.007.027.027,0,0,1-.017-.006,2.712,2.712,0,0,1-.609-.754,3.586,3.586,0,0,1-.4-1.2,5.369,5.369,0,0,1,0-1.434M.623,30.339a.032.032,0,0,1,.018-.024.026.026,0,0,1,.027.005c.058.052.114.109.168.167a3.651,3.651,0,0,1,.787,1.362.21.21,0,0,0,.2.147.041.041,0,0,0,.014,0,.209.209,0,0,0,.192-.174,1.959,1.959,0,0,1,.572-1,.026.026,0,0,1,.026-.005.023.023,0,0,1,.017.022,4.119,4.119,0,0,1,0,1.3,2.674,2.674,0,0,1-.768,1.517.027.027,0,0,1-.018.007.033.033,0,0,1-.016,0A3.564,3.564,0,0,1,.623,30.339M.523,33a.032.032,0,0,1,.029,0c.061.046.123.1.183.148a3.7,3.7,0,0,1,.926,1.274.209.209,0,0,0,.191.125l0,.012v-.012a.21.21,0,0,0,.192-.13,4.559,4.559,0,0,1,.635-1.057.025.025,0,0,1,.027-.009.025.025,0,0,1,.019.021A3.451,3.451,0,0,1,2.1,36.191a.026.026,0,0,1-.021.011.036.036,0,0,1-.014,0A3.593,3.593,0,0,1,.508,33.027.03.03,0,0,1,.523,33m.132,2.8a.027.027,0,0,1,.039-.03,3.593,3.593,0,0,1,1.34,1.21.212.212,0,0,0,.214.089.205.205,0,0,0,.165-.162h0a4.628,4.628,0,0,1,.454-1.171.032.032,0,0,1,.025-.013.025.025,0,0,1,.023.016,3.215,3.215,0,0,1,.241.712,3,3,0,0,1-.372,2.2.026.026,0,0,1-.023.013H2.752a2.7,2.7,0,0,1-.835-.512,3.55,3.55,0,0,1-.776-1A5.3,5.3,0,0,1,.655,35.8m.627,2.583a.026.026,0,0,1,.01-.028.024.024,0,0,1,.028,0c.071.03.143.063.213.1a3.657,3.657,0,0,1,1.212,1.01.211.211,0,0,0,.375-.1A4.7,4.7,0,0,1,3.462,38.2a.029.029,0,0,1,.024-.014.025.025,0,0,1,.024.016,3.5,3.5,0,0,1,.1,2.862.026.026,0,0,1-.024.015H3.582a3.6,3.6,0,0,1-2.3-2.7m1.552,3.828a5.262,5.262,0,0,1-.73-1.233.023.023,0,0,1,.005-.028.025.025,0,0,1,.026-.008c.072.021.147.045.223.073a3.7,3.7,0,0,1,1.321.866.212.212,0,0,0,.361-.145,4.659,4.659,0,0,1,.2-1.171.026.026,0,0,1,.023-.018.027.027,0,0,1,.027.014,4.738,4.738,0,0,1,.32.687,3.286,3.286,0,0,1,.117,2.127.028.028,0,0,1-.027.019h0a2.753,2.753,0,0,1-.91-.347,3.613,3.613,0,0,1-.953-.837m.377,1.223a.026.026,0,0,1,0-.028.025.025,0,0,1,.027-.012,3.613,3.613,0,0,1,1.644.754.205.205,0,0,0,.232.019.209.209,0,0,0,.107-.209A4.075,4.075,0,0,1,5.279,42.8a.031.031,0,0,1,.021-.021.026.026,0,0,1,.028.011,5.161,5.161,0,0,1,.392.667A3.474,3.474,0,0,1,6.1,45.51a.03.03,0,0,1-.028.022,2.688,2.688,0,0,1-.943-.238,3.589,3.589,0,0,1-1.047-.721,5.312,5.312,0,0,1-.87-1.141m2.361,3.351a5.3,5.3,0,0,1-.986-1.043.033.033,0,0,1,0-.029A.024.024,0,0,1,4.61,45.7a3.613,3.613,0,0,1,1.714.58.206.206,0,0,0,.237-.007.211.211,0,0,0,.08-.223A3.633,3.633,0,0,1,6.567,44.9a.025.025,0,0,1,.019-.023.025.025,0,0,1,.028.009,4.086,4.086,0,0,1,1.061,2.624.028.028,0,0,1-.025.025l-.106,0a2.783,2.783,0,0,1-.857-.141,3.634,3.634,0,0,1-1.116-.61m3.847,2.511a.025.025,0,0,1-.021.025,1.973,1.973,0,0,1-.349.028,2.736,2.736,0,0,1-.531-.054,4.84,4.84,0,0,1-2.278-1.311.03.03,0,0,1-.007-.029.025.025,0,0,1,.023-.018,3.6,3.6,0,0,1,1.794.24A.21.21,0,0,0,8.32,47.9a4.4,4.4,0,0,1-.273-1.135.028.028,0,0,1,.015-.026.027.027,0,0,1,.03,0,3.316,3.316,0,0,1,1.327,2.553m5.048,2.245a13.845,13.845,0,0,1-1.76-.61,15.12,15.12,0,0,1-2.847-1.6.012.012,0,0,1-.005-.01A2.945,2.945,0,0,0,9.7,48.248a.011.011,0,0,1,0-.013.012.012,0,0,1,.015,0,13.809,13.809,0,0,0,1.98,1.411,12.347,12.347,0,0,0,2.43,1.036v0l.2.063a1.332,1.332,0,0,0,.212.815Zm1.387-.654a1.125,1.125,0,0,0,.06.9.032.032,0,0,1,0,.038.033.033,0,0,1-.025.011.026.026,0,0,1-.011,0,1.771,1.771,0,0,1-.812-.5.785.785,0,0,1-.176-.613.5.5,0,0,1,.232-.39,1.977,1.977,0,0,1,1.2-.15.033.033,0,0,1,.029.024.036.036,0,0,1-.012.038,1.387,1.387,0,0,0-.483.643M17.54,53.56a.728.728,0,1,1,.725-.728.727.727,0,0,1-.725.728m.889-1.688a.033.033,0,0,1-.047,0,1.268,1.268,0,0,0-1.693.006.032.032,0,0,1-.022.008.028.028,0,0,1-.025-.011.819.819,0,0,1-.274-.8c.241-.65,1.14-.656,1.166-.656h0a1.872,1.872,0,0,1,.506.085.958.958,0,0,1,.658.571.82.82,0,0,1-.271.8m1.581-.54a1.781,1.781,0,0,1-.813.5h-.011a.036.036,0,0,1-.025-.011.035.035,0,0,1-.006-.037,1.121,1.121,0,0,0,.061-.9,1.39,1.39,0,0,0-.482-.643.037.037,0,0,1-.013-.038.035.035,0,0,1,.03-.024,2.089,2.089,0,0,1,1.2.15.5.5,0,0,1,.23.39.789.789,0,0,1-.174.613m5.219-2.013a.015.015,0,0,1,0,.01,12.41,12.41,0,0,1-2.107,1.3,13.644,13.644,0,0,1-2.448.922l-.162.036a1.314,1.314,0,0,0,.227-.833l.243-.075h0a12.414,12.414,0,0,0,2.393-1.026,14.1,14.1,0,0,0,2-1.428.01.01,0,0,1,.014,0,.011.011,0,0,1,0,.013,2.894,2.894,0,0,0-.162,1.088m-2.135-.111a11.866,11.866,0,0,1-2.41,1.027l-.077.022a1.024,1.024,0,0,0-.354-.389c-.78-.512-2.27-.14-2.709-.014a.026.026,0,0,1-.018,0c-.44-.126-1.928-.5-2.709.014a1.028,1.028,0,0,0-.355.388l-.128-.038a11.87,11.87,0,0,1-2.357-1.01A14.867,14.867,0,0,1,7.41,45.133,18.987,18.987,0,0,1,6.132,43.2a.006.006,0,0,1,0-.009.007.007,0,0,1,0-.006c.908-.4,3.238-1.455,5.247-2.493a.011.011,0,0,1,.011,0,.011.011,0,0,1,0,.008.965.965,0,0,0,.072.256,1.151,1.151,0,0,0,.932.584,2.916,2.916,0,0,0,.321.029.013.013,0,0,1,.011.008,1.211,1.211,0,0,0,.806.681,2.409,2.409,0,0,0,.438.092.015.015,0,0,1,.01.006.912.912,0,0,0,.341.432,1.787,1.787,0,0,0,1.233.177.015.015,0,0,1,.012,0,1.111,1.111,0,0,0,.649.4,1.557,1.557,0,0,0,.839-.093.009.009,0,0,1,.01,0,.016.016,0,0,1,0,.006v3.543a.455.455,0,1,0,.911,0v-3.7l.01-.006a1.96,1.96,0,0,0,1.111-.088,1.9,1.9,0,0,0,.477-.278.016.016,0,0,1,.01,0,1.263,1.263,0,0,0,1.168-.357,1.5,1.5,0,0,0,.244-.329.013.013,0,0,1,.011,0h.094a1.413,1.413,0,0,0,1.111-.473,1.53,1.53,0,0,0,.23-.363.01.01,0,0,1,.01-.006,1.36,1.36,0,0,0,.924-.362,1.17,1.17,0,0,0,.253-.356s0-.006.007-.006a.01.01,0,0,1,.009,0,25.391,25.391,0,0,0,5.2,2.807.021.021,0,0,1,.006.008.02.02,0,0,1,0,.007,18.918,18.918,0,0,1-1.212,1.818,14.829,14.829,0,0,1-4.565,4.075m5.749-1.225a4.8,4.8,0,0,1-2.278,1.311,2.75,2.75,0,0,1-.529.054,2.018,2.018,0,0,1-.351-.028.025.025,0,0,1-.022-.025,2.819,2.819,0,0,1,.771-1.983A4.725,4.725,0,0,1,27,46.755a.027.027,0,0,1,.03,0,.028.028,0,0,1,.014.026,4.88,4.88,0,0,1-.285,1.119.21.21,0,0,0,.27.278,3.64,3.64,0,0,1,1.793-.24.026.026,0,0,1,.022.019.025.025,0,0,1-.006.028m1.678-2.241a5.309,5.309,0,0,1-.984,1.042,3.607,3.607,0,0,1-1.116.61,2.778,2.778,0,0,1-.857.141l-.106,0a.027.027,0,0,1-.025-.025,3.335,3.335,0,0,1,.587-2.023,5.452,5.452,0,0,1,.463-.614.024.024,0,0,1,.028-.008.027.027,0,0,1,.02.023,4.648,4.648,0,0,1-.063,1.17.21.21,0,0,0,.319.22A3.643,3.643,0,0,1,30.5,45.7a.026.026,0,0,1,.026.013.028.028,0,0,1,0,.029M31.9,43.434a5.3,5.3,0,0,1-.87,1.138,3.593,3.593,0,0,1-1.045.721,2.724,2.724,0,0,1-.944.238.028.028,0,0,1-.028-.022,3.3,3.3,0,0,1,.372-2.072,4.94,4.94,0,0,1,.393-.659.027.027,0,0,1,.029-.01.025.025,0,0,1,.019.021,4.681,4.681,0,0,1,.062,1.171.213.213,0,0,0,.109.206.21.21,0,0,0,.231-.021,3.618,3.618,0,0,1,1.643-.752.026.026,0,0,1,.027.04M33,40.906a5.315,5.315,0,0,1-.746,1.267,3.56,3.56,0,0,1-.954.837,2.681,2.681,0,0,1-.907.346h0a.026.026,0,0,1-.026-.019,3.363,3.363,0,0,1,.123-2.132,4.66,4.66,0,0,1,.307-.668.025.025,0,0,1,.025-.014.028.028,0,0,1,.023.018,5.2,5.2,0,0,1,.207,1.161.21.21,0,0,0,.366.134,3.222,3.222,0,0,1,1.317-.9,2.451,2.451,0,0,1,.238-.068.029.029,0,0,1,.026.008.031.031,0,0,1,0,.029m.8-2.539v0a5.353,5.353,0,0,1-.6,1.3,3.663,3.663,0,0,1-.864.927,2.721,2.721,0,0,1-.873.433h0a.028.028,0,0,1-.027-.016,3.557,3.557,0,0,1-.091-2.144,5.266,5.266,0,0,1,.238-.746A.028.028,0,0,1,31.6,38.1a.03.03,0,0,1,.026.016,5.181,5.181,0,0,1,.323,1.193.211.211,0,0,0,.151.176.206.206,0,0,0,.22-.069,3.6,3.6,0,0,1,1.444-1.086.025.025,0,0,1,.028.005.023.023,0,0,1,.008.027m.086-1.318a3.616,3.616,0,0,1-.742,1.027,2.714,2.714,0,0,1-.809.535l-.008,0A.029.029,0,0,1,32.3,38.6a3.481,3.481,0,0,1-.365-2.156,4.847,4.847,0,0,1,.152-.756.027.027,0,0,1,.022-.02.028.028,0,0,1,.026.013,5.211,5.211,0,0,1,.468,1.169.21.21,0,0,0,.383.062,3.583,3.583,0,0,1,1.3-1.254.033.033,0,0,1,.029,0,.029.029,0,0,1,.009.027,5.245,5.245,0,0,1-.438,1.362M34.28,34.4a3.516,3.516,0,0,1-.623,1.1,2.712,2.712,0,0,1-.744.621.032.032,0,0,1-.014,0,.027.027,0,0,1-.021-.011,3.278,3.278,0,0,1-.6-2.055,4.493,4.493,0,0,1,.081-.771.032.032,0,0,1,.021-.022.027.027,0,0,1,.027.01,3.863,3.863,0,0,1,.575,1.061.212.212,0,0,0,.186.143h.016a.21.21,0,0,0,.187-.12,3.586,3.586,0,0,1,1.149-1.387.027.027,0,0,1,.028,0l0,0a.028.028,0,0,1,.013.025,5.291,5.291,0,0,1-.282,1.4" transform="translate(0)" fill="#fff"/>
    <path id="Trazado_30" data-name="Trazado 30" d="M210.535,45.194l2.394,5.225h1.321l2.393-5.349v6.594h1.474V42.936h-1.9l-2.595,5.885-2.654-5.885h-1.9v8.728h1.474Z" transform="translate(-163.82 -33.644)" fill="#fff"/>
    <path id="Trazado_31" data-name="Trazado 31" d="M257.868,42.137a1.358,1.358,0,0,0,1.468,0,.781.781,0,0,0,.245-.622.794.794,0,0,0-.245-.626,1.346,1.346,0,0,0-1.468,0,.794.794,0,0,0-.244.626.781.781,0,0,0,.244.622" transform="translate(-201.873 -31.87)" fill="#fff"/>
    <rect id="Rectángulo_15" data-name="Rectángulo 15" width="1.551" height="6.434" transform="translate(55.951 11.585)" fill="#fff"/>
    <path id="Trazado_32" data-name="Trazado 32" d="M274.343,55.059a1.568,1.568,0,0,1,.631-.487,1.916,1.916,0,0,1,.767-.163,1.065,1.065,0,0,1,.79.275,1.274,1.274,0,0,1,.271.917v4h1.546V55.513a2.563,2.563,0,0,0-.578-1.855,2.112,2.112,0,0,0-1.574-.586,2.828,2.828,0,0,0-1.064.2,2.464,2.464,0,0,0-.864.578h-.082l-.106-.678H272.8v6.434h1.546Z" transform="translate(-213.763 -41.587)" fill="#fff"/>
    <rect id="Rectángulo_16" data-name="Rectángulo 16" width="1.551" height="6.434" transform="translate(66.064 11.585)" fill="#fff"/>
    <path id="Trazado_33" data-name="Trazado 33" d="M304.6,42.137a1.358,1.358,0,0,0,1.468,0,.782.782,0,0,0,.245-.622.794.794,0,0,0-.245-.626,1.346,1.346,0,0,0-1.468,0,.8.8,0,0,0-.245.626.783.783,0,0,0,.245.622" transform="translate(-238.491 -31.87)" fill="#fff"/>
    <path id="Trazado_34" data-name="Trazado 34" d="M319.628,56.876l.98.183a1.11,1.11,0,0,1,.566.248.646.646,0,0,1,.165.477.66.66,0,0,1-.315.593,1.887,1.887,0,0,1-1,.2,6.7,6.7,0,0,1-1.946-.283v1.155a6.564,6.564,0,0,0,1.963.271,4.092,4.092,0,0,0,1.489-.241,2.006,2.006,0,0,0,.934-.69,1.793,1.793,0,0,0,.319-1.067,1.67,1.67,0,0,0-.417-1.217,2.44,2.44,0,0,0-1.3-.6l-.979-.183a1.07,1.07,0,0,1-.552-.251.623.623,0,0,1-.162-.451q0-.8,1.456-.8a6.113,6.113,0,0,1,1.6.206v-1.15a6.4,6.4,0,0,0-1.646-.2,4.452,4.452,0,0,0-1.592.248,2.022,2.022,0,0,0-.958.693,1.764,1.764,0,0,0-.315,1.047,1.7,1.7,0,0,0,.407,1.194,2.325,2.325,0,0,0,1.3.622" transform="translate(-249.125 -41.588)" fill="#fff"/>
    <path id="Trazado_35" data-name="Trazado 35" d="M343.121,49.475a2.029,2.029,0,0,0,2.287,2.305,4.931,4.931,0,0,0,1.114-.129V50.413a3.963,3.963,0,0,1-.713.082,1.5,1.5,0,0,1-.655-.121.765.765,0,0,1-.369-.4,1.915,1.915,0,0,1-.12-.749V46.462h1.8V45.23h-1.8V42.936h-1.275l-.27,2.294h-1.109v1.232h1.109Z" transform="translate(-267.999 -33.644)" fill="#fff"/>
    <path id="Trazado_36" data-name="Trazado 36" d="M366.97,59.376a4.448,4.448,0,0,0,1.891.348,7.583,7.583,0,0,0,1.828-.229V58.321a6.825,6.825,0,0,1-1.616.224,3.293,3.293,0,0,1-1.15-.165,1.188,1.188,0,0,1-.637-.534,2.256,2.256,0,0,1-.237-.993h3.981v-.419a3.939,3.939,0,0,0-.684-2.515,2.421,2.421,0,0,0-2-.846,2.982,2.982,0,0,0-1.539.375,2.394,2.394,0,0,0-.973,1.117,4.426,4.426,0,0,0-.336,1.822,4.281,4.281,0,0,0,.366,1.908,2.286,2.286,0,0,0,1.1,1.082m.416-4.871a1.121,1.121,0,0,1,.949-.425,1.07,1.07,0,0,1,.923.425,2.562,2.562,0,0,1,.327,1.421h-2.542a2.457,2.457,0,0,1,.342-1.421" transform="translate(-286.404 -41.588)" fill="#fff"/>
    <path id="Trazado_37" data-name="Trazado 37" d="M397.92,55.309a1.621,1.621,0,0,1,.7-.537,2.31,2.31,0,0,1,.905-.189,3.5,3.5,0,0,1,.6.042v-1.4a3.158,3.158,0,0,0-.513-.042,2.251,2.251,0,0,0-1.017.23,1.812,1.812,0,0,0-.745.684h-.083l-.119-.838h-1.273v6.434h1.545Z" transform="translate(-310.598 -41.672)" fill="#fff"/>
    <path id="Trazado_38" data-name="Trazado 38" d="M417.194,42.137a1.358,1.358,0,0,0,1.468,0,.784.784,0,0,0,.244-.622.8.8,0,0,0-.244-.626,1.346,1.346,0,0,0-1.468,0,.8.8,0,0,0-.244.626.783.783,0,0,0,.244.622" transform="translate(-326.721 -31.87)" fill="#fff"/>
    <rect id="Rectángulo_17" data-name="Rectángulo 17" width="1.551" height="6.434" transform="translate(90.43 11.585)" fill="#fff"/>
    <path id="Trazado_39" data-name="Trazado 39" d="M436.7,56.4a3.525,3.525,0,0,0-.781-2.495,3.367,3.367,0,0,0-4.429,0,3.536,3.536,0,0,0-.782,2.5,3.481,3.481,0,0,0,.794,2.489,2.9,2.9,0,0,0,2.2.831,3.3,3.3,0,0,0,1.6-.365,2.44,2.44,0,0,0,1.034-1.109A4.21,4.21,0,0,0,436.7,56.4m-1.919,1.651a1.261,1.261,0,0,1-1.076.484,1.431,1.431,0,0,1-.788-.2,1.278,1.278,0,0,1-.483-.675,3.879,3.879,0,0,1-.168-1.269,2.808,2.808,0,0,1,.362-1.639,1.438,1.438,0,0,1,2.153,0,2.861,2.861,0,0,1,.362,1.66,2.809,2.809,0,0,1-.362,1.639" transform="translate(-337.5 -41.588)" fill="#fff"/>
    <path id="Trazado_40" data-name="Trazado 40" d="M477.489,48.539a2.666,2.666,0,0,0,1.33.33,2.285,2.285,0,0,0,1-.212,2.058,2.058,0,0,0,.731-.578h.082l.094.678h1.3v-9.53h-1.546v3.055a6.3,6.3,0,0,0-.861-.064,3.418,3.418,0,0,0-2.539.878,3.512,3.512,0,0,0-.87,2.577,4.2,4.2,0,0,0,.345,1.819,2.3,2.3,0,0,0,.932,1.047m.738-4.62a1.787,1.787,0,0,1,1.394-.5,3.948,3.948,0,0,1,.861.088v3.521a1.377,1.377,0,0,1-.548.427,1.694,1.694,0,0,1-.69.145,1.338,1.338,0,0,1-1.09-.463,2.515,2.515,0,0,1-.384-1.584,2.385,2.385,0,0,1,.457-1.63" transform="translate(-373.158 -30.739)" fill="#fff"/>
    <path id="Trazado_41" data-name="Trazado 41" d="M510.222,59.376a4.442,4.442,0,0,0,1.89.348,7.581,7.581,0,0,0,1.828-.229V58.321a6.823,6.823,0,0,1-1.615.224,3.3,3.3,0,0,1-1.15-.165,1.187,1.187,0,0,1-.637-.534,2.253,2.253,0,0,1-.236-.993h3.98v-.419a3.939,3.939,0,0,0-.684-2.515,2.421,2.421,0,0,0-2-.846,2.982,2.982,0,0,0-1.54.375,2.4,2.4,0,0,0-.973,1.117,4.423,4.423,0,0,0-.336,1.822,4.281,4.281,0,0,0,.366,1.908,2.287,2.287,0,0,0,1.106,1.082m.416-4.871a1.12,1.12,0,0,1,.949-.425,1.069,1.069,0,0,1,.923.425,2.561,2.561,0,0,1,.327,1.421h-2.542a2.46,2.46,0,0,1,.343-1.421" transform="translate(-398.655 -41.588)" fill="#fff"/>
    <path id="Trazado_42" data-name="Trazado 42" d="M208.161,112.812h1.574V105.4h2.808v-1.315h-7.189V105.4h2.807Z" transform="translate(-160.915 -81.56)" fill="#fff"/>
    <path id="Trazado_43" data-name="Trazado 43" d="M244.251,114.684h-1.545v4.552a1.557,1.557,0,0,1-.622.49,1.837,1.837,0,0,1-.746.165,1.019,1.019,0,0,1-.763-.274,1.282,1.282,0,0,1-.269-.917v-4.016h-1.545v4.11a2.544,2.544,0,0,0,.581,1.849,2.127,2.127,0,0,0,1.584.587,2.636,2.636,0,0,0,1.015-.2,2.578,2.578,0,0,0,.855-.582h.07l.106.667h1.279Z" transform="translate(-187.092 -89.866)" fill="#fff"/>
    <path id="Trazado_44" data-name="Trazado 44" d="M275,115.774v-1.4a3.275,3.275,0,0,0-.513-.042,2.255,2.255,0,0,0-1.017.23,1.812,1.812,0,0,0-.746.684h-.083l-.118-.837h-1.273v6.433h1.545v-4.381a1.625,1.625,0,0,1,.7-.537,2.3,2.3,0,0,1,.905-.189,3.52,3.52,0,0,1,.6.041" transform="translate(-212.547 -89.588)" fill="#fff"/>
    <rect id="Rectángulo_18" data-name="Rectángulo 18" width="1.551" height="6.433" transform="translate(63.351 24.818)" fill="#fff"/>
    <path id="Trazado_45" data-name="Trazado 45" d="M292.064,102.039a.8.8,0,0,0-.244.625.784.784,0,0,0,.244.622,1.36,1.36,0,0,0,1.469,0,.784.784,0,0,0,.244-.622.8.8,0,0,0-.244-.625,1.347,1.347,0,0,0-1.469,0" transform="translate(-228.669 -79.787)" fill="#fff"/>
    <path id="Trazado_46" data-name="Trazado 46" d="M309.832,117.656a2.448,2.448,0,0,0-1.3-.6l-.979-.183a1.071,1.071,0,0,1-.551-.251.621.621,0,0,1-.162-.451q0-.8,1.456-.8a6.129,6.129,0,0,1,1.6.206v-1.15a6.4,6.4,0,0,0-1.645-.2,4.453,4.453,0,0,0-1.592.248,2.021,2.021,0,0,0-.958.693,1.759,1.759,0,0,0-.316,1.047,1.7,1.7,0,0,0,.407,1.194,2.331,2.331,0,0,0,1.3.622l.979.183a1.112,1.112,0,0,1,.566.247.648.648,0,0,1,.165.477.662.662,0,0,1-.315.593,1.89,1.89,0,0,1-1,.2,6.7,6.7,0,0,1-1.946-.283V120.6a6.564,6.564,0,0,0,1.963.271,4.1,4.1,0,0,0,1.489-.241,2.016,2.016,0,0,0,.934-.69,1.8,1.8,0,0,0,.319-1.068,1.675,1.675,0,0,0-.416-1.217" transform="translate(-239.302 -89.503)" fill="#fff"/>
    <path id="Trazado_47" data-name="Trazado 47" d="M341.877,120.755v-4.092a2.628,2.628,0,0,0-.555-1.855,1.983,1.983,0,0,0-1.515-.586,2.673,2.673,0,0,0-1.036.209,2.567,2.567,0,0,0-.91.652,1.587,1.587,0,0,0-.673-.652,2.119,2.119,0,0,0-.961-.209,2.538,2.538,0,0,0-1.011.2,2.269,2.269,0,0,0-.812.587h-.082l-.106-.684h-1.28v6.433h1.545v-4.529a1.45,1.45,0,0,1,.56-.5,1.525,1.525,0,0,1,.69-.168.892.892,0,0,1,.7.271,1.375,1.375,0,0,1,.241.915v4.01h1.515v-4.134a4.059,4.059,0,0,0-.023-.483,1.434,1.434,0,0,1,.548-.436,1.581,1.581,0,0,1,.649-.142.934.934,0,0,1,.716.275,1.311,1.311,0,0,1,.257.911v4.01Z" transform="translate(-260.889 -89.504)" fill="#fff"/>
    <path id="Trazado_48" data-name="Trazado 48" d="M385.658,117.546a3.523,3.523,0,0,0-.781-2.494,3.366,3.366,0,0,0-4.429,0,3.535,3.535,0,0,0-.782,2.5,3.481,3.481,0,0,0,.794,2.489,2.9,2.9,0,0,0,2.2.831,3.3,3.3,0,0,0,1.6-.365A2.438,2.438,0,0,0,385.3,119.4a4.206,4.206,0,0,0,.362-1.852m-1.919,1.651a1.261,1.261,0,0,1-1.076.484,1.425,1.425,0,0,1-.787-.2,1.277,1.277,0,0,1-.483-.675,3.878,3.878,0,0,1-.168-1.269,2.807,2.807,0,0,1,.362-1.639,1.437,1.437,0,0,1,2.153,0,2.864,2.864,0,0,1,.362,1.66,2.811,2.811,0,0,1-.362,1.639" transform="translate(-297.505 -89.503)" fill="#fff"/>
    <path id="Trazado_49" data-name="Trazado 49" d="M426.491,119.779l-1.7-5.1h-1.627l2.33,6.433h.43l-.95,2.595h1.517l3.272-9.028H428.23Z" transform="translate(-331.586 -89.866)" fill="#fff"/>
    <path id="Trazado_50" data-name="Trazado 50" d="M478.03,110.636a5.16,5.16,0,0,0,.548-2.532,4.411,4.411,0,0,0-1.164-3.362,4.91,4.91,0,0,0-3.482-1.1,12.217,12.217,0,0,0-1.32.074,12.792,12.792,0,0,0-1.274.2v8.5a19.3,19.3,0,0,0,2.27.136,7.159,7.159,0,0,0,2.775-.466,3.29,3.29,0,0,0,1.649-1.448m-1.392-.716a2.071,2.071,0,0,1-.976,1.017,3.768,3.768,0,0,1-1.665.321,9.389,9.389,0,0,1-1.086-.053v-6.174a7.04,7.04,0,0,1,1.115-.1,3.62,3.62,0,0,1,1.642.328,2.1,2.1,0,0,1,.97,1.025,5.264,5.264,0,0,1,0,3.636" transform="translate(-369.338 -81.216)" fill="#fff"/>
    <path id="Trazado_51" data-name="Trazado 51" d="M512.254,114.221a2.986,2.986,0,0,0-1.539.375,2.4,2.4,0,0,0-.974,1.117,4.433,4.433,0,0,0-.336,1.822,4.283,4.283,0,0,0,.366,1.907,2.281,2.281,0,0,0,1.106,1.082,4.442,4.442,0,0,0,1.89.348,7.558,7.558,0,0,0,1.828-.23v-1.173a6.822,6.822,0,0,1-1.617.224,3.29,3.29,0,0,1-1.149-.165,1.188,1.188,0,0,1-.638-.534,2.252,2.252,0,0,1-.235-.993h3.98v-.419a3.935,3.935,0,0,0-.684-2.514,2.42,2.42,0,0,0-2-.846m-1.3,2.854a2.465,2.465,0,0,1,.343-1.421,1.121,1.121,0,0,1,.95-.424,1.068,1.068,0,0,1,.922.424,2.561,2.561,0,0,1,.327,1.421Z" transform="translate(-399.168 -89.503)" fill="#fff"/>
    <path id="Trazado_52" data-name="Trazado 52" d="M544.822,114.551a2.641,2.641,0,0,0-1.327-.33,2.3,2.3,0,0,0-1,.212,2.025,2.025,0,0,0-.734.578h-.078l-.1-.69h-1.3v9.028h1.545v-2.536a7.917,7.917,0,0,0,.861.058,3.416,3.416,0,0,0,2.541-.878,3.521,3.521,0,0,0,.868-2.577,4.194,4.194,0,0,0-.345-1.822,2.3,2.3,0,0,0-.929-1.044m-.74,4.62a1.789,1.789,0,0,1-1.395.5,4.388,4.388,0,0,1-.861-.083v-3.527a1.367,1.367,0,0,1,.548-.427,1.7,1.7,0,0,1,.69-.145,1.339,1.339,0,0,1,1.09.461,2.508,2.508,0,0,1,.384,1.586,2.4,2.4,0,0,1-.457,1.631" transform="translate(-423.363 -89.503)" fill="#fff"/>
    <path id="Trazado_53" data-name="Trazado 53" d="M574.722,114.221a2.891,2.891,0,0,0-2.214.831,3.533,3.533,0,0,0-.782,2.5,3.48,3.48,0,0,0,.793,2.489,2.9,2.9,0,0,0,2.2.831,3.3,3.3,0,0,0,1.6-.365,2.442,2.442,0,0,0,1.035-1.109,4.218,4.218,0,0,0,.362-1.852,3.524,3.524,0,0,0-.781-2.494,2.894,2.894,0,0,0-2.215-.831M575.8,119.2a1.26,1.26,0,0,1-1.076.484,1.426,1.426,0,0,1-.787-.2,1.281,1.281,0,0,1-.483-.675,3.873,3.873,0,0,1-.169-1.269,2.806,2.806,0,0,1,.363-1.639,1.436,1.436,0,0,1,2.152,0,2.861,2.861,0,0,1,.363,1.66,2.809,2.809,0,0,1-.363,1.639" transform="translate(-448.003 -89.503)" fill="#fff"/>
    <path id="Trazado_54" data-name="Trazado 54" d="M607.3,114.559a1.812,1.812,0,0,0-.746.684h-.083l-.118-.837h-1.274v6.433h1.545v-4.381a1.625,1.625,0,0,1,.7-.537,2.309,2.309,0,0,1,.905-.188,3.529,3.529,0,0,1,.6.041v-1.4a3.279,3.279,0,0,0-.513-.041,2.254,2.254,0,0,0-1.017.23" transform="translate(-474.137 -89.588)" fill="#fff"/>
    <path id="Trazado_55" data-name="Trazado 55" d="M627.08,111.524a.755.755,0,0,1-.368-.4,1.907,1.907,0,0,1-.122-.749v-2.765h1.8v-1.232h-1.8v-2.294h-1.273l-.271,2.294h-1.109v1.232h1.109v3.013a2.03,2.03,0,0,0,2.288,2.305,4.914,4.914,0,0,0,1.114-.129v-1.238a3.966,3.966,0,0,1-.714.082,1.5,1.5,0,0,1-.655-.121" transform="translate(-488.915 -81.561)" fill="#fff"/>
    <path id="Trazado_56" data-name="Trazado 56" d="M650.273,114.221a2.983,2.983,0,0,0-1.539.375,2.4,2.4,0,0,0-.973,1.117,4.417,4.417,0,0,0-.337,1.822,4.284,4.284,0,0,0,.366,1.907,2.283,2.283,0,0,0,1.106,1.082,4.44,4.44,0,0,0,1.89.348,7.554,7.554,0,0,0,1.828-.23v-1.173a6.818,6.818,0,0,1-1.616.224,3.3,3.3,0,0,1-1.149-.165,1.187,1.187,0,0,1-.637-.534,2.252,2.252,0,0,1-.236-.993h3.98v-.419a3.94,3.94,0,0,0-.683-2.514,2.422,2.422,0,0,0-2-.846m-1.3,2.854a2.46,2.46,0,0,1,.342-1.421,1.121,1.121,0,0,1,.95-.424,1.066,1.066,0,0,1,.922.424,2.557,2.557,0,0,1,.328,1.421Z" transform="translate(-507.319 -89.503)" fill="#fff"/>
    <path id="Trazado_57" data-name="Trazado 57" d="M681.137,117.656a2.445,2.445,0,0,0-1.3-.6l-.978-.183a1.071,1.071,0,0,1-.552-.251.624.624,0,0,1-.162-.451q0-.8,1.456-.8a6.122,6.122,0,0,1,1.6.206v-1.15a6.4,6.4,0,0,0-1.645-.2,4.455,4.455,0,0,0-1.593.248,2.023,2.023,0,0,0-.958.693,1.757,1.757,0,0,0-.315,1.047,1.7,1.7,0,0,0,.406,1.194,2.331,2.331,0,0,0,1.3.622l.979.183a1.115,1.115,0,0,1,.566.247.649.649,0,0,1,.165.477.662.662,0,0,1-.316.593,1.889,1.889,0,0,1-1,.2,6.7,6.7,0,0,1-1.945-.283V120.6a6.56,6.56,0,0,0,1.963.271,4.109,4.109,0,0,0,1.49-.241,2.01,2.01,0,0,0,.934-.69,1.792,1.792,0,0,0,.319-1.068,1.673,1.673,0,0,0-.416-1.217" transform="translate(-530.256 -89.503)" fill="#fff"/>
    <path id="Trazado_58" data-name="Trazado 58" d="M211.3,171.888a.248.248,0,0,0-.235-.169h-2.63a.247.247,0,0,0-.234.169l-3.685,10.95a.247.247,0,0,0,.234.325h1.5a.245.245,0,0,0,.233-.17l.965-2.954a.248.248,0,0,1,.235-.17H211.8a.247.247,0,0,1,.234.17l.964,2.954a.247.247,0,0,0,.234.17h1.52a.247.247,0,0,0,.234-.325Zm-.2,6.327h-2.715a.246.246,0,0,1-.234-.323l1.354-4.157a.246.246,0,0,1,.467,0l1.362,4.157a.247.247,0,0,1-.235.323" transform="translate(-160.247 -134.558)" fill="#fff"/>
    <path id="Trazado_59" data-name="Trazado 59" d="M263.462,185.182a3.949,3.949,0,0,0-.455-.025,2.949,2.949,0,0,0-1.334.3,2.39,2.39,0,0,0-.978.9h-.108l-.125-.886a.246.246,0,0,0-.244-.212h-1.21a.246.246,0,0,0-.246.246v7.943a.247.247,0,0,0,.246.246h1.533a.247.247,0,0,0,.246-.246v-5.411a.249.249,0,0,1,.054-.158,2.153,2.153,0,0,1,.863-.634,3.018,3.018,0,0,1,1.187-.248c.2,0,.371.006.521.02a.244.244,0,0,0,.267-.245V185.43a.248.248,0,0,0-.218-.247" transform="translate(-202.765 -145.088)" fill="#fff"/>
    <path id="Trazado_60" data-name="Trazado 60" d="M291.506,185.4a8.994,8.994,0,0,0-1.273-.27,11.142,11.142,0,0,0-1.57-.116,4.741,4.741,0,0,0-3.449,1.152,4.532,4.532,0,0,0-1.16,3.371,5.365,5.365,0,0,0,.441,2.316,3.047,3.047,0,0,0,1.176,1.362,3.149,3.149,0,0,0,1.639.436,3.094,3.094,0,0,0,1.279-.255,2.721,2.721,0,0,0,.962-.711h.1v.665a2.737,2.737,0,0,1-.259,1.283,1.519,1.519,0,0,1-.8.707,3.787,3.787,0,0,1-1.408.221,9.051,9.051,0,0,1-2.249-.3.247.247,0,0,0-.31.237v1.1a.248.248,0,0,0,.183.241,8.985,8.985,0,0,0,1.143.217,11.092,11.092,0,0,0,1.38.089,5.992,5.992,0,0,0,2.436-.429,2.909,2.909,0,0,0,1.434-1.345,5.162,5.162,0,0,0,.476-2.379v-7.347a.247.247,0,0,0-.173-.238m-1.853,5.807a.252.252,0,0,1-.068.175,1.835,1.835,0,0,1-.655.436,2.411,2.411,0,0,1-.893.17,1.784,1.784,0,0,1-1.438-.592,3.179,3.179,0,0,1-.5-2.037,3.106,3.106,0,0,1,.6-2.119,2.3,2.3,0,0,1,1.8-.665,5.266,5.266,0,0,1,.959.091.25.25,0,0,1,.2.246Z" transform="translate(-222.585 -144.975)" fill="#fff"/>
    <path id="Trazado_61" data-name="Trazado 61" d="M330.455,185.012a3.919,3.919,0,0,0-2.019.491,3.144,3.144,0,0,0-1.275,1.465,5.767,5.767,0,0,0-.441,2.389,5.629,5.629,0,0,0,.478,2.5,3.012,3.012,0,0,0,1.451,1.42,5.829,5.829,0,0,0,2.478.456,9.845,9.845,0,0,0,2.2-.256.249.249,0,0,0,.192-.243V192.2a.247.247,0,0,0-.3-.239,8.452,8.452,0,0,1-1.815.223,4.287,4.287,0,0,1-1.507-.217,1.556,1.556,0,0,1-.835-.7,2.665,2.665,0,0,1-.289-1.024.25.25,0,0,1,.244-.279h4.707a.246.246,0,0,0,.246-.247v-.3a5.155,5.155,0,0,0-.9-3.3,3.17,3.17,0,0,0-2.62-1.11m1.367,3.743H329a.249.249,0,0,1-.247-.258,2.944,2.944,0,0,1,.44-1.606,1.472,1.472,0,0,1,1.245-.557,1.4,1.4,0,0,1,1.21.557,3.032,3.032,0,0,1,.42,1.606.248.248,0,0,1-.247.258" transform="translate(-256.017 -144.975)" fill="#fff"/>
    <path id="Trazado_62" data-name="Trazado 62" d="M371.653,185.012a3.711,3.711,0,0,0-1.4.263,3.245,3.245,0,0,0-1.132.757h-.108l-.107-.68a.248.248,0,0,0-.244-.209h-1.22a.247.247,0,0,0-.247.246v7.943a.247.247,0,0,0,.247.246h1.532a.247.247,0,0,0,.247-.246V187.71a.253.253,0,0,1,.058-.163,2.067,2.067,0,0,1,.77-.566,2.52,2.52,0,0,1,1-.213,1.4,1.4,0,0,1,1.037.36,1.678,1.678,0,0,1,.355,1.2v5a.247.247,0,0,0,.246.246h1.533a.247.247,0,0,0,.246-.246v-5.119a3.354,3.354,0,0,0-.758-2.432,2.764,2.764,0,0,0-2.063-.769" transform="translate(-287.736 -144.975)" fill="#fff"/>
    <path id="Trazado_63" data-name="Trazado 63" d="M411.316,181.576a4.334,4.334,0,0,1-.655.059,1.984,1.984,0,0,1-.858-.158,1.006,1.006,0,0,1-.484-.522,2.517,2.517,0,0,1-.158-.983v-3.38a.247.247,0,0,1,.246-.246h1.865a.246.246,0,0,0,.247-.246v-1.123a.246.246,0,0,0-.247-.246h-1.865a.246.246,0,0,1-.246-.245v-2.516a.247.247,0,0,0-.247-.246h-1.2a.247.247,0,0,0-.245.217l-.3,2.573a.246.246,0,0,1-.245.217h-.989a.246.246,0,0,0-.246.246V176.1a.246.246,0,0,0,.246.246h.961a.247.247,0,0,1,.247.246V180.3q0,3.024,3,3.024a6.444,6.444,0,0,0,1.263-.127.249.249,0,0,0,.2-.244v-1.13a.245.245,0,0,0-.28-.244" transform="translate(-317.889 -134.561)" fill="#fff"/>
    <path id="Trazado_64" data-name="Trazado 64" d="M441.378,185.62h-1.541a.246.246,0,0,0-.246.246v7.943a.246.246,0,0,0,.246.246h1.541a.246.246,0,0,0,.247-.246v-7.943a.247.247,0,0,0-.247-.246" transform="translate(-344.462 -145.451)" fill="#fff"/>
    <path id="Trazado_65" data-name="Trazado 65" d="M439.658,168.755a1.406,1.406,0,0,0-.962.286,1.042,1.042,0,0,0-.321.82,1.03,1.03,0,0,0,.321.815,1.783,1.783,0,0,0,1.926,0,1.03,1.03,0,0,0,.321-.815,1.042,1.042,0,0,0-.321-.82,1.411,1.411,0,0,0-.963-.286" transform="translate(-343.509 -132.236)" fill="#fff"/>
    <path id="Trazado_66" data-name="Trazado 66" d="M461.109,185.012a3.708,3.708,0,0,0-1.4.263,3.247,3.247,0,0,0-1.133.757h-.108l-.107-.68a.247.247,0,0,0-.244-.209H456.9a.246.246,0,0,0-.246.246v7.943a.247.247,0,0,0,.246.246h1.533a.247.247,0,0,0,.247-.246V187.71a.25.25,0,0,1,.058-.163,2.066,2.066,0,0,1,.769-.566,2.518,2.518,0,0,1,1.005-.213,1.4,1.4,0,0,1,1.036.36,1.67,1.67,0,0,1,.356,1.2v5a.246.246,0,0,0,.247.246h1.533a.246.246,0,0,0,.247-.246v-5.119a3.36,3.36,0,0,0-.757-2.432,2.769,2.769,0,0,0-2.065-.769" transform="translate(-357.833 -144.975)" fill="#fff"/>
    <path id="Trazado_67" data-name="Trazado 67" d="M502.537,185.333a5.646,5.646,0,0,0-2.081-.321,10.172,10.172,0,0,0-1.34.094,7.925,7.925,0,0,0-1.1.218.246.246,0,0,0-.177.239v1.04a.247.247,0,0,0,.315.235,7.463,7.463,0,0,1,.845-.175,7.694,7.694,0,0,1,1.122-.089,3.611,3.611,0,0,1,1.171.155,1.14,1.14,0,0,1,.642.522,2.076,2.076,0,0,1,.2,1.009v.332l-1.578.147a4.692,4.692,0,0,0-2.544.781,2.193,2.193,0,0,0-.8,1.817,2.409,2.409,0,0,0,.322,1.264,2.117,2.117,0,0,0,.923.831,3.235,3.235,0,0,0,1.43.294,3.32,3.32,0,0,0,1.327-.259,2.4,2.4,0,0,0,.979-.762h.107l.107.666a.247.247,0,0,0,.243.208h1.222a.248.248,0,0,0,.247-.247v-4.95a4.29,4.29,0,0,0-.39-1.995,2.251,2.251,0,0,0-1.188-1.055m-.4,6.142a.254.254,0,0,1-.07.176,2.006,2.006,0,0,1-.684.466,2.314,2.314,0,0,1-.87.171,1.4,1.4,0,0,1-.963-.294,1.082,1.082,0,0,1-.328-.85,1.053,1.053,0,0,1,.367-.855,2.137,2.137,0,0,1,1.164-.383l1.116-.1a.247.247,0,0,1,.268.246Z" transform="translate(-389.611 -144.975)" fill="#fff"/>
  </g>
</svg>
