<svg xmlns="http://www.w3.org/2000/svg" width="165.206" height="56" viewBox="0 0 165.206 56">
  <g id="Artwork_13" data-name="Artwork 13" transform="translate(1698.073 -982.452)">
    <g id="Grupo_49" data-name="Grupo 49" transform="translate(-1698.073 982.452)">
      <g id="Grupo_46" data-name="Grupo 46" transform="translate(0 0)">
        <g id="Grupo_44" data-name="Grupo 44">
          <path id="Trazado_137" data-name="Trazado 137" d="M179.082,148.823l-.326,3.485a2.826,2.826,0,0,0,.084.995l4.27-1.144a3.423,3.423,0,0,1-.1-1.206l.4-4.225a3.42,3.42,0,0,0-.444-2.032l-4.243,2.45a2.822,2.822,0,0,1,.366,1.677m-3.2-8.981-1.77-3.857a3.422,3.422,0,0,0-1.4-1.537l-2.45,4.243a2.823,2.823,0,0,1,1.156,1.268l1.46,3.182a2.835,2.835,0,0,0,.57.819l3.126-3.125a3.44,3.44,0,0,1-.691-.993M165.248,134.3a3.415,3.415,0,0,1-1.095-.515l-3.462-2.455a3.419,3.419,0,0,0-1.981-.631v4.9a2.822,2.822,0,0,1,1.635.521l2.856,2.025a2.822,2.822,0,0,0,.9.425Zm16.563,24.4a2.821,2.821,0,0,1-.521,1.635l-2.026,2.856a2.822,2.822,0,0,0-.425.9l4.27,1.144a3.421,3.421,0,0,1,.514-1.1l2.455-3.461a3.421,3.421,0,0,0,.631-1.981Zm-43.472,9.874.326-3.486a2.834,2.834,0,0,0-.084-.995l-4.27,1.144a3.422,3.422,0,0,1,.1,1.206l-.4,4.225a3.42,3.42,0,0,0,.444,2.032l4.244-2.45a2.821,2.821,0,0,1-.367-1.676m-2.208-11.509,2.025-2.856a2.825,2.825,0,0,0,.425-.9l-4.27-1.144a3.413,3.413,0,0,1-.515,1.095l-2.455,3.462a3.419,3.419,0,0,0-.631,1.981h4.9a2.823,2.823,0,0,1,.521-1.635m17.186-18.494-1.144-4.27a3.425,3.425,0,0,1-1.205.1l-4.225-.4a3.422,3.422,0,0,0-2.032.444l2.45,4.243a2.822,2.822,0,0,1,1.676-.366l3.486.326a2.818,2.818,0,0,0,.994-.084M177.447,171.4l-3.182,1.46a2.831,2.831,0,0,0-.819.57l3.126,3.126a3.419,3.419,0,0,1,.993-.691l3.857-1.77a3.42,3.42,0,0,0,1.538-1.4l-4.243-2.45a2.821,2.821,0,0,1-1.268,1.155m-33.473-27.441-3.126-3.125a3.436,3.436,0,0,1-.993.691L136,143.3a3.418,3.418,0,0,0-1.537,1.4l4.244,2.45a2.821,2.821,0,0,1,1.268-1.155l3.182-1.46a2.825,2.825,0,0,0,.819-.57m24.61,35.107-3.486-.326a2.824,2.824,0,0,0-.994.084l1.144,4.27a3.422,3.422,0,0,1,1.205-.1l4.225.4a3.422,3.422,0,0,0,2.032-.444l-2.45-4.243a2.825,2.825,0,0,1-1.676.366M146,177.434l-1.461-3.182a2.822,2.822,0,0,0-.57-.819l-3.126,3.126a3.422,3.422,0,0,1,.691.993l1.77,3.857a3.421,3.421,0,0,0,1.4,1.537l2.45-4.243A2.821,2.821,0,0,1,146,177.434m8.215,1.817a2.831,2.831,0,0,0-.9-.424l-1.144,4.27a3.424,3.424,0,0,1,1.095.515l3.462,2.455a3.421,3.421,0,0,0,1.981.631v-4.9a2.822,2.822,0,0,1-1.635-.521Z" transform="translate(-130.71 -130.697)" fill="#2e0098"/>
          <path id="Trazado_138" data-name="Trazado 138" d="M138.705,147.148l-4.244-2.45a3.421,3.421,0,0,0-.444,2.032l.4,4.225a3.426,3.426,0,0,1-.1,1.206l4.27,1.144a2.826,2.826,0,0,0,.084-.995l-.326-3.485a2.823,2.823,0,0,1,.367-1.677m2.144-6.311,3.126,3.125a2.823,2.823,0,0,0,.57-.819l1.46-3.182a2.825,2.825,0,0,1,1.156-1.268l-2.45-4.243a3.421,3.421,0,0,0-1.4,1.538l-1.77,3.857a3.431,3.431,0,0,1-.691.993m12.468-2.268a2.822,2.822,0,0,0,.9-.424l2.856-2.025a2.822,2.822,0,0,1,1.635-.521v-4.9a3.42,3.42,0,0,0-1.981.631l-3.461,2.455a3.418,3.418,0,0,1-1.1.514ZM130.71,158.7a3.421,3.421,0,0,0,.631,1.982l2.455,3.461a3.429,3.429,0,0,1,.515,1.1l4.27-1.144a2.83,2.83,0,0,0-.424-.9l-2.026-2.856a2.821,2.821,0,0,1-.521-1.635Zm48.005,11.55,4.243,2.45a3.421,3.421,0,0,0,.444-2.032l-.4-4.225a3.418,3.418,0,0,1,.1-1.205l-4.27-1.144a2.828,2.828,0,0,0-.084.994l.326,3.486a2.821,2.821,0,0,1-.366,1.676m3.095-11.55h4.9a3.421,3.421,0,0,0-.631-1.981l-2.455-3.461a3.42,3.42,0,0,1-.515-1.094l-4.27,1.144a2.82,2.82,0,0,0,.424.9l2.026,2.856a2.825,2.825,0,0,1,.52,1.635M165.1,138.652l3.486-.326a2.824,2.824,0,0,1,1.676.366l2.45-4.243a3.423,3.423,0,0,0-2.031-.444l-4.226.4a3.421,3.421,0,0,1-1.205-.1l-1.144,4.27a2.816,2.816,0,0,0,.994.084m-26.393,31.6-4.244,2.45A3.424,3.424,0,0,0,136,174.1l3.857,1.77a3.427,3.427,0,0,1,.993.691l3.126-3.126a2.834,2.834,0,0,0-.819-.57l-3.182-1.46a2.819,2.819,0,0,1-1.268-1.155m35.56-25.716,3.182,1.46a2.824,2.824,0,0,1,1.268,1.155l4.243-2.45a3.42,3.42,0,0,0-1.537-1.4l-3.857-1.77a3.419,3.419,0,0,1-.993-.691l-3.126,3.125a2.822,2.822,0,0,0,.819.57M147.16,178.7l-2.45,4.243a3.421,3.421,0,0,0,2.032.444l4.225-.4a3.427,3.427,0,0,1,1.205.1l1.144-4.27a2.829,2.829,0,0,0-.995-.084l-3.486.326a2.823,2.823,0,0,1-1.676-.366m23.1,0,2.45,4.243a3.417,3.417,0,0,0,1.4-1.538l1.77-3.856a3.416,3.416,0,0,1,.691-.993l-3.126-3.126a2.822,2.822,0,0,0-.57.82l-1.46,3.182a2.825,2.825,0,0,1-1.155,1.269m-9.915,2.574a2.822,2.822,0,0,1-1.635.521v4.9a3.42,3.42,0,0,0,1.981-.631l3.462-2.455a3.434,3.434,0,0,1,1.095-.515l-1.144-4.27a2.822,2.822,0,0,0-.9.424Z" transform="translate(-130.71 -130.698)" fill="#2e0098"/>
          <path id="Trazado_139" data-name="Trazado 139" d="M242.945,223.853l-1.6-2.25a2.225,2.225,0,0,1-.4-1.5l.257-2.746a2.226,2.226,0,0,0-1.288-2.231l-2.507-1.151a2.229,2.229,0,0,1-1.095-1.095l-1.15-2.507a2.226,2.226,0,0,0-2.231-1.288l-2.747.257a2.223,2.223,0,0,1-1.495-.4l-2.25-1.6a2.226,2.226,0,0,0-2.576,0l-2.25,1.6a2.224,2.224,0,0,1-1.5.4l-2.747-.257a2.226,2.226,0,0,0-2.231,1.288l-1.151,2.507a2.225,2.225,0,0,1-1.094,1.095l-2.507,1.151a2.226,2.226,0,0,0-1.288,2.231l.257,2.746a2.227,2.227,0,0,1-.4,1.5l-1.6,2.25a2.226,2.226,0,0,0,0,2.576l1.6,2.25a2.227,2.227,0,0,1,.4,1.5l-.257,2.746a2.226,2.226,0,0,0,1.288,2.231L212.9,236.3a2.226,2.226,0,0,1,1.094,1.095l1.151,2.507a2.226,2.226,0,0,0,2.231,1.288l2.746-.257a2.227,2.227,0,0,1,1.5.4l2.25,1.6a2.225,2.225,0,0,0,2.576,0l2.25-1.6a2.227,2.227,0,0,1,1.5-.4l2.747.257a2.226,2.226,0,0,0,2.231-1.288l1.15-2.507a2.228,2.228,0,0,1,1.095-1.095l2.507-1.151a2.226,2.226,0,0,0,1.288-2.23l-.257-2.747a2.226,2.226,0,0,1,.4-1.5l1.6-2.25a2.228,2.228,0,0,0,0-2.576m-4.447,2.254-1.2,1.687a1.669,1.669,0,0,0-.3,1.121l.193,2.06a1.67,1.67,0,0,1-.966,1.673l-1.88.863a1.668,1.668,0,0,0-.821.821l-.863,1.88a1.669,1.669,0,0,1-1.673.966l-2.06-.193a1.669,1.669,0,0,0-1.122.3l-1.687,1.2a1.67,1.67,0,0,1-1.932,0l-1.688-1.2a1.668,1.668,0,0,0-1.121-.3l-2.06.193a1.67,1.67,0,0,1-1.673-.966l-.863-1.88a1.668,1.668,0,0,0-.821-.821l-1.88-.863a1.67,1.67,0,0,1-.966-1.673l.193-2.06a1.668,1.668,0,0,0-.3-1.121l-1.2-1.687a1.67,1.67,0,0,1,0-1.932l1.2-1.687a1.669,1.669,0,0,0,.3-1.121l-.193-2.06a1.67,1.67,0,0,1,.966-1.673l1.88-.863a1.67,1.67,0,0,0,.821-.821l.863-1.88a1.669,1.669,0,0,1,1.673-.966l2.06.193a1.67,1.67,0,0,0,1.121-.3l1.688-1.2a1.67,1.67,0,0,1,1.932,0l1.687,1.2a1.671,1.671,0,0,0,1.121.3l2.06-.193a1.668,1.668,0,0,1,1.673.966l.863,1.88a1.67,1.67,0,0,0,.821.821l1.88.863a1.67,1.67,0,0,1,.966,1.673l-.193,2.06a1.67,1.67,0,0,0,.3,1.121l1.2,1.687a1.67,1.67,0,0,1,0,1.932" transform="translate(-197.155 -197.141)" fill="#2e0098"/>
        </g>
        <g id="Grupo_45" data-name="Grupo 45" transform="translate(64.402 18.223)">
          <path id="Trazado_140" data-name="Trazado 140" d="M631.77,300.041l5.466-16.784h3.49l5.466,16.784h-3.131l-1.309-4.543h-5.646l-1.309,4.543Zm5.62-8.931-.59,2.053h4.286l-.59-2.053q-.411-1.335-.783-2.746t-.732-2.8h-.1q-.36,1.412-.719,2.81t-.77,2.733" transform="translate(-631.77 -281.871)" fill="#2e0098"/>
          <path id="Trazado_141" data-name="Trazado 141" d="M753.166,326.316v-12.6H755.6l.205,2.233h.1a5.286,5.286,0,0,1,1.617-1.887,3.555,3.555,0,0,1,3.387-.4l-.513,2.566a5.6,5.6,0,0,0-.616-.154,4,4,0,0,0-.693-.051,2.747,2.747,0,0,0-1.565.577,4.458,4.458,0,0,0-1.411,2.014v7.7Z" transform="translate(-737.563 -308.146)" fill="#2e0098"/>
          <path id="Trazado_142" data-name="Trazado 142" d="M819.3,331.885a10.031,10.031,0,0,1-2.092-.205,5.491,5.491,0,0,1-1.655-.615,3.232,3.232,0,0,1-1.091-1.027,2.686,2.686,0,0,1,.064-2.913,4.319,4.319,0,0,1,1.334-1.219v-.1a2.555,2.555,0,0,1-.808-.821,2.38,2.38,0,0,1-.321-1.283,2.293,2.293,0,0,1,.423-1.348,4.076,4.076,0,0,1,.962-.988v-.1a4.5,4.5,0,0,1-1.142-1.347,3.884,3.884,0,0,1-.5-1.989,4.351,4.351,0,0,1,.411-1.924,4.3,4.3,0,0,1,1.091-1.425,4.653,4.653,0,0,1,1.578-.872,6.048,6.048,0,0,1,1.9-.295,5.3,5.3,0,0,1,.988.09,6.667,6.667,0,0,1,.86.218h4.517V315.9h-2.31a2.993,2.993,0,0,1,.513.911,3.477,3.477,0,0,1,.206,1.219,4.314,4.314,0,0,1-.372,1.848,3.849,3.849,0,0,1-1.014,1.335,4.467,4.467,0,0,1-1.514.821,6.048,6.048,0,0,1-1.873.282,4.87,4.87,0,0,1-.847-.077,4.2,4.2,0,0,1-.873-.257,2.68,2.68,0,0,0-.449.513,1.254,1.254,0,0,0-.167.693.972.972,0,0,0,.449.847,3,3,0,0,0,1.6.308H821.4a6.579,6.579,0,0,1,3.451.731,2.588,2.588,0,0,1,1.168,2.374,3.434,3.434,0,0,1-.475,1.745A4.314,4.314,0,0,1,824.2,330.6a7.2,7.2,0,0,1-2.117.937,10.377,10.377,0,0,1-2.784.346m.462-1.924a4.52,4.52,0,0,0,2.477-.6,1.709,1.709,0,0,0,.937-1.424.988.988,0,0,0-.577-1,4.211,4.211,0,0,0-1.655-.257h-1.72a6.984,6.984,0,0,1-1.719-.18,2.1,2.1,0,0,0-.975,1.668,1.458,1.458,0,0,0,.86,1.322,4.944,4.944,0,0,0,2.374.475m-.308-9.5a2.079,2.079,0,0,0,1.54-.655,2.585,2.585,0,0,0,.641-1.886A2.54,2.54,0,0,0,821,316.09a2.068,2.068,0,0,0-1.553-.655,2.132,2.132,0,0,0-1.566.642,2.5,2.5,0,0,0-.641,1.848,2.582,2.582,0,0,0,.641,1.886,2.108,2.108,0,0,0,1.566.655" transform="translate(-790.631 -308.147)" fill="#2e0098"/>
          <path id="Trazado_143" data-name="Trazado 143" d="M916.11,326.624a6.543,6.543,0,0,1-2.438-.449,5.773,5.773,0,0,1-1.976-1.3,5.912,5.912,0,0,1-1.322-2.066,7.63,7.63,0,0,1-.475-2.785,7.475,7.475,0,0,1,.488-2.772,6.358,6.358,0,0,1,1.3-2.079,5.738,5.738,0,0,1,1.861-1.309,5.307,5.307,0,0,1,2.156-.462,5.478,5.478,0,0,1,2.258.436,4.413,4.413,0,0,1,1.63,1.232,5.417,5.417,0,0,1,.988,1.9,8.309,8.309,0,0,1,.333,2.412q0,.437-.038.822a5.471,5.471,0,0,1-.09.616h-8.007a4.064,4.064,0,0,0,1.193,2.6,3.581,3.581,0,0,0,2.528.911,4.639,4.639,0,0,0,1.527-.244,6.757,6.757,0,0,0,1.4-.68l1,1.848a9.064,9.064,0,0,1-2,.975,6.961,6.961,0,0,1-2.31.385m-3.362-7.8h5.595a3.74,3.74,0,0,0-.628-2.3,2.272,2.272,0,0,0-1.938-.834,2.8,2.8,0,0,0-1.976.8,3.772,3.772,0,0,0-1.052,2.335" transform="translate(-874.15 -308.147)" fill="#2e0098"/>
          <path id="Trazado_144" data-name="Trazado 144" d="M1012.524,326.316v-12.6h2.438l.205,1.694h.1A10,10,0,0,1,1017.1,314a4.392,4.392,0,0,1,2.3-.59,3.375,3.375,0,0,1,2.952,1.3,6.334,6.334,0,0,1,.924,3.708v7.9h-2.951V318.8a3.922,3.922,0,0,0-.462-2.207,1.738,1.738,0,0,0-1.514-.642,2.653,2.653,0,0,0-1.45.4,9.226,9.226,0,0,0-1.424,1.167v8.8Z" transform="translate(-963.585 -308.146)" fill="#2e0098"/>
          <path id="Trazado_145" data-name="Trazado 145" d="M1114.56,305.4a4.6,4.6,0,0,1-1.86-.334,3.148,3.148,0,0,1-1.232-.936,3.865,3.865,0,0,1-.693-1.438,7.332,7.332,0,0,1-.218-1.86v-6.005h-1.8v-2.207l1.951-.128.359-3.439h2.464v3.439h3.208v2.335h-3.208v6.005q0,2.208,1.771,2.207a3.123,3.123,0,0,0,.68-.077,3.207,3.207,0,0,0,.629-.205l.513,2.181a9.74,9.74,0,0,1-1.168.321,6.651,6.651,0,0,1-1.4.141" transform="translate(-1047.451 -286.918)" fill="#2e0098"/>
          <path id="Trazado_146" data-name="Trazado 146" d="M1185.654,275.838a1.882,1.882,0,0,1-1.309-.462,1.545,1.545,0,0,1-.514-1.207,1.585,1.585,0,0,1,.514-1.219,2.041,2.041,0,0,1,2.618,0,1.587,1.587,0,0,1,.513,1.219,1.546,1.546,0,0,1-.513,1.207,1.884,1.884,0,0,1-1.309.462m-1.489,2.207h2.951v12.6h-2.951Z" transform="translate(-1112.874 -272.476)" fill="#2e0098"/>
          <path id="Trazado_147" data-name="Trazado 147" d="M1233.748,326.316v-12.6h2.438l.205,1.694h.1a9.989,9.989,0,0,1,1.835-1.412,4.39,4.39,0,0,1,2.3-.59,3.374,3.374,0,0,1,2.951,1.3,6.331,6.331,0,0,1,.924,3.708v7.9h-2.951V318.8a3.922,3.922,0,0,0-.462-2.207,1.738,1.738,0,0,0-1.514-.642,2.652,2.652,0,0,0-1.45.4,9.226,9.226,0,0,0-1.424,1.167v8.8Z" transform="translate(-1156.375 -308.146)" fill="#2e0098"/>
          <path id="Trazado_148" data-name="Trazado 148" d="M1339.1,326.625a3.667,3.667,0,0,1-2.694-1.014,3.6,3.6,0,0,1-1.026-2.682,3.689,3.689,0,0,1,.423-1.784,3.648,3.648,0,0,1,1.334-1.347,8.87,8.87,0,0,1,2.31-.949,21.118,21.118,0,0,1,3.349-.59,4.8,4.8,0,0,0-.141-.937,2.159,2.159,0,0,0-.385-.8,1.791,1.791,0,0,0-.706-.539,2.672,2.672,0,0,0-1.078-.192,4.773,4.773,0,0,0-1.809.359,12.192,12.192,0,0,0-1.732.872l-1.078-1.976a12.64,12.64,0,0,1,2.361-1.155,8.026,8.026,0,0,1,2.823-.487,4.338,4.338,0,0,1,3.529,1.4,6.159,6.159,0,0,1,1.167,4.042v7.468h-2.438l-.205-1.386h-.1a9.234,9.234,0,0,1-1.809,1.206,4.57,4.57,0,0,1-2.092.488m.95-2.31a2.768,2.768,0,0,0,1.4-.359,7.494,7.494,0,0,0,1.347-1.027v-2.823a13.578,13.578,0,0,0-2.156.41,6.257,6.257,0,0,0-1.411.578,2.06,2.06,0,0,0-.77.731,1.755,1.755,0,0,0-.231.873,1.438,1.438,0,0,0,.513,1.232,2.123,2.123,0,0,0,1.309.385" transform="translate(-1244.939 -308.147)" fill="#2e0098"/>
        </g>
      </g>
    </g>
  </g>
</svg>
