<svg id="Grupo_4" data-name="Grupo 4" xmlns="http://www.w3.org/2000/svg" xmlns:xlink="http://www.w3.org/1999/xlink" width="151.298" height="44.456" viewBox="0 0 151.298 44.456">
  <defs>
    <clipPath id="clip-path">
      <rect id="Rectángulo_14" data-name="Rectángulo 14" width="151.298" height="44.456" fill="#fff"/>
    </clipPath>
  </defs>
  <path id="Trazado_1" data-name="Trazado 1" d="M409.753,135.014V138.5h-6.537v2.4h6.124v3.484h-6.124v4.513h-4.568V135.014Z" transform="translate(-353.578 -119.75)" fill="#fff"/>
  <path id="Trazado_2" data-name="Trazado 2" d="M513.367,135.014l3.013,7.245,3.013-7.245h4.824v13.877h-3.977v-7.6l-2.363,6.255h-2.993l-2.363-6.255v7.6h-3.977V135.014Z" transform="translate(-451.049 -119.75)" fill="#fff"/>
  <g id="Grupo_3" data-name="Grupo 3">
    <g id="Grupo_2" data-name="Grupo 2" clip-path="url(#clip-path)">
      <path id="Trazado_3" data-name="Trazado 3" d="M678.257,141.942c0,4.216-3.012,6.948-7.679,6.948h-5.986V135.014h6.163c4.549,0,7.5,2.712,7.5,6.928m-4.667.04c0-2.059-1.162-3.4-2.934-3.4h-1.5v6.75h1.713c1.654,0,2.717-1.307,2.717-3.345" transform="translate(-589.455 -119.75)" fill="#fff"/>
      <path id="Trazado_4" data-name="Trazado 4" d="M801.347,135.014V140.4h4.273v-5.384h4.568v13.877H805.62v-5.008h-4.273v5.008h-4.568V135.014Z" transform="translate(-706.697 -119.75)" fill="#fff"/>
      <path id="Trazado_5" data-name="Trazado 5" d="M942.143,138.225c0-1.6-1.3-2.573-3.406-2.573a5.872,5.872,0,0,0-3.958,1.7l-.414-.653a6.537,6.537,0,0,1,4.45-1.861c2.56,0,4.174,1.267,4.174,3.306,0,1.247-.984,2.851-2.5,4.434l-5.119,5.325h8.6v.831h-9.589l.02-.851,5.533-5.82c1.339-1.386,2.205-2.831,2.205-3.84" transform="translate(-828.728 -119.595)" fill="#fff"/>
      <path id="Trazado_6" data-name="Trazado 6" d="M1050.975,141.942c0,4.494-1.772,6.968-5.021,6.968-3.229,0-5-2.474-5-6.968,0-4.454,1.772-6.928,5-6.928,3.249,0,5.021,2.474,5.021,6.928m-9.215,0c0,4.038,1.477,6.216,4.194,6.216s4.214-2.177,4.214-6.216c0-4.018-1.5-6.176-4.214-6.176s-4.194,2.158-4.194,6.176" transform="translate(-923.265 -119.75)" fill="#fff"/>
      <path id="Trazado_7" data-name="Trazado 7" d="M1157.056,138.225c0-1.6-1.3-2.573-3.406-2.573a5.872,5.872,0,0,0-3.958,1.7l-.414-.653a6.537,6.537,0,0,1,4.45-1.861c2.56,0,4.174,1.267,4.174,3.306,0,1.247-.984,2.851-2.5,4.434l-5.119,5.325h8.6v.831H1149.3l.02-.851,5.533-5.82c1.339-1.386,2.205-2.831,2.205-3.84" transform="translate(-1019.344 -119.595)" fill="#fff"/>
      <path id="Trazado_8" data-name="Trazado 8" d="M1261.933,144.829c0,2.514-2.008,4.236-5.218,4.236a8.828,8.828,0,0,1-4.509-1.247l.414-.713a7.532,7.532,0,0,0,4.076,1.188c2.776,0,4.43-1.406,4.43-3.385,0-2.019-1.693-3.068-4.489-3.068H1255v-.594l5.139-5.226h-7.305v-.831h8.368v.633l-5.218,5.345h.925c3.013.059,5.021,1.405,5.021,3.662" transform="translate(-1110.635 -119.905)" fill="#fff"/>
      <path id="Trazado_9" data-name="Trazado 9" d="M111.147,112.46a8.964,8.964,0,1,0,2.951,12.329,8.963,8.963,0,0,0-2.951-12.329m.024,10.276a5.343,5.343,0,1,1-1.759-7.349,5.342,5.342,0,0,1,1.759,7.349" transform="translate(-86.47 -98.569)" fill="#fff"/>
      <path id="Trazado_10" data-name="Trazado 10" d="M131.773,37.023c.208-.01.42-.019.632-.019a11.125,11.125,0,0,1,6.719,2.245c-.808-1.422-.786-2.2,1.716-1.995a10.852,10.852,0,0,1,5.209,1.846,11.392,11.392,0,0,0-2.777-5.5,4.927,4.927,0,0,1-8.927-3.848,11.258,11.258,0,0,0-7.433,2.931,10.829,10.829,0,0,1,4.85,1.3c2.279,1.235,1.682,2.065.01,3.033" transform="translate(-112.564 -26.392)" fill="#fff"/>
      <path id="Trazado_11" data-name="Trazado 11" d="M196.028,5.469a4.446,4.446,0,1,0,.01-2.094,4.439,4.439,0,0,0-.01,2.094" transform="translate(-173.758 0)" fill="#fff"/>
      <path id="Trazado_12" data-name="Trazado 12" d="M32.146,207.4c-.477-2.082.15-2.514,1.429-2.253a11.028,11.028,0,0,1-.967-1.3c-.222.6-.867.652-2.346-.15a10.675,10.675,0,0,1-4.728-5.173,11.617,11.617,0,0,0-.309,5.428,5.056,5.056,0,0,1,.982-.215,4.925,4.925,0,0,1,4.275,8.133,11.367,11.367,0,0,0,5.863,1.841,10.746,10.746,0,0,1-4.2-6.307" transform="translate(-22.209 -176.08)" fill="#fff"/>
      <path id="Trazado_13" data-name="Trazado 13" d="M8.845,252.834a4.437,4.437,0,0,0-4.915-3.9,4.531,4.531,0,0,0-.885.193,4.431,4.431,0,1,0,5.8,3.708" transform="translate(0.001 -220.764)" fill="#fff"/>
      <path id="Trazado_14" data-name="Trazado 14" d="M137.555,283.071c-2.084-.172-2.364-.861-1.809-1.945a11.133,11.133,0,0,1-4.65,1.173c1.786.656,2.5,1.266.289,2.8a10.576,10.576,0,0,1-6.345,1.879,11.664,11.664,0,0,0,4.478,1.972,5.177,5.177,0,0,1,.167-1,4.923,4.923,0,0,1,9.14-.934,11.37,11.37,0,0,0,3.921-4.823,10.665,10.665,0,0,1-5.192.878" transform="translate(-110.903 -249.343)" fill="#fff"/>
      <path id="Trazado_15" data-name="Trazado 15" d="M96.231,264.343c-1.108-.253-1.663.06-1.264,1.805a8.687,8.687,0,0,0,3.4,5.107,8.562,8.562,0,0,0,5.137-1.52c1.855-1.287,1.168-1.769-.4-2.326a10,10,0,0,1-6.876-3.066" transform="translate(-84.116 -234.389)" fill="#fff"/>
      <path id="Trazado_16" data-name="Trazado 16" d="M174.3,314.864a4.441,4.441,0,0,0-5.453,3.1,4.63,4.63,0,0,0-.15.895,4.432,4.432,0,1,0,5.6-4" transform="translate(-149.62 -279.126)" fill="#fff"/>
      <path id="Trazado_17" data-name="Trazado 17" d="M271.917,125.555a4.926,4.926,0,0,1,4.613-7.641,11.544,11.544,0,0,0-4.294-5.494,10.825,10.825,0,0,1-.135,4.744c-.639,2.49-1.583,2.14-2.917.772a11.147,11.147,0,0,1,.2,6.469c.789-.572,1.361-.311,1.8,1.634a10.561,10.561,0,0,1-.591,6.521,11.127,11.127,0,0,0,5.236-4.825,4.914,4.914,0,0,1-3.914-2.181" transform="translate(-238.752 -99.71)" fill="#fff"/>
      <path id="Trazado_18" data-name="Trazado 18" d="M240.443,107.881c1.037,1.04,1.777,1.26,2.282-.705a8.78,8.78,0,0,0,.109-3.845,8.777,8.777,0,0,0-4.217-1.494c-2-.164-2.046.447-1.414,1.575a10.076,10.076,0,0,1,3.24,4.469" transform="translate(-210.067 -90.3)" fill="#fff"/>
      <path id="Trazado_19" data-name="Trazado 19" d="M224.789,230.488c-.374.815-.1,1.332,1.52,1.463a8.593,8.593,0,0,0,4.2-.71,8.551,8.551,0,0,0,.478-5.279c-.345-1.5-.781-1.766-1.377-1.382a10.092,10.092,0,0,1-4.826,5.908" transform="translate(-199.244 -199.049)" fill="#fff"/>
      <path id="Trazado_20" data-name="Trazado 20" d="M300.592,166.325a4.431,4.431,0,1,0-1.22,6.157,4.437,4.437,0,0,0,1.22-6.157" transform="translate(-259.402 -145.776)" fill="#fff"/>
      <path id="Trazado_21" data-name="Trazado 21" d="M26.389,66.084c1.451-1.008,2.131-.9,2.459-.1a11.167,11.167,0,0,1,2.075-2.806c-.914.116-1.273-.4-.784-2.3a10.678,10.678,0,0,1,3.132-5.23,11.449,11.449,0,0,0-5.726,1.366,4.926,4.926,0,0,1-5.908,7.72,11.323,11.323,0,0,0,.611,7.064,10.694,10.694,0,0,1,4.14-5.709" transform="translate(-18.923 -49.348)" fill="#fff"/>
      <path id="Trazado_22" data-name="Trazado 22" d="M111.317,62.748a8.758,8.758,0,0,0-3.928-1.056,8.625,8.625,0,0,0-2.538,4.237c-.422,1.646-.06,2.015.794,1.838a10.056,10.056,0,0,1,5.5-2.461c1.491-.828,2.1-1.517.174-2.558" transform="translate(-92.84 -54.717)" fill="#fff"/>
      <path id="Trazado_23" data-name="Trazado 23" d="M43.246,152c-.267-.632-.82-.717-1.988.094a8.675,8.675,0,0,0-3.351,4.625,8.636,8.636,0,0,0,3.829,4.189c1.149.622,1.677.612,1.875.179A10.05,10.05,0,0,1,43.246,152" transform="translate(-33.621 -134.38)" fill="#fff"/>
      <path id="Trazado_24" data-name="Trazado 24" d="M12.643,60.882a4.428,4.428,0,1,0-4.492,4.384,4.416,4.416,0,0,0,4.492-4.384" transform="translate(-3.343 -50.018)" fill="#fff"/>
    </g>
  </g>
</svg>
