<svg xmlns="http://www.w3.org/2000/svg" xmlns:xlink="http://www.w3.org/1999/xlink" width="40" height="40" viewBox="0 0 40 40">
  <defs>
    <clipPath id="clip-path">
      <rect id="Rectángulo_28" data-name="Rectángulo 28" width="15.648" height="9.764" fill="#fafeff"/>
    </clipPath>
  </defs>
  <g id="Grupo_32" data-name="Grupo 32" transform="translate(-657 -830)">
    <circle id="Elipse_1" data-name="Elipse 1" cx="20" cy="20" r="20" transform="translate(657 830)" fill="#520bff"/>
    <g id="Grupo_31" data-name="Grupo 31" transform="translate(669.176 845.118)">
      <g id="Grupo_30" data-name="Grupo 30" transform="translate(0 0)" clip-path="url(#clip-path)">
        <path id="Trazado_136" data-name="Trazado 136" d="M0,5.713A5.293,5.293,0,0,1,.746,3.049,7.056,7.056,0,0,1,2.665.874,3.992,3.992,0,0,1,5.074,0a1.54,1.54,0,0,1,.9.342,1.328,1.328,0,0,1,.469,1.151q0,.81-.533.981A7.41,7.41,0,0,0,4.861,2.9a2.628,2.628,0,0,0-.938.746,1.739,1.739,0,0,0-.341,1.087,1.051,1.051,0,0,0,.405.789,1.446,1.446,0,0,0,1,.362,3.154,3.154,0,0,0,.618-.064,1.583,1.583,0,0,0,.576-.235,1.681,1.681,0,0,1,.64.49,1.437,1.437,0,0,1,.256.917A2.541,2.541,0,0,1,5.991,8.954a3.884,3.884,0,0,1-2.452.81A3.225,3.225,0,0,1,.981,8.634,4.292,4.292,0,0,1,0,5.713m8.57,0a5.293,5.293,0,0,1,.746-2.665A7.056,7.056,0,0,1,11.235.874,3.992,3.992,0,0,1,13.644,0a1.54,1.54,0,0,1,.9.342,1.328,1.328,0,0,1,.469,1.151q0,.81-.533.981a7.41,7.41,0,0,0-1.045.426,2.628,2.628,0,0,0-.938.746,1.739,1.739,0,0,0-.341,1.087,1.051,1.051,0,0,0,.405.789,1.446,1.446,0,0,0,1,.362,3.154,3.154,0,0,0,.618-.064,1.583,1.583,0,0,0,.576-.235,1.681,1.681,0,0,1,.64.49,1.437,1.437,0,0,1,.256.917,2.541,2.541,0,0,1-1.087,1.961,3.884,3.884,0,0,1-2.452.81,3.225,3.225,0,0,1-2.558-1.13A4.292,4.292,0,0,1,8.57,5.713" transform="translate(0 0)" fill="#fafeff"/>
      </g>
    </g>
  </g>
</svg>
